<svg id="Layer_1" data-name="Layer 1" xmlns="http://www.w3.org/2000/svg" viewBox="0 0 673.06 720.33"><defs><style>.cls-1{fill:#676767;}</style></defs><path class="cls-1" d="M326.05,253.59h8.63v42c-3.35,1.29-6.88.86-10.17,1.54-1.41-1.15-1.06-2.71-1.35-4-3.48-16.2-15.31-26.6-32.22-28.18-7.91-.74-15.76-.59-23.28,2.44-5.09,2.05-8.78,5.36-9.66,11.11-1,6.59,1,10.93,6.84,14.2,8.19,4.57,17.37,5.56,26.37,7.21s18.24,3.49,27,6.81c7.95,3,14.56,7.7,18.86,15.26a13.77,13.77,0,0,0,1.27,1.48l25.2-66.06h23.85q9.45,25.69,18.86,51.28c6.27,17.07,12.76,34.06,18.67,51.26,1.94,5.65,5.45,7.74,10.8,8.1l3.59.23a42.53,42.53,0,0,1,.13,9.44H380.21v-9.57c4.26,0,8.6-.17,12.92.05,4.65.23,7-1.5,4.76-6.46s-3.82-10.12-5.76-15.39H342.8a127.44,127.44,0,0,0-6.16,16.16c-1,3.08.5,5.05,4.14,5.46,2.68.3,5.42.09,8.13.19,1.38,0,2.83-.39,4.33.46v9.07H275.09c4.32-2.93,8.74-5.32,11.45-9.35,2.92-4.34,6.38-6.11,11.73-6.16,5.92-.06,11.75-1.75,16.31-6.14,5-4.81,6.42-10.87,5.51-17.39-.73-5.25-5.11-7.51-9.54-9.2-7-2.69-14.48-3.68-21.87-4.86-8.92-1.42-17.83-2.91-26.36-6.09-9.43-3.51-17.37-8.76-21.09-18.58-4.61-12.17-3.91-29.66,7.18-39.15,8-6.8,17.51-9.13,27.62-9.65,12.86-.67,25.22,1.14,36.67,7.57,4.37,2.46,6.82,1.91,10.38-1.65,1.08-1.08,2-2.31,3-3.44Zm61.75,79.92c-6.67-18.49-13.24-36.69-19.8-54.89l-.87,0-20.08,54.91Z"/><path class="cls-1" d="M263.9,333.23a20.21,20.21,0,1,1-20.46,20.3A20.23,20.23,0,0,1,263.9,333.23Z"/><path class="cls-1" d="M110,420.15a50.17,50.17,0,0,0-.16-10.78c-1.13-1.65-3.08-.44-4.29-2.41h14.25c-1.17,2-3.1.73-4.38,2.4v26.32c1,1.6,3.26.26,4.23,2.52H105.79c.72-2.21,2.92-1.06,4.16-2.5.62-3.85.19-8.07.27-12.52-6-.92-11.73-.55-17.76-.22v12.52c1.16,1.79,3.48.4,4.23,2.81H83c.36-2.36,2.72-1.13,4-2.25.15-9.06.64-18.13,0-26.56-1.4-1.77-3.48-.45-4.13-2.67H96.62c-.18.52-.23.94-.33.95-3.62.34-4.56,2.48-4.17,5.8a55.62,55.62,0,0,1,0,6.35,74.72,74.72,0,0,0,17.88.24Z"/><path class="cls-1" d="M198.93,438c-5,1.43-8,.33-10.43-3.55-2.79-4.42-6.23-8.44-9.62-12.94,2-.3,3.61-.41,5.17-.82a6.26,6.26,0,0,0,5.07-5.23c.34-2.13.11-4.19-1.84-5.56a9.43,9.43,0,0,0-8.16-1.16,1.78,1.78,0,0,0-1.28,1.76c-.46,8.48-.39,17-.08,24.66,1.35,2.05,3.68.78,4.32,3.15H168.42c.67-2.38,3-1.05,4.14-2.91v-26c-1.22-1.73-3.15-.57-4.08-2,.2-1.35,1.24-1,2.06-1,5,0,10.08,0,15.11,0,5.39,0,7.84,1.75,8.59,5.91.63,3.52-1.81,7.41-5.74,9.11-.81.35-1.68.59-3.18,1.1,4.55,5.2,7.18,11.44,13.61,15.4Z"/><path class="cls-1" d="M333.82,409.4c-1.17-1.48-3-.57-3.57-2.11.15-.26.27-.65.4-.65,6.05-.09,12.1-.19,18.15-.19,6.4,0,11.33,2.64,13.66,8.79,2.45,6.47,1,12.45-3.36,17.69A15,15,0,0,1,348,438.52c-5.25.25-10.53.06-16.55.06,3-2.87,2.59-6.11,2.57-9.23,0-6.8.38-13.62-.22-20Zm4.86,0c0,7.92,0,15.63,0,23.34,0,1-.18,2.07.51,2.95,7.43,1.76,13.58.06,16.7-4.61,3-4.47,3.2-13.22.42-17.37-3.08-4.59-9.77-6.32-17.65-4.32Z"/><path class="cls-1" d="M428.43,405.82c10.53-.06,16.78,5.67,16.82,15.4,0,10.84-7,18.1-17.74,18.19-10.09.08-16.71-6.57-16.68-16.77s6.89-16.76,17.6-16.82ZM440.28,422a16.58,16.58,0,0,0-3.34-9.78c-3.38-4.24-8.15-4.81-13-3.68-4.45,1-6.79,4.33-7.67,8.76A19,19,0,0,0,419.08,432c3,4.47,8.29,6,13.72,4.25C437.31,434.83,440.27,429.6,440.28,422Z"/><path class="cls-1" d="M588.08,438.56H565.33c2.63-2.66,2.3-5.58,2.31-8.41,0-7,0-13.94,0-20.43-.88-2-3.07-.74-3.94-2.94,7.9-.65,15.6-.13,23.45-.3a17.1,17.1,0,0,1-.89,7.4c-2.41-.75-.89-2.93-2.48-4.44-3-1-6.67-.71-10.72-.59v11.74a19.18,19.18,0,0,0,7.92,0c1.82-.85.69-2.73,2-3.47,1.49,2.28,1.6,7.42.22,10.42-2.51-4.87-2.63-4.91-10.34-4.07a55.82,55.82,0,0,0,0,12.66c3.8.45,7.38-.11,10.95-.19a2.45,2.45,0,0,0,2.43-2.07c.31-1.13.1-2.62,1.91-3.4.79,2.79,0,5.34,0,8.09Z"/><path class="cls-1" d="M160.79,438.45h-12c0-2.67,2.38-1.23,3.35-2.72-.08-2.42-1.54-4.69-2.79-7.53-3.61,0-7.33,0-11.05,0-1.67,0-2.18,1.12-2.66,2.35-.68,1.77-1.94,3.38-1.6,5.33.89,1.38,3.06,0,3.68,2.42-3.64.71-7.2.06-11.09.4,8.17-8.6,10.29-19.65,15.2-29.26.62-1.21.64-2.82,2.14-3.4,1.5,0,1.6,1.22,2,2.12,3.1,7.23,6.13,14.5,9.32,21.7,1.34,3,1.89,6.67,6.08,7.71l-.57.9ZM142.9,413.31l-5.16,12.13a50.89,50.89,0,0,0,10.48-.09c-1.69-4-2.85-8-5.33-12Z"/><path class="cls-1" d="M306.34,405.48c2.92,4.41,4.11,9.06,6.14,13.31,1.82,3.83,3.24,7.85,4.94,11.74,1.25,2.85,2.12,6.05,5.91,7-.11.26-.23.51-.34.77H310.38c.72-2.2,2.57-1.12,3.7-2.44-.19-2.46-1.48-4.8-2.71-7.4H298.71c-1.17,2.46-2.67,4.7-2.82,7.22.83,1.58,3.15.23,3.49,2.66H289.14c7-7.07,8.73-16.91,13.17-25.3,1.23-2.33,1.55-5.15,4-7.51Zm-6.64,20a54.24,54.24,0,0,0,10.55-.21L305,412.94l-5.27,12.57Z"/><path class="cls-1" d="M508.43,406.07c1.77.73,1.87,2.33,2.4,3.56,3,7,5.89,14,8.94,21,1.22,2.79,1.73,6.21,5.79,7.3-4.54.41-8.7,1.16-13.08.31.86-2.41,3-.93,4.06-2.74-1.85-2.2-.18-7.33-5.34-7.26-12.55.17-9.46-2.25-13.23,7.52.63,1.62,3.21,0,3.65,2.48H491.06c4.57-2.09,5.12-6.62,6.82-10.28,2.87-6.2,5.53-12.5,8.3-18.75.5-1.13.57-2.59,2.25-3.15Zm4.15,19.44c-1.79-4.23-3.36-7.95-5.23-12.35a94.08,94.08,0,0,0-5.18,12.35Z"/><path class="cls-1" d="M239.17,437.62c-3.74,1.35-10.53,1.2-12.57.1.53-1.91,2.73-.38,3.58-1.92.23-.89-.37-1.81-.7-2.76-.55-1.56-1.22-3.07-1.93-4.84-3.71,0-7.3.05-10.89,0-1.61,0-2.31.83-2.79,2.15-.65,1.78-2,3.34-1.91,5.15.63,1.84,3,.37,3.56,2.68H204.88c0-.12-.11-.57-.06-.58,3.69-1.24,4.74-4.51,6.07-7.65,3-7,6.07-13.92,9.16-20.85.5-1.11.64-2.56,2.42-3,1.8,1.31,2.19,3.53,3,5.46,3,7,5.91,14,8.91,21,.94,2.2,2,4.4,4.77,5.1Zm-13.1-12.17c-1.09-4.31-3.15-8-5-12.65l-5.17,12.52A47.27,47.27,0,0,0,226.07,425.45Z"/><path class="cls-1" d="M73.4,407.93c-.6,1.94-.11,4.15-1.06,6-1.07.1-1.57-.32-1.52-1,.23-3.52-2.18-4.33-4.87-4.74-3.48-.53-6.31.84-7.47,3.47-1.51,3.41-.06,6.53,3.63,7.47,2.12.53,4.33.67,6.46,1.14,6.81,1.49,9.18,7.9,5.09,13.62s-13,7.35-20,3.57a21.91,21.91,0,0,1,.44-6.88c1-.3,1.45.08,1.43.58-.14,3.86,2.19,5.14,5.53,5.51,3.65.4,7,.12,9.15-3.41,2.29-3.81.73-7.55-3.58-8.66-2.12-.54-4.3-.83-6.42-1.38-4.46-1.16-6.2-3.13-6.41-7.06-.26-4.72,1.68-7.94,5.7-9.49,4.33-1.67,9.19-1.25,13.92,1.27Z"/><path class="cls-1" d="M617.34,407.56c-.12,2-.2,3.63-.33,5.29a3.62,3.62,0,0,1-.37,1c-1.26.33-1.6-.21-1.81-1.33-.68-3.62-4.13-5.3-8.31-4.15a5.89,5.89,0,0,0-4.19,7.56c.64,2,2.26,2.76,4.06,3.19s3.55.64,5.33.95c3.63.62,6.86,1.89,7.6,6a9.9,9.9,0,0,1-4.27,10.48c-5.37,3.8-11.08,3.49-17.06,1.35a15.23,15.23,0,0,1,.16-7.37c.73-.2,1.13-.1,1.25.3a8.26,8.26,0,0,0,12,5.17,6.44,6.44,0,0,0,3.73-6.67c-.26-3-2.09-4.51-5.05-4.91a50.19,50.19,0,0,1-5.68-1.17c-4.73-1.22-6.55-3.39-6.61-7.77a9,9,0,0,1,6.42-9.1c4.39-1.31,8.65-.72,13.16,1.18Z"/><path class="cls-1" d="M483.21,433.87a3.15,3.15,0,0,1-1.51,3.42c-8.12,5.29-22.38,1.63-26.59-6.84-5.26-10.6.34-22.05,12.12-24.27a25.37,25.37,0,0,1,15.61,1.64c.23,2.49-.43,4.68-1.3,7.63-2.28-6.26-5.67-8-12.25-7.15a11.91,11.91,0,0,0-10.48,11.2c-1.36,15.41,12.05,19.7,22,15.6.69-.29,1.34-.68,2.39-1.23Z"/><path class="cls-1" d="M371.53,406.92h12.3c-.68,2.17-2.59.9-3.7,2.43,2,7.22,5.4,14.27,8.57,22.55,3.3-8,6.5-15,8.51-22.27-.6-2-3-.53-3.56-2.74h9.94c-3.14,1.74-3.91,4.89-5.06,7.78-2.92,7.31-5.81,14.62-8.75,21.92-.4,1-.46,2.37-2.08,2.41s-1.78-1.26-2.19-2.29c-3.13-7.78-6.31-15.54-9.33-23.36-1-2.53-1.55-5.21-5.23-5.57l.6-.85Z"/><path class="cls-1" d="M263.66,420.68c1.65-.89.75-2.81,2.66-3.57.76,3.78.19,7.33.36,11.41-2.59-1.31-.8-5-3.94-5-2.16-.05-4.32-.74-7,.34v11.38c1.37,2,3.58.89,4.56,3.08h-13.7c.61-2.17,2.91-1.06,4.19-2.94.57-6,.18-12.66.23-19.33a17.93,17.93,0,0,1-.09-1.93c.4-3.36-.06-6.14-4.46-6.76,7.62-1.28,15-.5,22.74-.95-.34,2.75.14,5.12-1.15,7.31-2.25-.73-.76-3-2.5-4.31-2.7-1-6-.7-9.54-.23a68.88,68.88,0,0,0-.16,11.74,18.26,18.26,0,0,0,7.77-.19Z"/><path class="cls-1" d="M545.28,435.7c1.09,1.53,3.42.23,4,2.64H535.81c.61-2.48,3-1.08,4.15-2.88v-26c-2.77-1-5.29-.15-7.58-.31-1.24,1.57-.56,3.58-2.26,4.95-1.51-2.34-.6-4.75-.9-7.3h26.45c.46,2.37.12,4.66-.08,7.41-2.38-1.2-1.52-3.28-2.52-4.76a21.31,21.31,0,0,0-7.77-.29v26.55Z"/><path class="cls-1" d="M351.05,463.81c-1.26-1.25-3.09.06-4.16-1.61,2.06-1.39,4.16-.46,6.2-.47,0,4-1.77,6.41-5.16,7-4,.73-8.08-1.35-9.22-4.71a7.26,7.26,0,0,1,3.4-9,7.9,7.9,0,0,1,10.13,2.22c-.56.95-1.2.65-1.92.18a10.22,10.22,0,0,0-2.05-1.06,6.08,6.08,0,0,0-7.75,3.25c-.94,2.28.27,5.21,2.7,6.58,2.9,1.63,5.77.77,7.84-2.46Z"/><path class="cls-1" d="M248.16,454.34c1.68,0,3.22,0,4.75,0,1.68.06,3.49.88,3.49,2.44a33.16,33.16,0,0,0,1.42,7.89c.53,2.22-1.49,3.73-3.8,4-1.78.19-3.59,0-5.87,0V454.34Zm1.75,12.28c1.87,0,3.93.9,5.59-.92a1.83,1.83,0,0,0-.08-2.48c-1.58-1.93-3.64-1.16-5.86-1.14,0,1.62-.47,2.95.35,4.54Zm0-6.51c1.57.19,3.21.53,4.5-1a1.44,1.44,0,0,0,0-2.09c-1.41-1.23-3.07-.76-4.63-.6a3.75,3.75,0,0,0,.09,3.67Z"/><path class="cls-1" d="M483.17,468.81l-8.58-9.59c-.69,3.49.15,6.56-1.35,9.38-1.27-4.53-.78-9.12-.93-13.67l.8-.33,7.95,9.09c1.46-3.18-.34-6.54,1.38-9.44,1.47,2.2,1.77,8.47.73,14.56Z"/><path class="cls-1" d="M447.48,462.45l3.65,6.46c-4.27-.87-4.06-5.35-7-6.52-1.54,1.87.12,4.31-1.12,6.18-1.77-1.61-2.11-5.83-1.13-13.69,4.67-1.11,7.64-.52,8.52,1.86,1,2.64-.14,4.48-2.89,5.71Zm-3.72-2.22c1.72.09,3.41.85,4.63-.87a1.62,1.62,0,0,0,0-2.11c-1.31-1.4-2.95-1-4.71-.73a6.75,6.75,0,0,0,.1,3.71Z"/><path class="cls-1" d="M171.82,462.39c-1.36,2.06.21,4.51-2,6.23V454.43c2.93.13,6.41-1.28,8.18,2.31,1.28,2.59,0,4.7-2.6,5.59.44,2.55,2.58,3.86,3,6.46-3.93-.67-3.57-5.05-6.55-6.39Zm-.29-2.19c1.8.18,3.5.81,4.63-1a1.43,1.43,0,0,0,0-1.77c-1.27-1.53-2.87-1.22-4.48-.88a4.38,4.38,0,0,0-.15,3.65Z"/><path class="cls-1" d="M517.63,468.75c-3.71-.67-3.22-5.22-6.33-6.2-1.5,1.77.33,4.35-2,6.79V454.63c2.81-.33,6.15-1.3,8.11,1.91,1.53,2.52,0,4.63-2.47,5.94.32,2.33,2.57,3.66,2.7,6.27Zm-6.59-8.4c1.71-.09,3.52.75,4.53-1.24a1.74,1.74,0,0,0-1-2.53,3.71,3.71,0,0,0-3.62.19,5.28,5.28,0,0,0,.11,3.58Z"/><path class="cls-1" d="M233.58,453.78c2.57,5.46,4.67,9.94,6.93,14.76-3.34.07-2.76-3-4.21-3.91-4.76-2.62-6.49,1.59-8.75,4.6l-.86-.94c2.2-4.64,4.41-9.28,6.88-14.51Zm1.37,8a3.42,3.42,0,0,0-1.31-2.89,3.59,3.59,0,0,0-1.57,3.22C233.09,462.45,234.05,462.73,235,461.82Z"/><path class="cls-1" d="M427.34,453.84l6.72,14.42c-.27.29-.54.59-.82.88-2.27-2.75-3.86-6.94-8.5-4.71-1.73.85-1,4-4.27,4.33,1.81-5.09,4.24-9.5,6.87-14.94Zm1.45,8.14a3.91,3.91,0,0,0-1.65-3.15c-.65,1.2-1.69,1.94-1.22,3.35A3.55,3.55,0,0,0,428.79,462Z"/><path class="cls-1" d="M408.06,462.61c-.93,1.86.27,4.07-.84,6-1.67-1.65-2.1-7.45-1.1-13.74,5.32-1.2,8.07-.36,8.72,2.65s-.7,3.86-6.78,5.1Zm.06-2.36c1.74.2,3.5.67,4.51-1.23a1.66,1.66,0,0,0-.75-2.33,4,4,0,0,0-4.07.22c0,1-.37,2,.31,3.35Z"/><path class="cls-1" d="M280.59,468.68v-14c2.82-.41,5.48-.78,8.48.35-2,2.36-4.46.44-6.78,1.95-.42.48-.08,1.63,0,2.73,1,1.27,2.85-.17,3.86,1.23-.68,1.9-2.65.25-3.72,1.46a6.48,6.48,0,0,0,0,3.95c1.88,1.15,4.34-.45,6.79,1.7-3.08,1.19-5.66.52-8.65.64Z"/><path class="cls-1" d="M494.11,466.17c2.29,1.22,4.55-.12,7.1,1.74-3.23,1.34-5.83.82-8.65.59V454.7c2.67-.54,5.32-.88,8.28.38-2,2.26-4.49.44-6.41,1.68a2.75,2.75,0,0,0-.21,2.63c.89,1.55,2.94,0,3.7,1.68-.79,1.52-2.47.24-3.77,1.49-.57.93,0,2.3,0,3.61Z"/><path class="cls-1" d="M322.61,468.67V454.72A16,16,0,0,1,331,455c-1.82,2.49-4.37.57-6.18,1.74-.72.87-.34,1.87-.3,2.63.91,1.48,2.65.42,3.52,1.54-.54,1.82-2.4.44-3.39,1.6a4.94,4.94,0,0,0,0,3.74c1.83,1.45,4.42-.45,6.29,1.72-2.72,1.51-5.35.59-8.38.75Z"/><path class="cls-1" d="M364.64,464.46c-1.63,1-1.4,3.58-3.89,4a78.25,78.25,0,0,1,6.37-14.41c2.51,5.13,4.95,9.51,6.17,14.68C370.84,466.38,369.48,462.14,364.64,464.46Zm.84-2.29c1.18.29,2.15.5,3.13-.13-.24-1.23-.4-2.47-1.74-3.3-.52,1.06-1.31,1.91-1.38,3.43Z"/><path class="cls-1" d="M195.7,455.06c-2.45,2-4.73.62-6.68,1.63a2.87,2.87,0,0,0-.23,3c1,1.17,2.67-.05,3.56,1.26-.62,1.7-2.38.41-3.51,1.51-.63,1.06-.38,2.41-.08,3.74,1.9,1.34,4.38-.13,6.71,1.54-2.94,1.83-5.64.63-8.46,1.06v-14a15.41,15.41,0,0,1,8.69.31Z"/><path class="cls-1" d="M462.1,457.08c-.59,3.73.43,7.68-1.16,11.51-1.56-3.73-.62-7.73-1.1-11.37-.57-1.41-2.48-.36-2.85-2.26,2.56-1.2,5.14-.71,7.82-.19-.05,2.11-1.91,1.06-2.71,2.32Z"/><path class="cls-1" d="M205,466c1.78,1.61,4.08-.24,5.37,2.05-2.33,1.36-4.6.76-6.91.43v-14l1.07,0c.79,3.84,0,7.86.46,11.56Z"/><path class="cls-1" d="M309.42,454.43v11.19c1.91,1.94,4.23.13,5.49,2.36-2.24,1.3-4.42.69-6.62.56V454.45c.38,0,.75,0,1.13,0Z"/><path class="cls-1" d="M388.76,468.13c-2.58,1-4.75.61-7,.41v-14l1.18-.08c.71,3.82,0,7.81.34,11.41,1.45,1.81,3.77,0,5.5,2.29Z"/><path class="cls-1" d="M267.35,466.1c2,1.28,4.2-.23,5.63,1.89-2.31,1.26-4.55.74-7.09.57-.09-4.75-.45-9.42,0-14.05h1.42v11.6Z"/><path class="cls-1" d="M218.84,454.64v13.82H218V454.6l.82,0Z"/></svg>