<svg id="Layer_1" data-name="Layer 1" xmlns="http://www.w3.org/2000/svg" xmlns:xlink="http://www.w3.org/1999/xlink" viewBox="0 0 673.06 720.33"><defs><style>.cls-1,.cls-3{fill:#676767;}.cls-2,.cls-3{isolation:isolate;}.cls-3{font-size:35.32px;font-family:Calibri-Italic, Calibri;font-style:italic;}.cls-4{clip-path:url(#clip-path);}.cls-5{clip-path:url(#clip-path-2);}.cls-6{clip-path:url(#clip-path-3);}.cls-7{clip-path:url(#clip-path-4);}</style><clipPath id="clip-path"><path class="cls-1" d="M120.78,296.31a3.52,3.52,0,0,0,2.28,6.66c26.84-9.2,52.77-3.46,63.06,14,7.1,12,5.78,27.33-2,41.76l-1,1.8.67-1.68c3.52-12.95,1.63-24.93-5.37-33.85a23,23,0,0,0-6.19-5.67c-4.8-3.16-15-5.25-23.58-2.74a44.08,44.08,0,0,0-14.6,7.1c-.79.61-1.68,1.08-2.44,1.72-.33.28-.72.93-.61,1.22a1.36,1.36,0,0,0,1.12.75,25.41,25.41,0,0,0,3-.88c3.43-1,6.81-2.41,10.3-3a24.52,24.52,0,0,1,11.12.8,8.12,8.12,0,0,1,2.81,1.56,2,2,0,0,1-.14,3.3,24.83,24.83,0,0,1-3.69,2.09c-2.19,1.09-4.2,2.35-4.82,5.06a4.9,4.9,0,0,0,0,1.83c.17.91.89,1.3,1.53.66,3.22-3.21,7.41-3.62,11.3-4.88a24.3,24.3,0,0,0,8.84-5.13l.53.61c5.74,7.3,7.11,17.42,3.87,28.5-1.54,5.27-2.58,10.41-6.81,15.92-7.75,9.9-9.06,9.19-17,16.23-1.41,1.33-2.23,3.15-1.24,4.82a3.52,3.52,0,0,0,4.82,1.24c34.54-20.41,50.54-57.49,35.67-82.66-6.08-10.28-16.36-17.29-29.73-20.26a65.69,65.69,0,0,0-14.29-1.5,85.23,85.23,0,0,0-27.38,4.73"/></clipPath><clipPath id="clip-path-2"><path class="cls-1" d="M102.11,306.41a3.54,3.54,0,0,0-1.79.5c-34.4,20.65-50.14,57.84-35.1,82.9C71.37,400.05,81.7,407,95.09,409.87c12.64,2.72,27.44,1.47,41.65-3.51a3.52,3.52,0,1,0-2.33-6.64c-26.77,9.38-52.74,3.82-63.16-13.53-7.18-12-6-27.29,1.75-41.77l1-1.81-.66,1.69c-3.43,13-1.46,24.95,5.6,33.81a23.21,23.21,0,0,0,6.23,5.63c4.82,3.13,15.07,5.14,23.6,2.58a44.27,44.27,0,0,0,14.55-7.19c.79-.61,1.67-1.09,2.43-1.74.33-.28.71-.94.61-1.23a1.33,1.33,0,0,0-1.12-.74,23.76,23.76,0,0,0-3,.9,96.21,96.21,0,0,1-10.28,3.12,24.36,24.36,0,0,1-11.12-.73A8.11,8.11,0,0,1,98,377.17a2,2,0,0,1,.12-3.3,23.52,23.52,0,0,1,3.68-2.11c2.18-1.1,4.18-2.38,4.78-5.09a4.7,4.7,0,0,0,0-1.83c-.18-.91-.9-1.3-1.53-.65-3.19,3.23-7.38,3.67-11.27,5a24.33,24.33,0,0,0-8.81,5.19l-.53-.61c-5.78-7.26-7.23-17.37-4.07-28.47,1.5-5.28,2.51-10.43,6.7-16,7.69-9.95,9-9.25,16.9-16.34,1.4-1.34,2.21-3.16,1.2-4.83a3.51,3.51,0,0,0-3-1.71h0"/></clipPath><clipPath id="clip-path-3"><path class="cls-1" d="M131.75,362.56a.84.84,0,0,1-.81.61h0a.82.82,0,0,1-.8-.63l-3.53-13.27-2.42,8.07a.84.84,0,0,1-1.6.05l-1.29-3.49H110.12s11.62,11.66,17.28,17.32l.32.31.32-.3,2.83-2.82,13.95-14,.54-.55h-6.67a.84.84,0,0,1-.83-.69l-1.31-7.2-4.79,16.55Z"/></clipPath><clipPath id="clip-path-4"><path class="cls-1" d="M130.47,337.72c-.94.86-1.79,1.81-2.75,2.79-1-1-1.86-1.95-2.8-2.85a11,11,0,0,0-16.57,14.23l.25.33h13.3a.84.84,0,0,1,.79.55l.62,1.68,2.54-8.51a.81.81,0,0,1,.82-.6.83.83,0,0,1,.8.62L131,359.19l4.95-17.07a.84.84,0,0,1,1.63.08l1.83,10h7.49l.18-.24a10.31,10.31,0,0,0,1.87-8,10.43,10.43,0,0,0-7.3-8.76,11.57,11.57,0,0,0-3.75-.65,10.82,10.82,0,0,0-7.42,3.12"/></clipPath></defs><g class="cls-2"><text class="cls-3" transform="translate(208.99 418.99)">Be</text><text class="cls-3" transform="translate(245.07 418.99)">c</text><text class="cls-3" transform="translate(259.56 418.99)">ause Health is a Blessing</text></g><polygon class="cls-1" points="282.22 379.79 262.42 379.79 263.18 375.77 264.36 375.77 248.23 349.74 235.77 357.49 232.23 375.56 234.31 376.19 233.62 379.79 216.17 379.79 216.87 376.19 219.49 375.56 228.98 326.62 226.63 326 227.39 322.32 244.84 322.32 244.08 325.99 241.44 326.61 237.77 345.72 268.45 326.13 268.03 325.99 268.79 322.32 289.01 322.32 288.25 326 284.65 326.9 259.24 342.84 279.8 375.36 282.91 376.19 282.22 379.79"/><polygon class="cls-1" points="345.05 381.86 341.18 381.86 340.97 379.93 287.17 379.93 287.87 376.26 290.49 375.56 300.05 326.55 297.7 325.85 298.39 322.18 349.55 322.18 350.59 320.25 354.4 320.25 351.63 334.44 347.75 334.44 347.55 332.43 311.61 332.43 309.19 344.89 333.21 344.89 334.32 342.95 338.13 342.95 335.22 357.84 331.35 357.84 331.07 355.9 307.04 355.9 304.41 369.68 342.97 369.68 344.01 367.67 347.82 367.67 345.05 381.86"/><path class="cls-1" d="M420.13,339.21q-1.45,7.41-8.93,12.39a26.62,26.62,0,0,1-15,4.64H371.38l-3.74,19.25,2.35.62-.69,3.67H351.85l.69-3.67,2.63-.62,9.48-48.88L362.3,326l.76-3.67h40.5a17.42,17.42,0,0,1,11.87,4.26,13.09,13.09,0,0,1,4.88,10.21,14.48,14.48,0,0,1-.21,2.42m-11.94-.13a6.16,6.16,0,0,0,.14-1.11,4.1,4.1,0,0,0-2.36-3.78,12.6,12.6,0,0,0-6-1.28H375.56l-2.57,13h23.24a16.56,16.56,0,0,0,7.63-1.66,7.28,7.28,0,0,0,4.3-5.19"/><polygon class="cls-1" points="472.89 381.86 469.02 381.86 468.81 379.93 416.12 379.93 416.81 376.26 419.44 375.56 428.93 326.61 426.57 325.99 427.33 322.32 444.37 322.32 443.6 325.99 440.97 326.61 432.66 369.54 470.81 369.54 471.85 367.6 475.66 367.6 472.89 381.86"/><polygon class="cls-1" points="537.21 381.86 533.33 381.86 533.13 379.93 479.33 379.93 480.02 376.26 482.65 375.56 492.21 326.55 489.85 325.85 490.55 322.18 541.71 322.18 542.75 320.25 546.56 320.25 543.79 334.44 539.91 334.44 539.7 332.43 503.77 332.43 501.35 344.89 525.37 344.89 526.48 342.95 530.28 342.95 527.38 357.84 523.5 357.84 523.23 355.9 499.2 355.9 496.57 369.68 535.13 369.68 536.17 367.67 539.98 367.67 537.21 381.86"/><path class="cls-1" d="M607.27,379.79H588.44l.69-3.67,1.59-.35-9.14-19.25h-18l-3.67,19,2.35.62-.69,3.67H544.12l.69-3.67,2.63-.62,9.49-48.88-2.36-.62.76-3.67h41.19q8,0,12.67,4.22a12.86,12.86,0,0,1,4.36,10v1.8c-.14.55-.23.95-.28,1.18A17.87,17.87,0,0,1,607,349.74a27.88,27.88,0,0,1-11.84,5.89L605,375.36l2.91.76-.69,3.67Zm-6.78-40.44a3.89,3.89,0,0,0,.07-.9,5.13,5.13,0,0,0-1.8-3.88,6.1,6.1,0,0,0-4.29-1.66H568.23L565.6,346.2h24.86a11.46,11.46,0,0,0,6.37-2.11q3.18-2.11,3.67-4.74"/><path class="cls-1" d="M120.78,296.31a3.52,3.52,0,0,0,2.28,6.66c26.84-9.2,52.77-3.46,63.06,14,7.1,12,5.78,27.33-2,41.76l-1,1.8.67-1.68c3.52-12.95,1.63-24.93-5.37-33.85a23,23,0,0,0-6.19-5.67c-4.8-3.16-15-5.25-23.58-2.74a44.08,44.08,0,0,0-14.6,7.1c-.79.61-1.68,1.08-2.44,1.72-.33.28-.72.93-.61,1.22a1.36,1.36,0,0,0,1.12.75,25.41,25.41,0,0,0,3-.88c3.43-1,6.81-2.41,10.3-3a24.52,24.52,0,0,1,11.12.8,8.12,8.12,0,0,1,2.81,1.56,2,2,0,0,1-.14,3.3,24.83,24.83,0,0,1-3.69,2.09c-2.19,1.09-4.2,2.35-4.82,5.06a4.9,4.9,0,0,0,0,1.83c.17.91.89,1.3,1.53.66,3.22-3.21,7.41-3.62,11.3-4.88a24.3,24.3,0,0,0,8.84-5.13l.53.61c5.74,7.3,7.11,17.42,3.87,28.5-1.54,5.27-2.58,10.41-6.81,15.92-7.75,9.9-9.06,9.19-17,16.23-1.41,1.33-2.23,3.15-1.24,4.82a3.52,3.52,0,0,0,4.82,1.24c34.54-20.41,50.54-57.49,35.67-82.66-6.08-10.28-16.36-17.29-29.73-20.26a65.69,65.69,0,0,0-14.29-1.5,85.23,85.23,0,0,0-27.38,4.73"/><g class="cls-4"><rect class="cls-1" x="95.23" y="280.01" width="134.55" height="128.07" transform="translate(-217.51 324.95) rotate(-61.84)"/></g><path class="cls-1" d="M102.11,306.41a3.54,3.54,0,0,0-1.79.5c-34.4,20.65-50.14,57.84-35.1,82.9C71.37,400.05,81.7,407,95.09,409.87c12.64,2.72,27.44,1.47,41.65-3.51a3.52,3.52,0,1,0-2.33-6.64c-26.77,9.38-52.74,3.82-63.16-13.53-7.18-12-6-27.29,1.75-41.77l1-1.81-.66,1.69c-3.43,13-1.46,24.95,5.6,33.81a23.21,23.21,0,0,0,6.23,5.63c4.82,3.13,15.07,5.14,23.6,2.58a44.27,44.27,0,0,0,14.55-7.19c.79-.61,1.67-1.09,2.43-1.74.33-.28.71-.94.61-1.23a1.33,1.33,0,0,0-1.12-.74,23.76,23.76,0,0,0-3,.9,96.21,96.21,0,0,1-10.28,3.12,24.36,24.36,0,0,1-11.12-.73A8.11,8.11,0,0,1,98,377.17a2,2,0,0,1,.12-3.3,23.52,23.52,0,0,1,3.68-2.11c2.18-1.1,4.18-2.38,4.78-5.09a4.7,4.7,0,0,0,0-1.83c-.18-.91-.9-1.3-1.53-.65-3.19,3.23-7.38,3.67-11.27,5a24.33,24.33,0,0,0-8.81,5.19l-.53-.61c-5.78-7.26-7.23-17.37-4.07-28.47,1.5-5.28,2.51-10.43,6.7-16,7.69-9.95,9-9.25,16.9-16.34,1.4-1.34,2.21-3.16,1.2-4.83a3.51,3.51,0,0,0-3-1.71h0"/><g class="cls-5"><rect class="cls-1" x="27.07" y="295.25" width="135.59" height="128.55" transform="translate(-267.45 275.95) rotate(-62.23)"/></g><path class="cls-1" d="M131.75,362.56a.84.84,0,0,1-.81.61h0a.82.82,0,0,1-.8-.63l-3.53-13.27-2.42,8.07a.84.84,0,0,1-1.6.05l-1.29-3.49H110.12s11.62,11.66,17.28,17.32l.32.31.32-.3,2.83-2.82,13.95-14,.54-.55h-6.67a.84.84,0,0,1-.83-.69l-1.31-7.2-4.79,16.55Z"/><g class="cls-6"><rect class="cls-1" x="107.18" y="337.04" width="41.1" height="43.5" transform="translate(-239.49 257.82) rotate(-55.03)"/></g><path class="cls-1" d="M130.47,337.72c-.94.86-1.79,1.81-2.75,2.79-1-1-1.86-1.95-2.8-2.85a11,11,0,0,0-16.57,14.23l.25.33h13.3a.84.84,0,0,1,.79.55l.62,1.68,2.54-8.51a.81.81,0,0,1,.82-.6.83.83,0,0,1,.8.62L131,359.19l4.95-17.07a.84.84,0,0,1,1.63.08l1.83,10h7.49l.18-.24a10.31,10.31,0,0,0,1.87-8,10.43,10.43,0,0,0-7.3-8.76,11.57,11.57,0,0,0-3.75-.65,10.82,10.82,0,0,0-7.42,3.12"/><g class="cls-7"><rect class="cls-1" x="104.28" y="320.72" width="46.49" height="50.83" transform="translate(-229.21 252.25) rotate(-55.03)"/></g></svg>