<svg id="Layer_1" data-name="Layer 1" xmlns="http://www.w3.org/2000/svg" viewBox="0 0 673.06 720.33"><defs><style>.cls-1{fill:#676767;}</style></defs><path class="cls-1" d="M364.36,435.28V395.74c-.64.34-1.05.54-1.44.78-4.49,2.71-9,5.41-13.43,8.15a4.82,4.82,0,0,1-2.71.74c-5.2,0-10.4-.1-15.59,0a26.66,26.66,0,0,1-26.13-21.22,31.6,31.6,0,0,1-.63-6.3c-.06-11.63-.05-23.26,0-34.88a26.78,26.78,0,0,1,8.39-20.1,25.73,25.73,0,0,1,15-7.15,28.7,28.7,0,0,1,3.22-.22c5.28,0,10.56,0,15.83,0a4.48,4.48,0,0,1,2.49.68c4.53,2.78,9.08,5.52,13.63,8.27.36.22.74.41,1.31.72,0-.63.09-1.05.09-1.47,0-2.28,0-4.55,0-6.83,0-1.29.09-1.35,1.37-1.35h7.55c.4,0,.79,0,1.22.06a6,6,0,0,1,.19.87c0,.44,0,.88,0,1.32V433.61c0,.56,0,1.12,0,1.67Zm0-74.72c0-7.11,0-14.23,0-21.34a2.18,2.18,0,0,0-1.18-2.12q-8.74-5.34-17.44-10.76a3.57,3.57,0,0,0-2-.57c-4.2,0-8.39,0-12.59,0a16.55,16.55,0,0,0-16.38,16.59q0,18.11,0,36.2a17.73,17.73,0,0,0,.33,3.33,16.43,16.43,0,0,0,16,13.26c4.2,0,8.4,0,12.6,0a4,4,0,0,0,2.24-.66q8.55-5.32,17.14-10.58a2.34,2.34,0,0,0,1.28-2.3C364.35,374.62,364.37,367.59,364.37,360.56Z"/><path class="cls-1" d="M64.91,395.48a9.73,9.73,0,0,1,1.4-.23q3.78,0,7.54,0c1.31,0,1.4.1,1.4,1.34,0,2.51,0,5,0,7.53,0,1.13-.11,1.24-1.24,1.24-3,0-6.07,0-9.1,0Z"/><path class="cls-1" d="M608.63,325.69h-1.94c-.17-1.77,0-3.52-.26-5.33-.41.79-.84,1.56-1.2,2.37a1.38,1.38,0,0,1-1.5.9,1.18,1.18,0,0,1-1.12-.73,22.47,22.47,0,0,0-1.26-2.3c-.33,1.67,0,3.38-.3,5a1.64,1.64,0,0,1-.34.16c-1.79.24-2,.11-2-1.66,0-2.36,0-4.71,0-7.07,0-1.38.07-1.38,1.39-1.46a1.65,1.65,0,0,1,1.83,1.16c.52,1.19,1.14,2.35,1.79,3.7a9.7,9.7,0,0,0,.62-.87c.49-1,1-1.91,1.42-2.9a1.52,1.52,0,0,1,1.75-1.08c.35,0,.71.06,1.07.08Z"/><path class="cls-1" d="M564.16,315.64c.43,0,.74-.09,1.06-.09h7.91c1.16,0,1.21.07,1.24,1.23,0,.28,0,.56,0,.84v85.71c0,2.3.12,2.06-2.07,2.07s-4.48,0-6.72,0h-1.41c-.06-.63-.15-1.13-.16-1.63,0-2.16,0-4.32,0-6.48,0-.42,0-.84-.06-1.48-.55.29-.93.47-1.29.69-4.45,2.69-8.9,5.37-13.33,8.09a5.28,5.28,0,0,1-2.92.83c-5.24,0-10.48-.07-15.72,0a26.7,26.7,0,0,1-26.27-23,24.87,24.87,0,0,1-.21-3.22c0-12.39-.07-24.78,0-37.17.06-9.06,3.95-16.25,11.25-21.55a25.49,25.49,0,0,1,15.5-4.9q7.74,0,15.48,0a4.86,4.86,0,0,1,2.7.75c4.49,2.76,9,5.48,13.53,8.21.34.2.69.38,1.22.68,0-.57.12-1,.12-1.4,0-2.19,0-4.39,0-6.59C564,316.68,564.11,316.18,564.16,315.64ZM564,360.55c0-7.11,0-14.22,0-21.34a2.16,2.16,0,0,0-1.16-2.12q-8.7-5.31-17.34-10.71a3.81,3.81,0,0,0-2.15-.61c-4.19,0-8.39,0-12.59,0a16,16,0,0,0-6,1.19,16.56,16.56,0,0,0-10.4,15.71q0,17.81,0,35.61a20,20,0,0,0,.32,3.45A16.43,16.43,0,0,0,531,395.18q6.06,0,12.12,0a4.78,4.78,0,0,0,2.7-.76q8.45-5.28,16.93-10.47a2.33,2.33,0,0,0,1.28-2.3C564,374.62,564,367.59,564,360.55Z"/><path class="cls-1" d="M274.62,356.26c0,7.47,0,14.94,0,22.42a26.65,26.65,0,0,1-22.91,26.48,21.6,21.6,0,0,1-3.22.23c-5.72,0-11.44-.05-17.15,0A26.69,26.69,0,0,1,205,381.94a28.83,28.83,0,0,1-.21-3.35q0-18.1,0-36.21a26.62,26.62,0,0,1,20.85-26.19,25.5,25.5,0,0,1,5.22-.62c5.4-.08,10.8,0,16.2,0a3.81,3.81,0,0,1,2,.56q12.25,7.44,24.53,14.84a2.08,2.08,0,0,1,1.06,2.06C274.61,340.75,274.62,348.5,274.62,356.26ZM264.25,359c0-6.83,0-13.66,0-20.5a2.07,2.07,0,0,0-1.16-2.1c-5.82-3.34-11.61-6.73-17.41-10.12a3.74,3.74,0,0,0-2-.54c-3.88,0-7.75,0-11.63,0a22.91,22.91,0,0,0-2.62.18,16.42,16.42,0,0,0-14.31,16.18c.05,12.23,0,24.45,0,36.68a16.77,16.77,0,0,0,.21,2.74,16.49,16.49,0,0,0,16.34,13.61c5.35,0,10.71,0,16.06,0a21.05,21.05,0,0,0,2.51-.2,16.3,16.3,0,0,0,14-16.29C264.21,372.13,264.25,365.58,264.25,359Z"/><path class="cls-1" d="M175,405.32H165a5.78,5.78,0,0,1-.22-.89c0-.44,0-.88,0-1.32q0-30.39,0-60.79a16.46,16.46,0,0,0-16.15-16.53c-4.28-.06-8.56,0-12.84,0a3.36,3.36,0,0,0-1.92.55q-8.8,5.48-17.64,10.91a1.6,1.6,0,0,0-.94,1.63c0,.4,0,.8,0,1.2q0,31.59,0,63.19c0,.66-.06,1.33-.09,2.07h-10l-.16-.18a.31.31,0,0,1,0-.1,5.74,5.74,0,0,1-.09-.71q0-43.93,0-87.88A2.63,2.63,0,0,1,105,316a2.32,2.32,0,0,1,.16-.31,6.66,6.66,0,0,1,1-.11H114c1.12,0,1.22.1,1.23,1.24,0,2.28,0,4.56,0,6.83,0,.43,0,.87.07,1.53.59-.31,1-.52,1.47-.78q6.66-4,13.32-8.09a4.86,4.86,0,0,1,2.7-.75c5.16,0,10.32.06,15.48,0a26.7,26.7,0,0,1,26.45,22.3,25.84,25.84,0,0,1,.33,3.93q0,30.93,0,61.87C175.11,404.14,175.06,404.65,175,405.32Z"/><path class="cls-1" d="M459.5,325.72H445.35c-.53,0-.82.24-.82.79s0,.8,0,1.2v26.13c0,1.8,0,1.8-1.78,1.81h-6.59c-1.75,0-1.75,0-1.75-1.72V327.69c0-2.09.09-2-1.95-2H406.18c-1.77,0-1.77,0-1.77-1.81,0-2.28,0-4.55,0-6.83,0-1.42.06-1.48,1.49-1.48h26.63c1.85,0,1.86,0,1.86-1.82V287.65c0-1.83,0-1.83,1.87-1.83H443c1.49,0,1.54.05,1.54,1.57v26.25c0,.4,0,.79,0,1.19a.68.68,0,0,0,.74.75l1.2,0h26.15c1.85,0,1.85,0,1.86,1.84q0,3.36,0,6.71c0,1.51-.05,1.56-1.53,1.57Z"/><path class="cls-1" d="M474.34,405.4h-14a26.37,26.37,0,0,1-25.5-21,37.34,37.34,0,0,1-.63-6.42c-.11-3.56,0-7.11,0-10.67,0-.28,0-.56,0-.84.05-1,.18-1.21,1.19-1.21,2.68,0,5.35,0,8,0,1,0,1.13.13,1.14,1.23,0,4.07,0,8.14,0,12.22a16.17,16.17,0,0,0,13,16.09,18.45,18.45,0,0,0,3.56.36c3.84,0,7.68,0,11.51,0,.32,0,.64,0,1,0,.78.05.94.16.95.92,0,2.84,0,5.67,0,8.51A4.71,4.71,0,0,1,474.34,405.4Z"/><path class="cls-1" d="M594.55,317.85v7.8h-2.26a9.26,9.26,0,0,1-.19-1.33c0-1.71,0-3.43,0-5.15,0-1.24-.07-1.28-1.28-1.31h-.23c-1.68,0-1.94-.43-1.35-2.21.28,0,.59-.09.9-.1,2.12,0,4.23,0,6.35,0,.36,0,1,.14,1,.34a4.06,4.06,0,0,1,0,1.63c0,.14-.45.29-.69.31C596.15,317.88,595.48,317.85,594.55,317.85Z"/></svg>