<svg id="Layer_1" data-name="Layer 1" xmlns="http://www.w3.org/2000/svg" xmlns:xlink="http://www.w3.org/1999/xlink" viewBox="0 0 673.06 720.33"><defs><style>.cls-1{fill:#676767;}.cls-2{clip-path:url(#clip-path);}.cls-3{clip-path:url(#clip-path-2);}</style><clipPath id="clip-path"><path class="cls-1" d="M294.47,303c-27.06-.6-37.86-17.66-44-24.7-.54-2.95,11.08,13.31,41.75,13.74,41.68.56,63.06-34.24,86.05-58.08,12.44-12.93,29.47-7.61,30.52-5.76-1.41-.71-14.55-2.89-25.31,8.68C360.92,261.05,338.57,303,296,303h-1.48"/></clipPath><clipPath id="clip-path-2"/></defs><path class="cls-1" d="M289.14,304.85c-35.25-6.56-40.06-26.15-40.06-29.41,0-48.82,39.27-88.41,87.71-88.41a87.57,87.57,0,0,1,77.32,46.66s-3.29-3-10.81-2.41c-10.3.8-17.38,8.21-17.38,8.21-23.67,21.84-50.2,66.2-87.77,66.2a47.31,47.31,0,0,1-9-.85m-38.69-26.51c6.15,7,17,24.09,44,24.7,43.59,1,66.19-41.7,89-66.11,10.77-11.58,23.9-9.39,25.31-8.68-1.06-1.85-18.09-7.17-30.52,5.76-23,23.84-44.37,58.64-86.05,58.08C264.07,291.68,252,278,250.58,278c-.13,0-.17.1-.12.35"/><path class="cls-1" d="M294.47,303c-27.06-.6-37.86-17.66-44-24.7-.54-2.95,11.08,13.31,41.75,13.74,41.68.56,63.06-34.24,86.05-58.08,12.44-12.93,29.47-7.61,30.52-5.76-1.41-.71-14.55-2.89-25.31,8.68C360.92,261.05,338.57,303,296,303h-1.48"/><path class="cls-1" d="M287.44,348.57s-13.89-10.1-21.69-21.27a91.83,91.83,0,0,1-12.48-24.75S263.8,326.39,284,336.14c12.35,5.94,51.09,18.17,81-30.36,18.44-29.84,27.64-57.43,43-61.67,8.29-1.89,11.17,1.58,11.17,1.58.71,1.71,1.45,4,1.45,4a89.38,89.38,0,0,1,3.77,25.74c0,48.84-39.24,88.43-87.69,88.43a86.89,86.89,0,0,1-49.33-15.29m-10.43-13c7.75,5.71,21.32,16.09,47.69,14.1,48.18-3.66,60.34-70.85,72.35-87.48,7.29-10.11,14.76-12.4,20.44-15.73-1.5-1.63-14.61-1.4-28.61,20-18.52,28.35-32,70.14-63.53,75.64-27.12,4.75-46-6.92-48.18-6.92-.21,0-.28.11-.16.38"/><g class="cls-3"><path class="cls-1" d="M277,335.62c-1.29-2.87,18.52,11.75,48.35,6.55,31.48-5.5,45-47.3,63.53-75.64,14-21.42,27.1-21.65,28.61-20-5.67,3.33-13.15,5.62-20.44,15.73-12,16.65-24.17,83.84-72.35,87.48-2.27.18-4.46.25-6.52.25-22.17,0-34.09-9.14-41.18-14.35"/></g><path class="cls-1" d="M383.89,454.87h30.18c2.29,0,3.91-.48,4.87-1.42a3.59,3.59,0,0,0,1.11-1.79,21.26,21.26,0,0,0,.18-3.57v-2.48q0-4,4.17-4.05c2.78,0,4.16,1.34,4.16,4v4q0,6.17-3.35,9.6-3.18,3.27-12.28,3.28H260.59q-9,0-12.2-3.28-3.42-3.54-3.41-9.6V431.1c0-2.66,1.38-4,4.17-4s4.13,1.35,4.13,4v17a21.31,21.31,0,0,0,.2,3.51c.69,2.16,2.66,3.25,5.89,3.25H383.89Z"/><path class="cls-1" d="M419.44,431.56a4.56,4.56,0,1,0,4.54-4.32A4.42,4.42,0,0,0,419.44,431.56Z"/><path class="cls-1" d="M408.55,431.56a4.57,4.57,0,1,0,4.56-4.32A4.44,4.44,0,0,0,408.55,431.56Z"/><path class="cls-1" d="M194.35,454.87h30.17c2.29,0,3.93-.48,4.87-1.42a3.46,3.46,0,0,0,1.11-1.79,21.63,21.63,0,0,0,.17-3.57v-2.48c0-2.7,1.4-4.05,4.18-4.05s4.16,1.34,4.16,4v4q0,6.17-3.35,9.6-3.16,3.27-12.28,3.28H71.05q-9,0-12.21-3.28-3.42-3.54-3.42-9.6V431.1c0-2.66,1.4-4,4.18-4s4.15,1.35,4.15,4v17a20.54,20.54,0,0,0,.19,3.51c.69,2.16,2.65,3.25,5.89,3.25H194.35Z"/><path class="cls-1" d="M229.89,431.56a4.57,4.57,0,1,0,4.54-4.32A4.42,4.42,0,0,0,229.89,431.56Z"/><path class="cls-1" d="M503.87,455c3.82,0,6.58-.79,8.26-2.32s2.51-4.15,2.51-7.77q0-5.72-3.75-8.22c-1.81-1.24-4.58-1.84-8.33-1.84H446.48c-2.13,0-3.25,1-3.37,3s1,3,3.3,3.28h37.92c3,0,4.54,1.26,4.54,3.8s-1.28,3.7-3.81,3.79H448.33a15.28,15.28,0,0,1-9.16-2.7,10,10,0,0,1-4.38-7.93,9.1,9.1,0,0,1,4.19-8.26,16.74,16.74,0,0,1,9.56-2.58H503.8c6.76,0,11.65,1.65,14.71,4.92A18.15,18.15,0,0,1,523.28,445c0,9.35-3.72,14.93-11.21,16.79a35.52,35.52,0,0,1-8.27.8H439.93c-3.4,0-5.15-1.28-5.15-3.83s1.52-3.81,4.57-3.76h64.51Z"/><path class="cls-1" d="M613.48,427.22c-2.79,0-4.18,1.36-4.18,4v2.49h0v14.36a23.73,23.73,0,0,1-.17,3.5c-.68,2.19-2.65,3.24-5.91,3.24H532.66c-2.64,0-4,1.33-4,3.84s1.32,3.76,4,3.76H602c6,0,10.09-1.1,12.21-3.28,2.27-2.35,3.4-5.57,3.4-9.57V431.22c0-2.66-1.39-4-4.15-4Z"/><path class="cls-1" d="M235.06,501.51c-2.44-2.29-6.4-3.44-11.85-3.44H166.57a26.44,26.44,0,0,0-7.11.8q-9.63,2.75-9.63,16.73a19.76,19.76,0,0,0,4.11,12.79c2.62,3.29,6.83,4.92,12.64,4.92h56.64c5.8,0,10-1.67,12.74-5s4-7.55,4-12.73q0-9.45-4.94-14.1Zm-5.67,22.4q-2.32,1.83-7.13,1.83H167.6c-3.21,0-5.6-.6-7.15-1.83-2.14-1.68-3.21-4.4-3.21-8.19s.73-6.22,2.15-7.77,3.82-2.33,7.11-2.33h56.8c3.31,0,5.65.78,7.1,2.33s2.16,4.14,2.16,7.77-1.06,6.51-3.16,8.19Z"/><path class="cls-1" d="M426,501.32c-1.81-2.15-5.32-3.25-10.5-3.25H355.29a26.71,26.71,0,0,0-7.1.8q-9.66,2.76-9.66,16.73a19.93,19.93,0,0,0,4.1,12.79c2.62,3.29,6.83,4.92,12.65,4.92h47.86c2.18-.14,3.28-1.42,3.28-3.83s-1.14-3.75-3.44-3.75H356.32c-3.22,0-5.6-.61-7.16-1.83-2.14-1.68-3.22-4.4-3.22-8.19s.72-6.22,2.17-7.77,3.81-2.33,7.11-2.33h61.27c2.81,0,4.47,1.09,5,3.25a19.62,19.62,0,0,1,.2,3.5h0v16.95c0,2.66,1.18,4,3.55,4s3.59-1.35,3.59-4V510.86q0-6.14-2.87-9.56Z"/><path class="cls-1" d="M614.75,501.32c-1.81-2.15-5.31-3.25-10.49-3.25H544.08a26.66,26.66,0,0,0-7.1.8q-9.66,2.76-9.64,16.73a19.81,19.81,0,0,0,4.09,12.79c2.62,3.29,6.83,4.92,12.66,4.92h47.85c2.18-.14,3.28-1.42,3.28-3.83s-1.14-3.75-3.43-3.75H545.12c-3.21,0-5.6-.61-7.15-1.83-2.14-1.68-3.21-4.4-3.21-8.19s.71-6.22,2.15-7.77,3.81-2.33,7.12-2.33h61.26c2.81,0,4.47,1.09,5,3.25a18.19,18.19,0,0,1,.22,3.5h0v16.95c0,2.66,1.17,4,3.54,4s3.59-1.35,3.59-4V510.86q0-6.14-2.88-9.56Z"/><path class="cls-1" d="M330.94,525.79H256.55c-3.1,0-4.8-1.06-5.05-3.2a17.25,17.25,0,0,1-.22-3.53v0h0v-3.95H308c2.17,0,3.27-1.28,3.27-3.74s-1.16-3.78-3.45-3.78H251.28v-5.49c0-2.66-1.18-4-3.56-4s-3.6,1.35-3.6,4v18.52c0,4,1,7.17,2.88,9.5,1.78,2.15,5.29,3.24,10.55,3.24h73.39c2.28,0,3.43-1.26,3.43-3.74s-1.15-3.79-3.45-3.79Z"/><path class="cls-1" d="M142.23,498.07H68.84c-5.21,0-8.72,1.1-10.54,3.25s-2.88,5.47-2.88,9.56v18.45c0,2.66,1.17,4,3.55,4s3.59-1.35,3.59-4v-3.72h0V512.39a21.56,21.56,0,0,1,.17-3.56,3.44,3.44,0,0,1,.93-1.77c.81-.95,2.21-1.42,4.17-1.42h74.44c2.24-.05,3.38-1.3,3.38-3.8s-1.14-3.75-3.44-3.75Z"/><path class="cls-1" d="M520.24,501.32c-1.82-2.15-5.3-3.25-10.49-3.25H446.42c-5.21,0-8.72,1.1-10.53,3.25s-2.9,5.47-2.9,9.56v18.45c0,2.66,1.18,4,3.54,4s3.59-1.35,3.59-4v-3.72h0V512.39a19.82,19.82,0,0,1,.19-3.56,3.59,3.59,0,0,1,.93-1.77c.81-.95,2.21-1.42,4.16-1.42h65.4c2.76,0,4.46,1.08,5,3.25a23.36,23.36,0,0,1,.17,3.5v17c0,2.65,1.17,4,3.54,4s3.6-1.35,3.6-4V510.89c0-4-1-7.2-2.93-9.56Z"/></svg>