<svg id="Layer_1" data-name="Layer 1" xmlns="http://www.w3.org/2000/svg" xmlns:xlink="http://www.w3.org/1999/xlink" viewBox="0 0 673.06 720.33"><defs><style>.cls-1{fill:none;}.cls-2{fill:#676767;}.cls-3{clip-path:url(#clip-path);}</style><clipPath id="clip-path"><rect class="cls-1" x="112.7" y="48.68" width="447.66" height="389.68"/></clipPath></defs><path class="cls-2" d="M358.91,604.13c-.6,11.24-4.07,21-13.77,27.86-14.2,10-28.59,5.83-39.86-3.13-9-7.18-14.31-5.51-22.59-.66-14.15,8.28-29.08,14.47-45,3.38-3.08-2.15-4.92-2.54-6.95,2.39C225.56,646.51,216,656.05,206,665a12.64,12.64,0,0,1-9,3c-7.33-.28-9.48-3-5.8-9.45a70.41,70.41,0,0,1,11.23-14.75c14.3-14.23,23.59-31.37,30.57-50,4.07-10.81,4.93-11.34,15.78-6.31,3.2,1.48,3.78-1.16,4.7-2.28,11.07-13.5,26.63-18.06,42.64-21.72,6.51-1.48,12.83-3.32,19.69-3.85,17.51-1.35,18.6,11.27,14.42,23-3.5,9.79-10.22,17.09-18.93,22.76-2.62,1.71-7.14,3.77-5.94,6.93a11.87,11.87,0,0,0,9.38,7c21.54,2.8,32.73-12.91,29.08-31.45-5.25-26.71-15.6-52-24.88-77.53-1.53-4.24-3.17-8.58,1.52-10.91s8,1,9.4,5.47c10.1,31.15,22,61.75,29,93.85.38,1.72,0,3.59,0,5.39Zm-73.09,5c-4.7-5.6-8.48-10.58-15.37-11.24-6.66-.63-13.85,4.79-20-1.73-.3-.31-2,.07-2.43.61-3.86,4.3-6.56,9.66-5.58,15.13.81,4.62,4.78,7.12,10.45,7.72,12.42,1.31,21.6-6,33-10.49Zm9.16-7.53c8.16-3.35,14.65-6.86,17-14.47,1.24-4-.87-7.09-5-5.19-6.46,3-13.41,3.62-20,5.92-.79.28-4,.63-2.74,2.21,3.37,4.32,7.43,8.1,10.67,11.53Z"/><path class="cls-2" d="M214.87,579.06c.82,22-28.16,48.05-51.22,31.4-4.88-3.52-6.18-1.54-8.16,3-7.17,16.59-15.88,32.27-29.12,45-3.08,3-6.35,6.41-10.67,2.79-3.9-3.28-6-7.29-4.57-13.25,2.59-10.95,12-16.44,18.17-24.39,12.86-16.53,26.32-32.48,30.37-53.92,1-5.37,5.12-7.45,10.05-5.87,5.12,1.66,5.94,5.73,3.83,10.54-1.29,2.94-2.76,5.9-3.34,9-.85,4.58-5.2,9.72.53,13.79,4.1,2.93,15.91-.91,18.72-6.2,2.44-4.59,5.6-9,5.71-14.67a19.81,19.81,0,0,1,2.31-8.33c2-3.83,5.62-4.45,9.81-4.55,4.39-.12,4.79,3.09,5.61,5.57,1.18,3.55,3.39,7.08,2,10.08Z"/><path class="cls-2" d="M202.48,515.24a2.89,2.89,0,0,1,.72-1.62c.7-2,2-3,2.48-4.22l0,0c.92-.64.88-1.53,1.84-1.81l0,0,1.85-1.84,0,0,1.89-1.87c12.79-9.35,40.94-6.83,55.68,4.45,9,6.9,17.59,14,22.16,24.78.69,1.65,1.74,3.52,3.88,2.88s3.15-2.46,3.09-4.82c-.19-6.48,1.29-13.2-3.67-19.41l4.78-.46c16.79-1.54,19,8.73,15.74,22.28-1.87,7.71-7.26,13.14-13.12,17.53-5,3.78-10.78,2.91-14.28-3.29-11.35-20-28.55-29.18-51.44-27.44-5.61.43-10.41,2.38-13.75,7.74-3.51,5.65,2.36,8.55,3.83,7.87,4.26-1.94,10.05.59,12.94-4.67,4,10.14.11,15.92-10.6,16-7.7.09-15.55.52-20.8-6.85-.51-.74-1-1.48-1.51-2.23v0c-1.87-7.65-2.77-15.35-1.62-23.19Z"/><path class="cls-2" d="M118.64,583.45c-4-.44-8.38-.33-4.78-6.64,8.37-14.73,10.41-31.16,12.89-47.56,1.88-12.33,5.12-24.19,19.11-28.92,7.33-2.47,14.67-1.55,22-.79,2.48.26,6.75,2.54,2.78,5.92-13.5,11.48-16.82,28.43-24.07,43.27-5.25,10.74-8.86,22.41-18.41,30.53-2.73,2.31-5.51,4.5-9.48,4.19Z"/><path class="cls-2" d="M442.78,534.84c-4.78.51-10.32.13-14.94-3.92-3-2.63-5.22-1-7.79,1-7,5.46-15.08,7.09-23.95,6.64-13.69-.7-26-19.3-21-32,.71-1.79,1.81-2,3.26-2.28,2.81-.59,4.63.68,5.69,3.09,1.88,4.26,3.26,8.67,6.93,12,8.16,7.5,16.3,5.55,20.16-5a65.94,65.94,0,0,1,3.44-8.06c2.54-4.87,11.28-5.81,14.64-1.47,2.14,2.76,3.39,6.24,5.66,8.86,2.77,3.22,4.48,8.95,9.57,8.23,6.46-.91,12.44-4,15-10.76a16.6,16.6,0,0,1,2.28-4.67,5.93,5.93,0,0,1,6.38-2.16c3,.61,2.13,3.17,2.26,5.09.88,13.37-11.79,25.41-27.66,25.43Z"/><path class="cls-2" d="M386.08,616.76c.43,4.64-.62,8.88-5.66,9.63s-7.39-3.49-8.8-7.35c-3.79-10.45-4.18-21.67-6.67-32.43-4.33-18.8-13.25-36.28-16-55.52-1-7-1.86-14-2.7-21-.4-3.44-.12-6.69,4.06-7.75,4.42-1.13,6.87,1.89,8.59,4.93,4.07,7.23,5.2,15.54,7,23.44q8.94,40.13,19.49,79.86a43.17,43.17,0,0,1,.71,6.16Z"/><path class="cls-2" d="M258.29,653.1l8.6.06c4.15.34,7.65-.58,9.52-4.78,10.1-9,19.22-9.3,30.29,0,7.39,6.2,17.93,5.55,27.52,2.32,2.72-.91,6.43-2.19,8.08.69,1.79,3.13-.2,6.43-3.18,8.42-14.59,9.74-27.53,15.67-42.19,3-2.88-2.49-4.57-1.6-7.67-.46-6,2.21-10.89,6.76-17.6,7.49-14.4,1.57-28.43-4.59-33.35-20.45,3.73-3.27,7,.3,10.38.9a11.76,11.76,0,0,0,9.61,2.8Z"/><path class="cls-2" d="M508.15,657.31c-5.3-1.69-7.86-5.38,1.05-7.55,7.31-1.78,15.71-1.44,22.44-8.23-6.07-1.43-12.61,1.36-16.43-5-1.93-3.22-2.76-5.18,1.31-6.71,9.36-3.54,16.77-10,28.4-10.56,1,2.93-3.32,3.63-2.14,6s3.67,1,5.57,1.31a22.42,22.42,0,0,0,3.58.09c4,0,8.81-.65,10.18,4.2,1.25,4.42-2.24,6.89-6,8.68a39.31,39.31,0,0,1-4.14,2.2c-3.3,1.06-4.68,1.82-4,5,.52,2.49,3.08,3.3,5.66,3.18,2.13-.09,3.16.74,3.22,3.11.06,3-1.07,4.59-3.81,6.17a54.16,54.16,0,0,1-26.73,7.24c-1.2-.09-2.46.39-3.66.31-4.3,1.3-7.32.75-10.83.74h-18c-4.75-.45-8.76-1.25-13.2-1a6.12,6.12,0,0,1-1.92.2c-2-.61-4.25.51-4.25-2.48,0-2.57,2.82-1.19,4.21-1.94,5.32-2.86,11.14-2.18,16.35-.81,5.69,1.48,11.19.71,16.75,1,8.49.82,16.77.57,24-5.08H508.15Z"/><path class="cls-2" d="M519.79,500.62c20.48,0,32.52,12.14,31.69,29.61-.1,2.16,1,5.06-2.1,6.16-3.46,1.23-5.79-.72-7.47-3.36-8.71-13.68-21.62-19.26-37.3-19.78-2.93-.09-6.16-1.09-7-3.89-1.16-3.7,3.05-3.59,5-5,5.94-4.34,12.8-4,17.2-3.71Z"/><path class="cls-2" d="M160.88,539.42c.13-9.27,3.78-13.33,12.22-13.59,6.45-.19,15.71,8.6,14.77,14.89-1.29,8.71-5.49,14.17-14.73,13.93-8.44-.21-12.38-5.06-12.25-15.22Z"/><path class="cls-2" d="M414.92,651.82c-6.56,14.54-17.34,20.6-32.23,19.75-7.36-.42-18.36-8.9-21-16.82C379.38,657,396.79,659.64,414.92,651.82Z"/><path class="cls-2" d="M456.13,639.16c10.68-.56,13.39,4.35,14.2,12.71.66,6.68-6.42,12.28-14.4,12.38-8.38.09-12.69-4.06-12.64-12.15.07-9.83,3.09-12.89,12.84-12.94Z"/><path class="cls-2" d="M157.69,666.19c-5.6-.82-14.44,2.64-15.9-4.92-1-5.11,7.85-7.8,12.52-10.54,6.4-3.76,13.84-3.92,20.95.69,3.12,2,3.84,4.06,3.82,7.2s-1.73,4.67-4.48,5.89c-5.44,2.39-11.1,1.35-16.92,1.68Z"/><path class="cls-2" d="M188.47,624.74c3.14,0,5.55,0,7.94,0,3.19,0,7-.8,7.64,3.94.66,4.53-3.41,5.48-6.1,6.4-10.09,3.46-20.85,2.47-31.26,4.06-3,.45-5.33-.67-5.82-4.06s.63-5.67,4.11-6.86a60.39,60.39,0,0,1,23.49-3.48Z"/><path class="cls-2" d="M237.67,554.42c9.1,0,16.51,5,16.67,10.8.15,5.22-6.6,11-12.53,10.74-5.43-.26-10.46-7.65-11-15.07-.44-6.12,2.86-6.9,6.85-6.48Z"/><path class="cls-2" d="M457.71,626.68c-4.28-3-8.78-8.45-12.82-8.14-3.55.28-3.31,8.37-5.43,12.67-3.52,7.21-12.66,12-20.29,9.48-8.69-2.83-14.67-1-21.62,4.93-10.42,8.91-14.21,8.07-20.61,0-3.26-4.09-2.71-8.95-1-12.61.87-1.82,4.31-4.51,9.45-3.54,6.87,1.28,13.32-3.89,17.16-10,3.53-5.62,1.82-11.6-2.13-16.51-3.37-4.18-7.38-7.84-11.08-11.75-1.4-1.48-3.32-2.62-3.45-5-.28-5.32-1.27-11.31,4.59-14.11s9.46,2.18,12.31,5.9c9.54,12.53,17.41,25.9,15.3,42.87,10-3.33,13.88-11.74,10.4-23.94-1.9-6.64-3.86-13.41-8.87-19-3-3.31-5.7-7.58-6-12.58-.13-2.47-1.76-7.93,3.76-9,4.42-.82,9.82-1.78,12.64,5.11,5.41,13.17,11.22,26.23,19,38.3,11.55,18,30.25,21.07,47.73,7.89-10.54-4.89-21.17-9.12-28.4-19.54-16.95-24.39-1.44-53.27,19-62.42,21.82-9.78,48.27-2.42,56,21.55,5.08,15.76-4.52,32.71-20.51,36.1-12.07,2.56-24.63-8.69-23.71-21,.22-3,.78-5.43,3.91-6.09a5.85,5.85,0,0,1,6.82,3.09c2,3.75,4.28,7.45,9,7.76,3,.2,6.6,1.23,8.75-2.63a19.21,19.21,0,0,0,1.18-17c-2.07-5.21-5.38-10-11.76-10.84-9.55-1.32-18.13,1.26-23.8,9-6.89,9.39-11.33,19.51-4.52,31.46,6.35,11.14,16.13,14.53,28,15.41s21.71-3.88,31.59-8.86c3.76-1.89,7.28-3.51,10.52-.62,3.81,3.4-.47,6.34-1.86,9.1-3.24,6.42-9.62,9.41-15.49,12.78a303.78,303.78,0,0,1-51.21,23.4c-10.88-.16-21.83,1.5-32.56-1.6Z"/><g class="cls-3"><path class="cls-2" d="M359.5,647.43c-.58,10.93-3.95,20.41-13.36,27.06-13.78,9.72-27.75,5.65-38.7-3-8.77-7-13.9-5.35-21.94-.64-13.75,8-28.23,14.06-43.7,3.28-3-2.08-4.79-2.48-6.75,2.33-5,12.18-14.31,21.43-24,30.13a12.28,12.28,0,0,1-8.76,3c-7.11-.27-9.21-3-5.63-9.18A69.14,69.14,0,0,1,207.59,686c13.88-13.81,22.89-30.46,29.68-48.53,3.95-10.49,4.78-11,15.31-6.13,3.11,1.44,3.68-1.13,4.58-2.22C267.91,616,283,611.59,298.55,608c6.33-1.44,12.46-3.23,19.13-3.73,17-1.31,18.06,11,14,22.3-3.4,9.5-9.93,16.6-18.38,22.1-2.54,1.65-6.93,3.66-5.77,6.72a11.53,11.53,0,0,0,9.11,6.76c20.91,2.72,31.77-12.54,28.23-30.54-5.1-25.93-15.15-50.49-24.16-75.27-1.49-4.11-3.07-8.32,1.46-10.58s7.74,1,9.14,5.3c9.81,30.25,21.37,59.95,28.14,91.12.37,1.67.05,3.49.05,5.24Zm-70.95,4.83c-4.57-5.43-8.24-10.27-14.93-10.92-6.47-.62-13.43,4.65-19.47-1.68-.29-.3-1.88.08-2.35.6-3.74,4.17-6.37,9.38-5.43,14.69.8,4.49,4.65,6.92,10.16,7.5,12.06,1.27,21-5.8,32-10.19Zm8.89-7.31c7.92-3.26,14.22-6.66,16.54-14.06,1.2-3.84-.85-6.88-4.87-5-6.27,2.88-13,3.52-19.36,5.75-.78.27-3.86.61-2.67,2.14,3.27,4.21,7.21,7.87,10.36,11.2Z"/><path class="cls-2" d="M219.65,623.09c.8,21.36-27.34,46.66-49.72,30.49-4.74-3.42-6-1.5-7.92,3-7,16.1-15.42,31.34-28.28,43.68-3,2.86-6.16,6.23-10.35,2.7-3.8-3.18-5.8-7.07-4.43-12.86,2.51-10.63,11.63-16,17.64-23.68,12.49-16,25.55-31.53,29.48-52.36,1-5.21,5-7.23,9.75-5.69,5,1.6,5.77,5.55,3.72,10.24-1.24,2.85-2.68,5.73-3.24,8.74-.83,4.45-5.05,9.42.52,13.38,4,2.84,15.44-.89,18.17-6,2.38-4.47,5.44-8.72,5.56-14.24a19,19,0,0,1,2.24-8.09c1.91-3.71,5.44-4.32,9.53-4.43,4.26-.1,4.65,3,5.45,5.42,1.14,3.45,3.28,6.87,1.91,9.78Z"/><path class="cls-2" d="M207.62,561.13a3,3,0,0,1,.7-1.58c.69-2,1.92-2.93,2.42-4.09l0,0c.89-.62.86-1.47,1.79-1.75l0,0,1.79-1.78,0,0,1.83-1.82c12.42-9.08,39.74-6.63,54.05,4.32,8.77,6.72,17.09,13.58,21.51,24.07.68,1.6,1.7,3.42,3.77,2.79s3.06-2.39,3-4.68c-.18-6.28,1.27-12.81-3.56-18.84l4.64-.44c16.31-1.49,18.48,8.48,15.28,21.64-1.82,7.48-7.05,12.76-12.74,17-4.89,3.66-10.45,2.82-13.86-3.2-11-19.46-27.71-28.33-49.93-26.63-5.44.41-10.12,2.3-13.35,7.51-3.41,5.48,2.28,8.3,3.72,7.65,4.12-1.89,9.75.57,12.56-4.54,3.9,9.84.11,15.45-10.29,15.57-7.47.09-15.1.52-20.19-6.65-.49-.72-1-1.43-1.47-2.16v0c-1.81-7.42-2.68-14.91-1.58-22.52Z"/><path class="cls-2" d="M126.23,627.36c-3.88-.43-8.13-.32-4.64-6.45,8.12-14.3,10.11-30.26,12.52-46.17,1.82-12,5-23.49,18.55-28.07,7.11-2.41,14.24-1.52,21.32-.78,2.4.26,6.55,2.48,2.7,5.75-13.12,11.15-16.34,27.61-23.37,42-5.08,10.42-8.6,21.76-17.87,29.64-2.64,2.24-5.35,4.36-9.21,4.07Z"/><path class="cls-2" d="M440.92,580.16c-4.64.51-10,.13-14.5-3.8-2.93-2.57-5.08-1-7.57,1-6.82,5.3-14.64,6.88-23.25,6.45-13.3-.68-25.27-18.74-20.37-31.11.68-1.74,1.76-1.92,3.16-2.21,2.73-.57,4.5.67,5.52,3,1.82,4.15,3.16,8.42,6.72,11.7,7.92,7.29,15.83,5.4,19.58-4.9a64.31,64.31,0,0,1,3.35-7.82c2.47-4.73,11-5.64,14.21-1.43,2.08,2.68,3.3,6.06,5.5,8.61,2.69,3.12,4.35,8.67,9.29,8,6.27-.89,12.08-3.91,14.6-10.45a16,16,0,0,1,2.22-4.53,5.73,5.73,0,0,1,6.19-2.09c2.9.59,2.07,3.06,2.2,4.93.86,13-11.45,24.67-26.86,24.69Z"/><path class="cls-2" d="M385.88,659.7c.42,4.5-.6,8.62-5.5,9.35s-7.17-3.38-8.53-7.13c-3.69-10.15-4.06-21-6.47-31.49-4.2-18.25-12.86-35.21-15.54-53.9-1-6.77-1.81-13.57-2.61-20.35-.4-3.35-.12-6.49,3.94-7.53,4.28-1.09,6.68,1.83,8.34,4.79,3.95,7,5.05,15.09,6.76,22.75q8.69,39,18.93,77.54a40.7,40.7,0,0,1,.68,6Z"/><path class="cls-2" d="M261.8,695l8.36.06c4,.35,7.43-.57,9.24-4.64,9.81-8.75,18.67-9,29.41,0,7.16,6,17.41,5.39,26.72,2.26,2.64-.89,6.24-2.13,7.85.67,1.74,3-.19,6.24-3.08,8.17-14.17,9.46-26.73,15.21-41,2.93-2.81-2.42-4.44-1.55-7.44-.45-5.83,2.15-10.57,6.56-17.09,7.27-14,1.54-27.6-4.45-32.37-19.84,3.62-3.18,6.76.29,10.07.87a11.43,11.43,0,0,0,9.33,2.71Z"/><path class="cls-2" d="M504.39,699.06c-5.15-1.65-7.63-5.22,1-7.33,7.09-1.73,15.25-1.39,21.78-8-5.9-1.38-12.25,1.32-16-4.86-1.88-3.12-2.68-5,1.27-6.52,9.09-3.44,16.27-9.69,27.57-10.26,1,2.85-3.22,3.53-2.08,5.8s3.58,1,5.42,1.28a22.29,22.29,0,0,0,3.47.1c3.87,0,8.55-.64,9.89,4.06,1.22,4.3-2.18,6.69-5.81,8.44a39,39,0,0,1-4,2.13c-3.2,1-4.54,1.77-3.87,4.9.51,2.43,3,3.21,5.49,3.09,2.07-.09,3.06.72,3.12,3,.06,3-1,4.46-3.69,6a52.6,52.6,0,0,1-26,7c-1.16-.09-2.39.39-3.55.3-4.17,1.28-7.11.73-10.51.72H490.56c-4.61-.44-8.51-1.21-12.82-1a6.1,6.1,0,0,1-1.86.19c-1.92-.6-4.14.5-4.14-2.4,0-2.5,2.73-1.15,4.08-1.88,5.16-2.77,10.82-2.11,15.88-.79,5.53,1.44,10.86.7,16.27.94,8.25.8,16.29.55,23.28-4.93H504.41Z"/><path class="cls-2" d="M515.69,546.94c19.88,0,31.58,11.79,30.77,28.74-.09,2.1,1,4.91-2,6-3.36,1.19-5.63-.69-7.26-3.27-8.45-13.27-21-18.7-36.2-19.2-2.85-.1-6-1.06-6.83-3.79-1.13-3.59,3-3.48,4.86-4.87,5.76-4.22,12.42-3.91,16.7-3.61Z"/><path class="cls-2" d="M167.24,584.61c.12-9,3.67-12.94,11.86-13.19,6.27-.19,15.26,8.36,14.34,14.46-1.27,8.46-5.33,13.74-14.31,13.52C170.94,599.18,167.11,594.48,167.24,584.61Z"/><path class="cls-2" d="M413.88,693.75c-6.37,14.11-16.83,20-31.29,19.18-7.14-.41-17.83-8.64-20.36-16.34,17.15,2.22,34.06,4.75,51.65-2.84Z"/><path class="cls-2" d="M453.89,681.45c10.37-.55,13,4.23,13.79,12.35.63,6.49-6.23,11.92-14,12-8.13.09-12.33-3.94-12.27-11.8.06-9.54,3-12.51,12.46-12.56Z"/><path class="cls-2" d="M164.13,707.68c-5.43-.79-14,2.57-15.44-4.78-.95-4.95,7.62-7.57,12.16-10.23,6.21-3.64,13.44-3.79,20.34.69,3,2,3.72,3.93,3.71,7s-1.67,4.54-4.34,5.71c-5.28,2.32-10.78,1.31-16.43,1.65Z"/><path class="cls-2" d="M194,667.44c3.05,0,5.38,0,7.71,0,3.11,0,6.76-.76,7.42,3.83.63,4.4-3.32,5.32-5.93,6.21-9.79,3.34-20.26,2.4-30.36,3.93-2.87.44-5.18-.64-5.64-3.93s.6-5.5,4-6.66A58.58,58.58,0,0,1,194,667.44Z"/><path class="cls-2" d="M241.79,599.17c8.83,0,16,4.83,16.19,10.49.15,5.07-6.42,10.7-12.17,10.43-5.27-.24-10.16-7.42-10.67-14.62-.43-5.94,2.77-6.7,6.65-6.3Z"/><path class="cls-2" d="M455.43,669.32c-4.17-2.88-8.52-8.2-12.45-7.9-3.45.27-3.21,8.12-5.26,12.31-3.42,7-12.29,11.62-19.71,9.21-8.43-2.75-14.24-1-21,4.78-10.12,8.65-13.78,7.83-20,0-3.18-4-2.63-8.68-.94-12.23.84-1.76,4.19-4.38,9.18-3.43,6.66,1.24,12.93-3.79,16.65-9.72,3.42-5.44,1.77-11.26-2.08-16-3.27-4.06-7.16-7.61-10.75-11.41-1.36-1.43-3.23-2.54-3.35-4.85-.26-5.17-1.23-11,4.46-13.71s9.19,2.11,11.95,5.73c9.26,12.17,16.91,25.14,14.86,41.62,9.76-3.22,13.48-11.39,10.09-23.23-1.84-6.46-3.74-13-8.6-18.46-2.88-3.21-5.53-7.35-5.79-12.22-.13-2.39-1.7-7.69,3.66-8.68,4.29-.8,9.53-1.73,12.27,5,5.25,12.79,10.9,25.48,18.43,37.18,11.21,17.46,29.36,20.46,46.34,7.67-10.24-4.75-20.55-8.84-27.57-19-16.46-23.68-1.4-51.71,18.44-60.6,21.19-9.5,46.86-2.34,54.36,20.92,4.93,15.3-4.39,31.76-19.91,35.05-11.71,2.49-23.91-8.44-23-20.44.22-2.88.76-5.27,3.8-5.9a5.7,5.7,0,0,1,6.63,3c1.94,3.64,4.15,7.24,8.7,7.53,2.95.19,6.4,1.18,8.49-2.57a18.66,18.66,0,0,0,1.15-16.54c-2-5.06-5.23-9.66-11.42-10.52-9.27-1.29-17.6,1.23-23.1,8.74-6.68,9.1-11,18.93-4.39,30.55,6.15,10.82,15.67,14.1,27.19,14.95s21.08-3.77,30.67-8.59c3.65-1.85,7.06-3.41,10.22-.61,3.71,3.31-.45,6.16-1.8,8.84-3.15,6.24-9.34,9.14-15.05,12.42a296.32,296.32,0,0,1-49.72,22.73c-10.55-.16-21.19,1.46-31.6-1.57Z"/><path class="cls-2" d="M504.2,780.51c-1.79-1.19-3.15-1.67-4.32.93-4,8.82-10.83,15.32-18.28,21.12a6.75,6.75,0,0,0-2.93,6.46,163.31,163.31,0,0,1-1.32,34.09,79.66,79.66,0,0,1-2.63,9.89c-.41,1.37-1,2.78-2.65,3.07-3.64.65-2.78,2.39-1.17,4.39a19.91,19.91,0,0,1,4.65,15,34.69,34.69,0,0,0-.14,6.83,14.11,14.11,0,0,1-2.33,9.63c-3.38,5.18-2.47,9,2.77,12.32s5.7,8.9,7.49,13.89,3.42,10,5.2,14.91c.75,2.07.84,3.94-1,5.44-2.08,1.72-3,3.82-.77,5.77,2.42,2.13,3.56-.49,4.77-2.11,5.45,7.68,4.73,15.22-2,21.53-1.34,1.25-1.83,2.48-.84,4.1,3.11,5.06,4.28,10.74,5.35,16.47.57,3.06,0,4.24-3.5,4.24-38.49-.07-77,.07-115.45.08q-120.15,0-240.29,0c-1,0-2,0-3,0-5.48-.11-5.53-.16-4.32-5.71,1.71-8,.1-12-6.68-16.62-1-.65-2.12-1.15-2.31-2.38-1.57-9.45-2.65-18.75,1.83-28a32.42,32.42,0,0,0,3-13.82c-2.43,1.57-2.75,3.55-3.31,5.32-2.85,8.92-4,18.33-7.69,27a7,7,0,0,0-.37,3.37c.92,8.4,2.79,16.53,7.71,23.63,1.48,2.13,3.56,5.31,1.4,6.67-2.5,1.57-3.06-2.51-4.13-4.16-4.74-7.34-6.85-15.57-7.43-24.23-1.1-16.48-2.61-33-2-49.51a172.63,172.63,0,0,1,2-20.81c.39-2.49,3.06-4.43,3.63-7.24.24-1.17,1.87-2.63.52-3.4-1.95-1.11-1.83,1.48-2.71,2.34a9.48,9.48,0,0,0-1,1.67c-2.6-2.55-2.43-5.92-3.06-8.76-4.9-21.79-10.51-43.4-14.54-65.38a87.67,87.67,0,0,1-1.63-17.34V627.93c-.82.86-1.08,3.42,2.58,4.36V627.9l-1.75.13c4.5,4.66,6.9,10.66,10.32,16s4.62,11.79,7.44,17.44c2,4,2.54,3.75,5.35.16,9.82-12.54,14.59-27.68,21.17-41.82a399.13,399.13,0,0,1,43.81-72.64,220.7,220.7,0,0,0,22.91-37.89c.31-.65.54-1.33.9-1.94,6.78-11.29,3.85-11.94-4.94-21.75a5.57,5.57,0,0,0-3.44-1.52c-6.58-1.18-13.15-2.4-19.72-3.59-2.9-.53-5.83-1-7.9-4.23,3.6-.89,6.62-.05,9.63.45,3.56.59,7,1,10.45-.7,2.23-1.1,4.45-.15,6.67.33,3.63.75,6.35-1,6-4.5-.33-3,1-4.46,2.76-6.2a17.06,17.06,0,0,0,2.48-3.42c3.66-6.31,8.47-6.52,12.71-.53,2.47,3.48,5,7,7.33,10.51,1,1.56,2,2.12,3.83,1.08a212.61,212.61,0,0,1,32.1-14.69c10-3.59,17.24-10.15,23.63-18.18,2.74-3.46,5.84-6.62,8.76-9.93,8.82-10.05,14.33-21.52,13.75-35.12-.25-6-2.32-11.8-7.25-15.89a29.84,29.84,0,0,1-8.89-11.26c-2.26-5.23-5.45-9.68-11.37-11.36-1.28-.37-2.6-1.21-2.72-2.5-.57-5.57-2.21-11.29,1.69-16.43,2.54-3.35,8.44-3.13,11.16.45,4.45,5.85,6.74,6.55,13.32,4,.39-.15,1-.47,1.18-.31,4.2,3.41,9.39,1.2,14,2.51,3.49,1,5.22,3.76,7.46,6.07,1.53,1.57,2.82,2.44,5.12.94s4.52-.45,6.6,1.24c3.62,2.92,5.66,2.15,7-2.38,1.46-5,1.94-5.21,5.8-2.11.53.42,1.42,1.07,1.81.89,4.1-1.84,6.3,2.36,9.63,3.06a2.62,2.62,0,0,1,1.14,4.7c-2.37,1.94-1.05,3,.26,4.39a15.28,15.28,0,0,0,5.56,3.85,3.13,3.13,0,0,1,1.81,4.57c-.88,1.87-2.2,3.52-4.68,2.55-3.8-1.49-6.79-.31-8.82,2.92-1.06,1.67-4.68,1.56-3.73,3.71.85,1.91,3.9.84,6,.86,2.53,0,4.08,1.34,5.85,2.95,3.68,3.33,5.67,8.76,11.61,9.37,1.67.17,1.13,2.07,1.62,3.16a2.41,2.41,0,0,0,2.29,1.66c1.22-.13.78-1.3.81-2.08,0-1.06.26-2.1,1.38-2.39,1.34-.34,1.68.82,2,1.75,1.46,4.71,7.13,3.62,9.54,7,2.48-4.12,6-1.6,9.21-1.64,1,0,.76-1.92.63-3-.08-.74-.07-1.5.84-1.68a1.31,1.31,0,0,1,1.64,1c.23,1.65,2.62,3.19.48,5-1,.84-1.78,1.47-.73,2.74s2.16,1.16,3.5,1c1.62-.16,4-2.82,4.6-.27.52,2.12-2.94,2.2-4.65,2.49-6,1-12.14,1.59-18.21,2.4-1.68.22-4-.45-4.13,2.46-.14,2.6,1.29,3.83,3.53,4.65,9,3.25,17.68,7.26,25.39,13,11.49,8.53,21.6,18.21,25,32.9a42.24,42.24,0,0,1,1.29,14,6.06,6.06,0,0,0,2.62,5.87c6.1,4.78,12.59,8.7,20.26,10.37.53.1,1.24.27,1.46.66,3.64,6.09,10.63,7.37,16.16,10.13A146.52,146.52,0,0,0,500.77,511c2.14.75,3.36,2.58,5,4a8.17,8.17,0,0,0,4,2.31c4.73.75,6.84,4.29,8.56,8.09,1.41,3.09,4.07,6.28.42,9.66.9,9.86-3.16,19.08-3.79,28.81-.39,6-2.88,11.92-3.72,17.87-1.1,7.65-1.42,15.63.14,23.35a14.38,14.38,0,0,1-.05,7.05c-.78,2.87-1.48,5.79-1,8.84a5.43,5.43,0,0,1-2.6,5.48,2.49,2.49,0,0,1-3.92-1.16c-.72-1.65.65-1.87,1.86-1.93.92,0,1.77-.31,1.94-1.31.21-1.2-.73-1.69-1.63-2.21-3.84-2.16-5.75-9.77-3.18-13.74,1.09-1.7.75-2.16-.83-2.68-2-.68-4-1.51-6-2.09-2.9-.81-5.8-1.42-4-5.6a1.43,1.43,0,0,0-1.17-1.94c-1.6-.29-2.45.86-2.74,2.13a37.59,37.59,0,0,0-1.33,10.56c.23,4.08.08,7.5-4.36,10.07-3.08,1.79-2.21,6-.73,9s2.35,4.91-2.33,4.33c-1.32-.16-2.72,0-3.15,1.54-.48,1.73.72,2.72,2.12,3.21,2.57.88,2.18,2.57,1.47,4.45s-1.53,3.48-4,2.75c-.26-.07-.59-.25-.82-.18-4.82,1.46-9.62,2.89-14.76,2.8-.78,0-1.65,1-2.37,1.71a2,2,0,0,0-.39,2.71c.59.84,1.43.55,2.3.29,6.49-1.93,7.8-.79,7.31,6.3-.42,6,.53,6.72,6.25,4.79a18.45,18.45,0,0,0,3.11-1.41c8.48-4.76,15.64-2.66,19.82,6.29,2.39,5.13,4.69,10.45,3.6,16.43a4.41,4.41,0,0,0,1.29,3.92,3.09,3.09,0,0,1,.79,3.84c-.65,1.44-.23,3.14,1.34,3.5s1.39-1.51,1.73-2.47c2.71-7.49,5.86-14.88,7.79-22.58a58.88,58.88,0,0,1,3.59-9.38c2.39-5.56,1.94-12,.54-18-.42-1.84-1-3.4-.31-5.22,2.26-6.14,2-12.58,1.94-19A220.94,220.94,0,0,1,523.85,564c.71-3,.8-6.2,1.44-9.27s2.8-3.44,5.15-2a10.51,10.51,0,0,1,4.92,7.66,21.17,21.17,0,0,0,3.91,9.76c2.3,3.15,1.15,7.84,3.8,11.11.84,1,.75,3.08,2.61,3s1.49-1.81,1.91-2.95c.32-.89.94-1.66,1.9-1,3.86,2.62,3.89,0,3.93-2.75a3.67,3.67,0,0,1,1.67-3.46c2.31,6.92,5.72,13.17,5.07,20.78s1.38,15,.91,22.55c-.34,5.52.59,11.12-1.45,16.52-.43,1.14-.65,2.77,1,3.28,1.28.41,2-.88,2.62-1.79m-182,54.76c1.68.91,1.41,4.1,4,2.52,1.06-.65,1.82-2.3.89-2.87-3.63-2.22-2-4.11-.09-6.26a2.29,2.29,0,0,0,0-2.81c-1.38-2.31-.37-3.79,1.74-4.78,2.52-1.18,2.44-3,1.89-5.14-1.23-.19-1.54.52-2,1.07-.56.71-1,2.1-2.2,1.1a1.92,1.92,0,0,1,0-2.74c4.11-3.77,3-9.07,3.73-13.62.66-4.25,1.06-8.94-1.21-13.2-.78-1.47-.16-3.05.43-4.54.44-1.09,1.36-2.3-.05-3.32-1.7,0-1.26,2.3-3.09,2.31a3.65,3.65,0,0,1,1.23-4.75c.74-.58,1.57-1.47,2.66-.9,1.81,1,1.77,2.78,1.81,4.5,0,.7-.17,1.41-.18,2.12,0,1.23-2.36,2.82-.19,3.51,1.35.42,2-2,2.83-3.24.69-1,.24-2.28-.13-3.32-1.45-4.13-2.18-8.44-4.15-12.5-1.37-2.83-2.41-2.82-4.61-1.23-.57-2.89.56-5.17.84-7.52.24-2.06,1.33-3.65-2.09-4-2.35-.23-1.59-2.12-.1-2.84,3.69-1.76,2.27-4.81.84-6.29-2.73-2.81-2.68-6.07-3.25-9.38-.92-5.32-1.33-10.88-3.23-15.85-4.87-12.83-7.72-26.14-10.21-39.51-1-5.59-2.16-12.14.81-17.21,4.81-8.24,8.42-17.17,13.82-25,6-8.78,5.49-19.6-3.53-27.36-1.91-1.64-3.32-1.54-4.6.31a19.74,19.74,0,0,1-5.65,5.13c-.93.62-2,1.42-3,.17a2.4,2.4,0,0,1,.2-3.16,13.59,13.59,0,0,1,2.46-2.33c5.84-4.37,6.49-7.41,3-14.53-1.61.54-.95,3.13-2.34,3.26-3.25.31-3.58,2.74-4.88,4.92s-3.52,5.94-5.59,4.88c-2.84-1.45-.52-5,.12-7.69.07-.27.32-.49.37-.76,1.08-6.33,6.56-10.62,7.82-16.84,1-4.93,4.75-8.71,5.59-13.74a2.78,2.78,0,0,1,3.14-2.32c1.48.35.68,1.92.75,3,.1,1.36,0,2.78,1.11,4,1.9-4.82,1.94-9.87,3-14.73.59-2.7-1-3.71-3.49-3.19-3.26.69-5.94,2.37-6.78,5.77A57.33,57.33,0,0,1,351.43,449c-4.18,3.7-11.2,5.19-15.38,2.5-2.41-1.55-4.27-1.91-7-.88-4.87,1.8-8.44-.37-9.4-5.46-.46-2.45-1.85-4.16-3.31-6a28.67,28.67,0,0,0,1.06,10.41c3.13,11.69,6.71,23.29,9.18,35.12,4.16,19.92,7.82,40,11.24,60,1.89,11.09,4.36,22.05,6.25,33.12,1.35,7.84,2,15.87,4.26,23.45a243.87,243.87,0,0,1,6.12,29.14c2.59,15.6,7.06,30.78,9.47,46.39.26,1.66,1,3.46,3,3.68s2.89-1.49,3.65-3c.31-.62.24-1.51.68-2,.92-1,1.9-2.67,3.35-2.11s.56,2.24.44,3.45a19.88,19.88,0,0,0-.33,3c.27,4.17,1.65,4.86,5,2.52,1-.7,1.94-1.44,3-.33,1.26,1.33.22,2.32-.73,3.24-1.64,1.56-3.4,3-4.9,4.7a2,2,0,0,0,.15,3.06c1,.74,1.87,0,2.55-.83.45-.53.83-1.12,1.38-1.86Zm22.11-79.05c.2,1,.41,2,.6,3,2.13,10.89,9,20,11.63,30.73.12.51.69.89,1,1.34,2.19,2.88,3.91,5.91,3.55,9.74-.18,1.86.44,3.43,2.33,4.12a5,5,0,0,0,5.17-.94c5.33-4.31,11.72-3.75,18-3.69a3.47,3.47,0,0,1,2.51,1.42c1.91,3.06,5.46,4.6,7.09,7.9.57,1.15,1.68,2.34,3.08,1.52,1.65-1,1-2.53.07-3.68-1.26-1.6-2.53-3.16-2.32-5.32.32-3.44-.73-6.06-3.94-7.79-1.68-.91-2.75-2.58-.55-4,5.78-3.64,4.9-9.77,5.87-15.19a3.21,3.21,0,0,0-2-3.48c-1.67-.7-2.73.46-3.5,1.68a9.78,9.78,0,0,1-5.85,4c-1.42.43-3,2-4.32.68s.41-2.62.87-3.86c1.19-3.22,1.59-5.88-2.77-6.79-1.33-.28-2.66-1.19-2.31-2.63,1.32-5.3,0-8.31-6-7.9-.6,0-1.24-.64-1.86-1-2.16-1.14-3.28.46-4.13,1.86-1.1,1.79.51,2.46,1.82,3.1a17,17,0,0,1,2.68,1.29c1.66,1.24,2.6,2.88,1,4.71a3.07,3.07,0,0,1-4.87.29c-.72-.67-1.16-1.74-1.95-2.23-2.42-1.5-2.67-5.11-6.63-5.44-3.28-.26-7.05-1.29-8.82-5.11-.62-1.34-1.28-3.41-3.13-3-2.16.53-1.92,2.85-2.25,4.6Zm47.47,228.65c.84-.24,2.39-.56,3.83-1.11a1.87,1.87,0,0,0-.51-3.69c-8.65-.81-16-5.07-23-9.58-4.43-2.85-10.12-3.06-13.78-7.27-.93-1.07-2.68-2.66-3.91-.84s.71,3,2.15,3.93c5.07,3.38,10.19,6.72,15.18,10.21,5.89,4.12,11.95,7.75,20,8.34Zm26.55,96.9c4.61,1,4.65-3.67,6.54-6.37a3.26,3.26,0,0,0,.2-4,3.11,3.11,0,0,0-3.71-1.37c-3.34.72-6.63,1.71-10,2.19-3.58.5-5.69,2.3-6.52,5.75-.31,1.32-1.38,2.94.23,3.87,2,1.13,2.72-.72,3.53-2,1.42-2.3,2.88-2.8,4.33-.09,1.08,2,2.91,2,5.39,2ZM340.54,438.35c-.09,2.8,1,4.58,3.28,5.29,2.62.83,4.86,0,6-2.58,1-2.32,3.62-4.33,1.73-7.36a.52.52,0,0,0-.32-.25c-2.89-.2-4.13-2.65-6-4.3a3.23,3.23,0,0,0-3.95-.58c-1.09.63-1.85,1.82-1.24,2.85a7.6,7.6,0,0,1,.44,6.93Zm29.34,247c-1.25.14-1.12,1.49-1.43,2.5-1.7,5.63-.78,11.19.49,16.72.43,1.85.06,4.74,2.44,4.86,2.88.14,1.22-2.82,1.76-4.33.65-1.86,2.86-3.75.75-5.78-2.82-2.72-1.39-5.61-.37-8.2,1.72-4.37,1.05-5.84-3.65-5.77ZM359.82,877.56c-3.77,0-6.3,2.28-6.35,5.84a6.82,6.82,0,0,0,6.65,6.82,6.19,6.19,0,0,0,6.08-5.82A6.25,6.25,0,0,0,359.82,877.56ZM412.35,602.4c-.08,2.92,3.69,7.85,6.65,8.5,2.78.61,4.06-.89,4.11-3.44.07-3.09-4.84-7.91-7.88-8C413.36,599.46,412.24,600.22,412.35,602.4Zm-50.22,168c-.32-2.59-1.69-4.92-5.08-5.27-2.93-.29-6.21,3.17-6.28,6.34a6,6,0,0,0,5.9,6c2.88-.08,5.49-3.19,5.46-7.08Zm30.05-241c-.15-3.32-4.78-7.42-7.74-7.1-2.44.26-3.37,1.88-3.28,4.14.09,2.67,4.59,6.59,7.42,6.47a3.48,3.48,0,0,0,3.6-3.5Zm37.61,34c-1.28-1.87-1.28-5.08-4.59-5.31-2.26-.17-4.12,1.11-3.8,3.51.29,2.19.25,5.41,3.48,5.45C426.79,567.08,429.16,566.32,429.79,563.41Zm35,8.92c-1-.15-1.73.36-1.61.76.86,3.06,1.87,6.09,2.9,9.11,0,.13.84.15,1.19,0,1.57-.67,3.13-1.32,4.62-2.13s1.53-2,.5-3.19c-2.14-2.38-6-1.89-7.6-4.55ZM500,717.07c-2.61,1.18-5.84,1.62-5.27,4.91.43,2.53.4,4.5-1.18,6.58a2,2,0,0,0,.72,3c1.34.63,2.07-.54,2.54-1.58,1.8-4,3.89-7.87,3.19-12.87ZM443.42,899.68c1.22-.48,2.68-1,4.11-1.62,1.26-.54,2.28-1.43,1.76-2.95-.48-1.35-1.82-1.29-2.92-1.08a52,52,0,0,0-5.36,1.38c-1.65.52-4.74-.64-4.74,1.53,0,2.82,3.34,1.64,5.19,2.3a14.55,14.55,0,0,0,2,.42ZM475.1,592.1c-.19-.3-.32-.85-.62-1-3.49-1.41-7-2.82-10.54-4.07a1.57,1.57,0,0,0-2,1.14,2,2,0,0,0,1.62,2.56c3.3-.09,5.86,2,8.89,2.62,1.12.25,2.31.45,2.66-1.28Zm-64.73-.82c-1.57.18-3,1-2.29,2.36,1,1.81.42,5.14,3.28,5.18,1.64,0,4.28-1.06,3.86-3.61s-2.58-3.53-4.86-3.93Zm40.87,29.08a22.69,22.69,0,0,0,3.58-.57,1.8,1.8,0,0,0,1.29-2.31,1.23,1.23,0,0,0-1.62-.94c-2.05.8-4.13.44-6.21.48a1.63,1.63,0,0,0-1.72,1.53c-.07,1.06.74,1.44,1.61,1.57s1.67.14,3.07.24ZM423.9,692.63c-.36,2.62.27,5.79-3.8,5.72-.9,0-2-1.09-2.55.28a2.53,2.53,0,0,0,.19,2c.68,1.19,1.9,1,3,.79,3.59-.8,5.16-4.68,3.12-8.78ZM404.49,810.35c-1,.1-2.14.71-1.35,1.48,1.85,1.82,3.54,4.07,6.27,4.7,1.08.24,1.76-.55,1.15-1.46a10.66,10.66,0,0,0-6.07-4.73Zm23.79,84.89c-2.77-.63-5.53-1.32-8.32-1.87a1.3,1.3,0,0,0-1.62,1c-.11.65.42,1,1,1.12,2.93.63,5.85,1.48,8.94-.24Zm33,12.71c-.71-1.29-1.53-2.67-3.24-2.84-.81-.08-1.12.79-1,1.53a3,3,0,0,0,3.11,2.8c.82,0,1.22-.55,1.14-1.49ZM382,457c-.67,2.38-.9,4.37.16,6.3a.77.77,0,0,0,1.38.05c.94-2-.15-3.77-.69-5.62,0-.1-.2-.18-.85-.73Z"/><path class="cls-2" d="M88.11,450.92c4.19,3.18,9.24,4.82,13.6,7.85A81.33,81.33,0,0,1,115,470.66c2.08,2.27,3.57,2.35,6,.26,6.45-5.6,12.76-11.32,17.93-18.12,2.58-3.38,5.79-3.68,9.46-3.27.73.09,1.47.38,1.4,1.25s-.94.94-1.61.81c-3.68-.69-5.86,1.52-7.9,4-6.84,8.37-14.9,15.51-22.91,22.72a42.28,42.28,0,0,1-12.85,7.46c-1.87.76-3.28.62-4.06-1.48,5.32-1.89,5.78-3.48,1-6.78-5-3.46-6.66-9.11-10.38-13.33-.93-1.06-1.57-2.39-3-3V450.93Z"/><path class="cls-2" d="M88.11,475.73c4.65,3.15,7.56,8,11.59,11.79,1.72,1.6.32,2.88-.74,4-3.57,3.63-7.22,7.18-10.85,10.76V483.42c1.64.94,2.94,2.52,5.53,2.95A18.46,18.46,0,0,0,88.11,480v-4.27Z"/><path class="cls-2" d="M88.11,618.55c1.48,3,3.58,5.85,3.37,9.5l.1-.13c-1.57-.7-2.32-2.25-3.48-3.39v-6Z"/><path class="cls-2" d="M244.37,158.57c-.29-2.47,2.2-2.91,1.87-4.73-1.17-1-2.47.33-3.7-.71,12.91-4.08,26.13-4.3,39.54-2.55.39,1.74-2,1.46-2.1,2.78a.58.58,0,0,0,.94.37c2.53-2,5.43-2.27,8.49-2a11.78,11.78,0,0,0,7-1.34c4.09-2.35,8.52-.27,12.79-.46,4.73-.21,9.55,1.38,14-1.56a3.72,3.72,0,0,1,3.71,0,4.79,4.79,0,0,0,4.92-.43c3.84-3,8.05-2.13,12.27-1.9,1.19.06,3.26,1.37,3.22-1.1,0-1.66-1.7-2.67-3.49-2.3-2.61.52-5.1-.11-7.61-.52-.84-.13-1.88-.31-1.77-1.4s1.21-.93,2-1c3.79-.37,7.59-.77,12.73-1.3-3.5-2.91-6.34-4-9.86-3.78a170.06,170.06,0,0,1-24.2-.73,20.37,20.37,0,0,0-5.07.4c-1,.17-2.12,0-2.27-1.28a1.52,1.52,0,0,1,1.55-1.7c6.5-.25,12.42-2.89,18.63-4.32,1.69-.4,2.71,2.26,5.38,1.22,3.12-1.22,7.15.17,9.08-4.19.53-1.21,2.66-.42,4-.22,1.73.26,3.18.17,3.68-1.86s-.89-2.77-2.31-2.92c-5-.54-9.12-4.71-14.56-3.66-1.22.24-2.12-.83-1.49-1.84.88-1.41.93-5,2.84-3.83,3.18,1.9,6.1.47,9,.56,4.34.13,8.72-1,12.74,1.86-2.43-5.45-6.3-7.67-12.3-6,2.06-2.24,3.21-4.9,6.14-5.67.9-.24,2.27-.28,2.17-1.61a2.64,2.64,0,0,0-2.63-2.41c-6.68,0-13.24-2.21-20-.94a21.29,21.29,0,0,1-3.81.44c-1.19,0-2.92.43-3-1.45S324.4,92,325.91,92c6.14.15,12-2.08,18.15-1.87,5.69.21,11.36.7,17.06,1a5.23,5.23,0,0,1,5,3.93c.65,1.91.9,3.28-1.8,3.55-2.93.3-1.86,1.77-.65,3.08,2.36,2.58,5,.46,7-.24,1.36-.46.41-3-.69-4.46a9.73,9.73,0,0,1-1.25-2.22c-.3-.74-.95-1.58-.11-2.34.63-.56,1.33-.13,2,.07,8,2.24,16.12,4.19,24,6.76,13.87,4.51,28.24,7.54,41.59,13.58,4.34,2,9,3.56,12.32,7.37,1.46,1.67,3.72,1.9,5.83,2.26,8.74,1.46,18.88,11.33,20,19.34a7.65,7.65,0,0,1-2,6.65c-4.2,4.76-8.76,9-15.15,10.45-3.17.73-2.92,4-4.62,5.56-2,1.78-4.8-2.55-7-.12-2.69,2.92-4.49,2.11-7-.32-1.41-1.38-3.78-1.93-5.82-2.46a22.93,22.93,0,0,1-8.33-4.17,8.23,8.23,0,0,0-9.28-.71c-3,1.73-6.11,2.38-9,1.55-4.6-1.36-9.67-1.22-13.8-4.3-1.66-1.25-4-.86-5.74.07-5.17,2.76-11.33,2-16.43,4.88-.75.42-1.51.19-1.56-.71-.08-1.77-1-3.7.85-5.18a27.73,27.73,0,0,1,9.84-5,15.21,15.21,0,0,0,6.1-3c-10.82-3.14-20.74.54-30.78,1.57-4.49,5.08-11.18,5-16.94,6.74-7.85,2.38-15.35,5.8-23.25,7.85-4.8,1.25-10.56,2.73-13.71-3.87-.88-1.85-2.64-1.31-4-.14a5.93,5.93,0,0,1-5.55,1.35c-2-.43-3.92-.43-5.57,1.24a4.92,4.92,0,0,1-4.46,1c-4.46-.8-8.92.32-13.53-.51-3-.54-7.07.83-10.56,1.76-1.36.36-3.21,1.55-3.83.1-.9-2.1,1.72-2.14,2.9-2.83a44.16,44.16,0,0,1,4.75-1.85c.85-.36,2.1-.64,1.8-2-.25-1.13-1.38-1.39-2.33-1.63-2.05-.54-3.91.18-5.79.91-3.38,1.31-6.79,2.54-10.35,3.86Zm104.74-15.9a11.89,11.89,0,0,0,8.32,1.74c1.06-.15,3.05.07,2.72-1.77-.26-1.46-2-1.36-3.23-1.22C354.71,141.68,352.54,142.12,349.11,142.67Z"/><path class="cls-2" d="M366.54,264.6a102.92,102.92,0,0,1,2.61-20.53c2.19-9.43,9.13-15,18.68-15.53,5.86-.32,11.47-1.84,17.55.23,10.84,3.71,15.25,9.74,13.83,21.17-1.44,11.59-5.66,22.23-13.6,30.67-7.37,7.85-17.27,9.77-27.51,6.59-11.47-3.56-18.61-17.15-16-29.06.32-1.49.78-3.59-.3-4.45-1.44-1.12-3.63-.57-5.31.21-2.22,1-4.33,2.14-6.88,1.92-1.85-.17-3.29-.78-3.83-2.78-1.05-3.92,2.87-10.55,6.83-10.69s5.33-1.94,5.44-5.5a5.36,5.36,0,0,1,.64-2.46c1.52-2.67.2-3.15-2.16-3.19-1.17,0-3.09.33-3.15-1.32s1.54-2.64,3.33-2.42c3.78.45,5.66-2.93,8.58-4.25,5.8-2.64,10.93-5.51,18.11-3.68,4.41,1.13,9.84-.94,14.74.17,8.54,2,17.06,3.69,22.18,12.4,3.44,5.84,12.45,6.49,17.14,1.35,5.06-5.53,11.44-7,18.22-8.17,2.82-.49,3.78,1.63,4.09,3.32.43,2.31-1.92,1.31-3.1,1.56a25.06,25.06,0,0,0-12.74,7.34c-3.34,3.41-6.78,5.52-11.67,3.91a4.69,4.69,0,0,0-1.7-.22c-5.63.44-9.9-.83-12.42-6.81-1.39-3.29-5.09-5.37-8.65-6.58-13-4.42-25.45-3.66-37.15,4a17.46,17.46,0,0,1-7.91,3,3.59,3.59,0,0,0-3.38,2.78,3.18,3.18,0,0,0,1.63,4c2.23,1.32,2.66,3.45,2.78,5.87.26,5.75.72,11.51,1.09,17.26Z"/><path class="cls-2" d="M475.07,266.59c1.46-6.75,3.78-13.39,2.17-21.07-1.61,2.45-2.8,4.73-5.75,4.24a1.25,1.25,0,0,0-1,.72c-1.05,4.89-6.66,5.42-8.8,9.31a4.82,4.82,0,0,1-3.56,2.13c-8.25,1.51-12.52,13.48-7.1,20.29,2,2.57,4.16,3.56,7.35,2.56a19.89,19.89,0,0,0,11.29-9.18c.83-1.35,1.56-3.09,3.49-3.58,1.13,1.62,0,2.8-.83,3.78-4.26,5.3-9.24,9.64-16.06,11.31-4.39,1.06-10.57-1.7-12.53-5.81-4.94-10.41-7.6-21.12-3.72-32.57,2.42-7.15,6.59-12.38,14.22-14.59,6.46-1.88,12.64-2.81,19.11.1,5.95,2.68,8.71,7.21,8.79,13.41.08,5.92-2.38,11.37-3.94,17-.28,1-1,2.1-3.14,2Z"/><path class="cls-2" d="M255.3,191.25c-.09-2.29,1.26-4.08,3.24-3.49,5.83,1.76,10.63-2.65,16.16-2.17,1.14.09,2.86-1.25,3.16.67.21,1.34-1.61,1.75-2.78,2.24-2,.86-4.7,0-6.24,2.24a2.14,2.14,0,0,0-.09,2.52c4.44-2.26,8.88-4.51,13.31-6.81.34-.17.76-.54.8-.87.58-3.9,2.75-5.71,6-4.2,4,1.84,7.83,1,11.4,0,11.89-3.31,23.63-7.18,35.43-10.82.89-.28,2.08-1.11,2.7,0a4,4,0,0,1-.17,2.84c-.86,2.56-3.37,3.79-5.06,5.68-3.56,4-6.54,8.57-11,11.75-1.16.82-2.05,2.12-3.71,1.22a3,3,0,0,1-1.66-3.18c.39-4.24-2.42-2.64-3.52-1.41-1.88,2.12-3.7,1.85-6.08,1.52-3.12-.44-5.72,1.31-7.84,3.41-2.94,2.92-5,6.34-4.63,10.74.13,1.51.08,3.4-1.73,3.2-1.64-.18-.91-2.09-.66-3.26.44-2-1-3.5-1.09-5.37,0-1.21-1.07-1.1-1.87-.49a15.72,15.72,0,0,0-3.27,2.72c-2,2.66-3.26,4.51-6,.27-1.51-2.31-4.8-1.2-6.6,1.09a24.43,24.43,0,0,1-4.1,4.28c-2.82,2.2-5.93,4.41-2.95,8.74a2,2,0,0,1-.92,2.94c-1.2.48-1.91-.81-1.95-1.7-.13-4-2.66-8,.73-11.86,1.26-1.42,1-3.51.8-5.37-.11-1.18-.4-2.38-1.85-2.48a5,5,0,0,0-4.16,1.83c-.68.78-2,2-.82,2.84,2.69,1.83.32,3.35-.42,4.1-2.21,2.25-3.42,4.4-1.89,7.49.21.43-.27,1.06-1.3,1.17-.7-1.56-1.53-3.26-.9-5.05,1.05-3,3.05-5.84-1.49-8-1.7-.79-.19-2.4.66-3.13,1.81-1.58,3.86-2.88,5.82-4.29.88-.62,2.63-.87,2.14-2.21-.61-1.67-2.22-.52-3.36-.36a10.32,10.32,0,0,0-2.36.95l.1.08Z"/><path class="cls-2" d="M377.87,312.23c-1.61,7-8.59,10.11-11.59,16.94a12.85,12.85,0,0,1,7.16-.66,3.91,3.91,0,0,0,1.67-.25c2.89-.94,3.85-5.21,8.41-3.86,2.83.84,6.35-.75,9.45-2.12a33.58,33.58,0,0,1-8.31,8.54c-.79.56-1.84,1.11-1.61,2.3.29,1.48,1.67,1.33,2.75,1.45a17.49,17.49,0,0,0,3,.12c6.3-.3,12.7-1.26,18.21,3.18a7.1,7.1,0,0,0,2.81,1,3.53,3.53,0,0,0,3.86-1.17c1.29-1.65-1.25-1.88-1.24-3.35,1.54-.86,3.51-.6,3.73.93.35,2.34,0,4.33,2.82,5.66,1.24.58-.56,1.85-1.57,2.09a19.5,19.5,0,0,1-8-.24c-7.79-1.4-15.47-2-23.21.5-3.71,1.21-7.16-1.32-10.8-1.83-1.83-.26-3.56-.89-5.4,0-.57.29-1.72.47-2,.17-2.62-3.07-4.78-2.35-7.29.28-1.45,1.51-2.23-.15-2.57-1.42a14.67,14.67,0,0,1,1.59-11.12c3.15-5.62,11.69-13.61,18.16-17.12Z"/><path class="cls-2" d="M433,324.2c-1.61-.69-1.17-2.69-2.65-2.56-1.26.12-1.05,1.52-1.42,2.37-2,4.5-10.93,6.05-14.08,2.23-1.56-1.87-2.93-2.86-5.39-2.09-1.61.52-3.1-.37-4.41-1.2-1.74-1.1-.45-2.51-.14-3.79.41-1.71-.71-2.74-1.88-3.53-3.22-2.21-5.23-5.59-8.05-8.18a6.44,6.44,0,0,1-2.25-4.49c-.08-1.57-.08-3.58,1.53-4.08,1.78-.56,1.48,1.62,2,2.62,2.53,4.6,6.82,5.88,11.47,3.37a16.78,16.78,0,0,1,23.63,8.9c1.24,3.23,3,6.44,1.61,10.41Zm-4.6-9.45c-.07-1.22-1-1.35-1.82-1.46-1.38-.18-2.66.11-2.87,1.76-.11.82.61,1.29,1.41,1.16,1.22-.2,2.6-.13,3.28-1.46Z"/><path class="cls-2" d="M223.87,181.75c-4.47,2.95-4.52,5.62-.32,7.82a3.42,3.42,0,0,1,1.89,4.2c-1.76,1.24-2.31-2.79-3.24-1.1a9.24,9.24,0,0,0-.53,8.43c-1.63,1.12-2.13-1.53-3.51-.71-.06.12-.15.23-.2.36-.62,1.53,2.9,3.43.35,4.19s-2.78-2.52-3-4.17c-.58-4.52-2.27-9.27,1.51-13.44.35-.37,3.57-3.73-1.2-3.4-1.08.08-1-1.29-.79-2,.44-1.83-.14-4.24,2.4-5s3.63-1.37.7-3.25c-1.58-1-.61-2.17.54-2.38,4.86-.83,8.09-4.39,12-6.85.69-.44,1.42-1.24,2.21-.34.55.61.15,1.42-.29,1.95-1.49,1.8-1.57,3.78-1.34,6,.35,3.59-3.75,4.79-4.61,7.79,1.2,1.07,2,.07,2.63-.49,3-2.51,5.94-4,9.51-.73.83.76,3.25-.28,1.59,2.43-.9,1.48.5,2.27,2.08,2.07,1.33-.17,2.64-1.19,4.42.25-3.77,1.15-6.55,3.41-9.26,5.78-1.44,1.25-3.4,1.52-4.69.22s.57-2.1,1.31-3c1.32-1.66.15-2.46-1.24-2.57a12.28,12.28,0,0,0-4.13.67c-3,.88.77,1.49.16,2.56a2.29,2.29,0,0,1-2.81,1.28c-1.5-.38-3.16-.86-2.95-3,.11-1.11,1.36-1.9.82-3.58Z"/><path class="cls-2" d="M291.69,258.39c-4.34.41-5.82-3.38-7.18-6.66-2-5,.52-10,.79-15a1.32,1.32,0,0,1,1.9-1.12c4.56,1.74,9.25-.2,13.87.52,3.18.49,4.5,1.26,3.37,4.89-1.45,4.61-3.26,9.06-4.94,13.56-1.28,3.45-4.23,3.78-7.81,3.82Z"/><path class="cls-2" d="M403.52,361.05c3.47.15,7.26,1.7,10.53-1.76,1.12-1.18,3.53-1,5.32-.21,1,.44,2.22,1.09,2.33,2.29.17,1.81-1.48,1.34-2.47,1.52-2.25.42-3.27,2.09-4.22,3.87s-1.28,3.26,1.31,3.83c2.3.51,2.05,2.51,2.15,4.12.14,2.21-1.78,1.76-3.07,2-6.6,1.15-8.34.36-11.89-5.24a30,30,0,0,0-3.24-4.49c-1.21-1.33-3.22-2.22-2.26-4.49,1.13-2.63,3.5-1,5.49-1.42Z"/><path class="cls-2" d="M325.4,192.59c-3.15,4.68-4.09,10.37-7.45,14.89-.42.56-1,1.43-1.47,1.46-4.92.29-4.92,4.45-5.34,7.51-.47,3.51-2.94,6.18-3,10,0,2.47-3.95,2.11-6.25,1.82-1.78-.22-4.49.22-4.88-2.39-.37-2.43.92-4.32,3.42-5.23a7.17,7.17,0,0,0,4.63-4.67,4.53,4.53,0,0,1,2.88-2.92c.65-.25,1.71-.7,1.73-1.11.29-5.37,6-7.32,7.38-12.17,1.05-3.79,4.3-6,8.34-7.18Z"/><path class="cls-2" d="M242.81,297c5.94,2.71,8.13,7.55,8.74,13.35a80.11,80.11,0,0,1,.79,14c-.08,1.16-.25,2.42-1.56,2.74a5.43,5.43,0,0,1-4.49-.74c-1.22-.88.17-2.11,0-3-.77-5.12,2.36-10.35-.81-15.44-2-3.25-1.23-7.41-2.71-11Z"/><path class="cls-2" d="M276.44,245c-2.37-2.49-6.1-2.5-7.25-6.35-.67-2.27-2.32-.08-3.43.31-1.9.68-2.93-.47-4-1.55s-1.66-2-1-3.4c.52-1.07,1.87-2.18,2.64-1.8,3.69,1.8,7.86-.33,11.49,1.65a7.13,7.13,0,0,0,3.29.6c3.61,0,3.48,2.21,2.66,4.63-.51,1.55-1.38,2.86-2.69.49-.56-1-1-2.33-2.43-1.26-1.2.89-.71,2,.07,3S277.29,243,276.44,245Z"/><path class="cls-2" d="M446.67,323.77c-.5,4.49-1,9-3.47,13-.38.59-.72,1.35-1.57,1.09a1.33,1.33,0,0,1-.77-1.76c2.1-6.64,0-12.88-1.76-19.14-.6-2.12.39-3.18,2.32-3.78s2.92.06,3.52,1.9c.94,2.84,2,5.63,1.74,8.72Z"/><path class="cls-2" d="M422,251.92c-.19-3.3-.13-6.22,3-7.34,3.69-1.33,7.59-1.48,11.07.76,1.67,1.07.81,9.07-.9,10.24a.93.93,0,0,1-1.45-.26,22.81,22.81,0,0,1-1.19-2.24c-3.51-6.87-5-7.08-10.49-1.16Z"/><path class="cls-2" d="M314.71,113c-9.89,8.09-22.5,6.83-33.67,10.49C291.46,117.32,303.75,117.32,314.71,113Z"/><path class="cls-2" d="M291.49,213.5c.61,2.89-1.21,4.6-2.49,6.58-.66,1-2,2.18-.88,3.36,1.31,1.35,2.15-.49,3.16-1,.8-.44,1.16-1.69,2.66-1.27-.53,3.69-1.32,6.79-6.25,5a4.82,4.82,0,0,0-1.27-.09c-1.58-.11-3.76,1.49-4.61-.55s1.62-2.92,2.94-4.05c2.65-2.26,6-3.91,6.76-7.91Z"/><path class="cls-2" d="M284.62,132.6c-1.85,4.88-11.85,8.78-17.84,7.05C272.58,136.43,278.46,134.73,284.62,132.6Z"/><path class="cls-2" d="M262.15,257.89a4.12,4.12,0,0,1-3.72,4.13,2.84,2.84,0,0,1-3.07-3.3c.38-2.25,1.75-4.66,4.12-4.89s2.22,2.43,2.66,4Z"/><path class="cls-2" d="M235.12,174.05c-.85-5.94,3.67-9.24,6-13.47C243.22,165,241.73,168.43,235.12,174.05Z"/><path class="cls-2" d="M432.11,343.94c-1.27-.48-4.11.54-3.69-1.93.67-3.92,4.49-2.22,7-2.91,1.06-.29,2.36-.37,1.85,1.13C436.48,342.41,435,344.11,432.11,343.94Z"/><path class="cls-2" d="M235.68,133.28c2.82-2.1,5.61-4.26,8.49-6.28a1.39,1.39,0,0,1,1.92.31,1.56,1.56,0,0,1-.32,1.46c-2.83,2.39-5.74,4.65-9.32,5.62Z"/><path class="cls-2" d="M227.32,152.14c-1.13,4.53-4.3,6.76-7.19,9.92C219.9,156.76,222.7,154.24,227.32,152.14Z"/><path class="cls-2" d="M221.9,168.43c.52-5.51,1.6-6.5,6.42-8Z"/><path class="cls-2" d="M260.37,227.76c-1.16,2.3-2.3,4.88-3.72,7.28-.51.84-1.56.34-2.16-.38s-.9-1.91.1-2.1c2.71-.54,2.36-2.73,3-4.5a2.21,2.21,0,0,1,1.83-1.61c.68-.07,1,.42,1,1.32Z"/><path class="cls-2" d="M373.84,358.63a2.88,2.88,0,0,1-3.18,2.3c-1.2,0-2.44-.42-2.08-1.93s1.83-2,3.31-2c1.11,0,1.87.48,2,1.59Z"/><path class="cls-2" d="M247.38,226.9c-.21,1.28.37,3.13-1.87,3-1.22-.06-2.29-.93-2-2.24s.84-3.34,2.6-3.44c1.56-.09,1,1.62,1.23,2.66Z"/><path class="cls-2" d="M275.2,225.15a22.85,22.85,0,0,1-5,6.08c-.66.49-1.47-.63-.88-1.12,1.76-1.49,2.56-3.6,3.86-5.37a1.32,1.32,0,0,1,1.09-.41c.31,0,.57.46,1,.82Z"/><path class="cls-2" d="M304,175l-9.22,1c2.85-2,6-1.76,9.09-2.07,0,.34.07.69.12,1Z"/><path class="cls-2" d="M255.2,191.16c-1.67,2.57-3.89,3.8-7.58,2.71,2.76-1.31,4.66-3.44,7.68-2.63l-.1-.08Z"/><path class="cls-2" d="M388.3,528.36c-.11,1.43-.85,1.73-1.8,1.57a2.19,2.19,0,0,1-2.11-2.28,1.36,1.36,0,0,1,1.77-1.33,2.58,2.58,0,0,1,2.14,2Z"/></g></svg>