<svg id="Layer_1" data-name="Layer 1" xmlns="http://www.w3.org/2000/svg" viewBox="0 0 673.06 720.33"><defs><style>.cls-1{fill:#676767;}</style></defs><path class="cls-1" d="M404,169.66,386.25,139a29.48,29.48,0,0,0-25.43-14.66H312.2A29.43,29.43,0,0,0,286.8,139l-17.7,30.7,0,0h8.37l0,0,15.62-27.06a22.14,22.14,0,0,1,19.1-11h48.62a22.25,22.25,0,0,1,19.14,11l15.59,27.06h0l5.75,10L380,216.72a22.24,22.24,0,0,1-19.14,11.05H350.14L348,231.41l2.08,3.61h10.7a29.45,29.45,0,0,0,25.43-14.66L404,189.63l5.75-10-5.78-10ZM322.9,227.77H312.2a22.14,22.14,0,0,1-19.1-11.05l-15.65-27.09h-8.37l17.73,30.73A29.36,29.36,0,0,0,312.21,235h10.73l2.08-3.61-2.11-3.64Z"/><path class="cls-1" d="M395.58,293.1,380,320.19a22.24,22.24,0,0,1-19.14,11.05H312.2a22.14,22.14,0,0,1-19.1-11.05L277.45,293.1l-5.75-10,5.78-10,15.62-27.06a22.14,22.14,0,0,1,19.1-11h10.73l2.08-3.61-2.11-3.64H312.2a29.53,29.53,0,0,0-25.4,14.66l-17.7,30.7-5.78,10,5.75,10,17.73,30.73a29.43,29.43,0,0,0,25.4,14.66h48.62a29.48,29.48,0,0,0,25.43-14.66L404,293.1h-8.4m8.37-20-17.7-30.7a29.63,29.63,0,0,0-25.43-14.66H350.15L348,231.41l2.08,3.61h10.7a22.25,22.25,0,0,1,19.14,11l15.59,27.06,0,0H404Z"/><path class="cls-1" d="M335,221.4l-17.73-30.73A29.4,29.4,0,0,0,291.82,176H243.2a29.4,29.4,0,0,0-25.4,14.66L194.29,231.4l23.51,40.7a29.4,29.4,0,0,0,25.4,14.66h14.92L256,283.12l2.11-3.64H243.2a22.11,22.11,0,0,1-19.1-11L202.7,231.4l21.4-37.09a22.11,22.11,0,0,1,19.1-11h48.62a22.11,22.11,0,0,1,19.1,11l15.62,27.09,5.78,10-5.75,10-15.65,27.09a22.11,22.11,0,0,1-19.1,11h-10.7L279,283.12l2.11,3.64h10.7a29.4,29.4,0,0,0,25.4-14.66L335,241.37l5.75-10-5.78-10Z"/><path class="cls-1" d="M455.25,190.67A29.43,29.43,0,0,0,429.85,176H414.93l2.11,3.64-2.11,3.64h14.92a22.11,22.11,0,0,1,19.1,11l21.4,37.09L449,268.46a22.11,22.11,0,0,1-19.1,11H381.23a22.11,22.11,0,0,1-19.1-11l-15.65-27.12-5.75-9.94,5.75-10,15.65-27.12a22.11,22.11,0,0,1,19.1-11H391.9l2.11-3.64L391.9,176H381.23a29.4,29.4,0,0,0-25.4,14.66l-17.76,30.76-5.75,10,5.75,9.94,17.76,30.76a29.4,29.4,0,0,0,25.4,14.66h48.62a29.43,29.43,0,0,0,25.4-14.66l23.51-40.7-23.51-40.73Z"/><path class="cls-1" d="M419.08,254.28l3.17-.85-2.14-8,6.23-10.79,6.23,10.79-2.14,8,3.17.85,1.29-4.81,3.29,5.7,2.84-1.64-3.29-5.7,4.81,1.29.85-3.17-8-2.14L429.18,233h12.46l5.84,5.84,2.32-2.32L446.28,233h6.58v-3.28h-6.58l3.52-3.52-2.32-2.32-5.84,5.84H429.18L435.41,219l8-2.14-.85-3.17-4.81,1.29,3.29-5.7-2.84-1.64-3.29,5.7-1.29-4.81-3.17.85,2.14,8-6.23,10.79-6.23-10.79,2.14-8-3.17-.85-1.29,4.81-3.29-5.7-2.84,1.64,3.29,5.7-4.81-1.29-.85,3.17,8,2.14,6.23,10.79H411l-5.84-5.84-2.32,2.32,3.52,3.52h-6.58V233h6.58l-3.52,3.52,2.32,2.32L411,233H423.5l-6.23,10.79-8,2.14.85,3.17,4.81-1.29-3.29,5.7,2.84,1.64,3.29-5.7Z"/><path class="cls-1" d="M358.25,172.56c-1.39-.19-4.09-1.21-4.27-3.16s5.48-3.72,5.48-3.72a3,3,0,0,1-1.58-2.88c0-2.39,4.92-7.25,4.92-7.25a19,19,0,0,1-6.91,1.3,9.42,9.42,0,0,1-4.79-1.3C346.36,158.43,344,159,344,159a4.71,4.71,0,0,1,1-3.16,13.45,13.45,0,0,0,1.67-2.69l-.74-.09c-.37-.74,1.95-4.83,1.95-4.83a4.15,4.15,0,0,1-4.18-.28c-1.3-1-.56-4.37-.56-4.37a3.1,3.1,0,0,1-2.79-1.39c-1-1.18-2.34-5.79-2.41-6h0c-.07.25-1.42,4.86-2.41,6a3.05,3.05,0,0,1-2.79,1.39s.74,3.33-.56,4.37a4.15,4.15,0,0,1-4.18.28s2.32,4.09,1.95,4.83l-.74.09a13.45,13.45,0,0,0,1.67,2.69,4.71,4.71,0,0,1,1,3.16s-2.32-.56-7.06-3.44a9.46,9.46,0,0,1-4.79,1.3,19,19,0,0,1-6.91-1.3s4.88,4.86,4.92,7.25a2.94,2.94,0,0,1-1.58,2.88s5.67,1.76,5.48,3.72-2.88,3-4.27,3.16a1.77,1.77,0,0,1-.65,2.23,26.79,26.79,0,0,1-3.72,2.41,36,36,0,0,1,5.67.28,4.78,4.78,0,0,1,2.6,1.39s3.72-.84,4.64.19l-.28.56h1.3s.84,1.86-1.3,4.46c0,0,5.94-3.62,8-4.55a9.92,9.92,0,0,1,3.17-1s-.34,6.69-.38,7.67c0,.66-.08,1.11.63,1.11h1.16c.7,0,.66-.46.63-1.11,0-1-.38-7.67-.38-7.67a10,10,0,0,1,3.17,1c2,.93,8,4.55,8,4.55-2.14-2.6-1.3-4.46-1.3-4.46H350l-.28-.56c.93-1,4.64-.19,4.64-.19a4.78,4.78,0,0,1,2.6-1.39,36,36,0,0,1,5.67-.28,27.43,27.43,0,0,1-3.72-2.41,1.77,1.77,0,0,1-.65-2.23Z"/><path class="cls-1" d="M340.05,323.39a16.78,16.78,0,0,0,4.17-6,16.64,16.64,0,0,0,7.22,1.32,5.44,5.44,0,0,0,5.43-5.43,16.72,16.72,0,0,0-1.32-7.22,16.58,16.58,0,0,0,6-4.17,5.43,5.43,0,0,0,0-7.68,16.78,16.78,0,0,0-6-4.17,16.64,16.64,0,0,0,1.32-7.22,5.44,5.44,0,0,0-5.43-5.43,16.75,16.75,0,0,0-7.22,1.32,16.7,16.7,0,0,0-4.17-6,5.43,5.43,0,0,0-7.68,0,16.78,16.78,0,0,0-4.17,6,16.64,16.64,0,0,0-7.22-1.32,5.44,5.44,0,0,0-5.43,5.43,16.75,16.75,0,0,0,1.32,7.22,16.58,16.58,0,0,0-6,4.17,5.43,5.43,0,0,0,0,7.68,16.78,16.78,0,0,0,6,4.17,16.64,16.64,0,0,0-1.32,7.22,5.44,5.44,0,0,0,5.43,5.43,16.75,16.75,0,0,0,7.22-1.32,16.7,16.7,0,0,0,4.17,6,5.43,5.43,0,0,0,7.68,0Zm13.34-10.15a2,2,0,0,1-1.95,1.95,13.25,13.25,0,0,1-6.29-1.24,16.24,16.24,0,0,0-.59-7.59,16.24,16.24,0,0,0,7.59.59,13.31,13.31,0,0,1,1.24,6.29Zm-21-15.23a3.79,3.79,0,1,1,3.79,3.79,3.79,3.79,0,0,1-3.79-3.79Zm26.13-1.95.57.57a2,2,0,0,1,0,2.76l-.57.57a12.73,12.73,0,0,1-16,1.59,7.42,7.42,0,0,0,.71-1.8h3.78a1.74,1.74,0,0,0,0-3.48h-3.78a7.42,7.42,0,0,0-.71-1.8,12.72,12.72,0,0,1,16,1.59Zm-7.11-15.23a2,2,0,0,1,1.95,1.95,13.23,13.23,0,0,1-1.24,6.29,16.25,16.25,0,0,0-7.59.59,16.24,16.24,0,0,0,.59-7.59,13.31,13.31,0,0,1,6.29-1.24Zm-16.61-5.73a2,2,0,0,1,2.76,0l.57.57a12.73,12.73,0,0,1,1.59,16A7.42,7.42,0,0,0,338,291v-3.78a1.74,1.74,0,1,0-3.48,0V291a7.42,7.42,0,0,0-1.8.71,12.72,12.72,0,0,1,1.59-16l.57-.57ZM319,282.78a2,2,0,0,1,2-1.95,13.25,13.25,0,0,1,6.29,1.24,16.27,16.27,0,0,0,.59,7.59,16.24,16.24,0,0,0-7.59-.59,13.31,13.31,0,0,1-1.24-6.29ZM313.87,300l-.57-.57a2,2,0,0,1,0-2.76l.57-.57a12.73,12.73,0,0,1,16-1.59,7.42,7.42,0,0,0-.71,1.8h-3.78a1.74,1.74,0,0,0,0,3.48h3.78a7.42,7.42,0,0,0,.71,1.8,12.72,12.72,0,0,1-16-1.59ZM321,315.19a2,2,0,0,1-2-1.95,13.23,13.23,0,0,1,1.24-6.29,16.24,16.24,0,0,0,7.59-.59,16.13,16.13,0,0,0-.59,7.59,13.31,13.31,0,0,1-6.29,1.24Zm13.85,5.74-.57-.57a12.73,12.73,0,0,1-1.59-16,7.42,7.42,0,0,0,1.8.71v3.78a1.74,1.74,0,0,0,3.48,0v-3.78a7.42,7.42,0,0,0,1.8-.71,12.72,12.72,0,0,1-1.59,16l-.57.57a2,2,0,0,1-2.77,0h0Z"/><path class="cls-1" d="M169.84,485.43s-28.25-7.57-33-8.82-34-16.46-34-35.22,20.27-34.93,39.24-34.93,25.74,4.69,35.13,14.08,15.59,23.81,15.59,39.51h3.84V407.42H192.8a3.33,3.33,0,0,1-4.51,3.13c-9.22-3.4-22.16-7.93-46.21-7.93-28.25,0-55,18.19-55.52,51.21a50.26,50.26,0,0,0,36.37,48.3l35.84,9.66a2.09,2.09,0,0,1-.33-.07c1.15.31,4.11,1.09,5.77,1.51.24.07.49.11.76.2a1.35,1.35,0,0,1,.33.09.3.3,0,0,1,.13,0,38.72,38.72,0,0,1,23.23,16.54l9-27a55.61,55.61,0,0,0-27.87-17.7Zm-20.58,106.7c-15.79,0-34.44-6.71-48.32-20.59l-.36-.33a46.24,46.24,0,0,1-13.52-32.69H83.22v52.65h3.84a3.22,3.22,0,0,1,4.31-3c16.1,5.82,40.39,7.82,57.89,7.82a70.59,70.59,0,0,0,18.12-2.35l2.07-6.11a47.93,47.93,0,0,1-20.19,4.64Z"/><path class="cls-1" d="M335.66,537.67l-42.74-134H246.5v3.83h17.25L201.52,591.24h-22v3.83h47.85v-3.83h-22l18.15-53.6,1.31-3.83,40.92-120.95,38.88,120.95H242.79l-1.31,3.83h64.38v0h29.8Z"/><path class="cls-1" d="M450.19,403.66v3.83h22L422.94,553.35l-45-145.86h19.14v-3.83H329.12v3.83h19.14l20.22,63.22-24.6,72.93-3.26,9.68H312.57L326.24,596h3.83l12.78-38.62,4.66-13.77,21.88-64.47.93-2.72L408.56,596h3.8l12.78-38.62L476,407.48h22v-3.83H450.19Z"/><path class="cls-1" d="M548.67,485.43s-28.22-7.57-33-8.82c-2.58-.67-12.19-5.37-20.54-12.48l-9.93,29.62a49.36,49.36,0,0,0,16.61,8.37l37.66,10.15-2.58-.67c.59.18,4.28,1.15,6.21,1.64l-.75-.22c.47.13.95.24,1.47.4a1.35,1.35,0,0,1,.33.09.3.3,0,0,1,.13,0c16.85,4.42,29.29,18.39,29.29,38.15,0,23.49-23.65,40.44-45.46,40.44-15.79,0-34.46-6.71-48.34-20.59l-.33-.33a46.37,46.37,0,0,1-13.54-32.68h-3.82v52.65h3.82a3.23,3.23,0,0,1,4.31-3c16.1,5.82,40.42,7.82,57.92,7.82,33.49,0,61.73-23,61.73-56.69a55.79,55.79,0,0,0-41.17-53.83ZM556,420.54c9.39,9.37,15.61,23.81,15.61,39.51h3.82V407.42h-3.82a3.34,3.34,0,0,1-4.51,3.13c-9.22-3.4-22.16-7.93-46.23-7.93-1.75,0-3.53.07-5.26.22l-1.44,4.29a34.7,34.7,0,0,1,6.71-.67c19,0,25.76,4.69,35.13,14.08Z"/><line class="cls-1" x1="340.63" y1="553.33" x2="342.84" y2="557.41"/><line class="cls-1" x1="368.47" y1="470.72" x2="370.31" y2="476.46"/><path class="cls-1" d="M249.75,211.41l.93-6.47.93,6.47-.74,0h-.38l-.74,0Z"/><path class="cls-1" d="M241.53,213.88l-.63.4-2.43-6.06,4.06,5.13c-.21.11-.44.21-.65.34l-.34.19Z"/><path class="cls-1" d="M258.84,213.35l4.06-5.13-2.43,6.06c-.19-.13-.4-.25-.61-.38a3.13,3.13,0,0,0-.36-.19,5.26,5.26,0,0,0-.65-.36Z"/><path class="cls-1" d="M235.05,220.54a4.73,4.73,0,0,0-.36.66l-5.13-4.06,6.06,2.43c-.13.21-.27.42-.38.63a1.45,1.45,0,0,0-.19.34Z"/><path class="cls-1" d="M265.75,219.56l6.06-2.43-5.11,4c-.13-.21-.23-.42-.36-.63l-.19-.34c-.13-.21-.25-.42-.4-.63Z"/><path class="cls-1" d="M268.67,229.16c0-.25,0-.49,0-.74l6.45.93-6.45.93c0-.25,0-.49,0-.74v-.38Z"/><path class="cls-1" d="M232.72,229.54c0,.25,0,.49,0,.74l-6.47-.93,6.47-.93c0,.25,0,.49,0,.74v.38Z"/><path class="cls-1" d="M266.34,238.16c.13-.21.23-.42.36-.63l5.11,4-6.06-2.43c.15-.21.27-.42.4-.63l.19-.34Z"/><path class="cls-1" d="M235.62,239.13l-6.06,2.43,5.13-4.06a6.21,6.21,0,0,0,.36.66,1.45,1.45,0,0,0,.19.34c.11.21.25.42.38.63Z"/><path class="cls-1" d="M259.85,244.79c.21-.13.42-.25.61-.38l2.43,6.06-4.06-5.13a5.26,5.26,0,0,0,.65-.36,3.13,3.13,0,0,0,.36-.19Z"/><path class="cls-1" d="M250.87,247.31l.74,0-.93,6.47-.93-6.47.74,0Z"/><path class="cls-1" d="M242.53,245.34l-4.06,5.13,2.43-6.06.63.4.34.19c.21.13.44.23.65.34Z"/><path class="cls-1" d="M260.47,244.41c-.19.13-.4.25-.61.38l.51,1.29-.87-1.1a5.26,5.26,0,0,1-.65.36c-.23.13-.44.23-.68.34l7.27,9.21L261.09,244a5.24,5.24,0,0,1-.61.44Zm-17.94.93c-.21-.11-.44-.21-.65-.34l-.85,1.08.51-1.27-.63-.4c-.21-.15-.42-.27-.61-.42L236,254.89l7.27-9.21-.68-.34Zm7.22,1.95c-.25,0-.49,0-.74,0l1.67,11.58,1.69-11.6-.76.06-.74,0-.19,1.37-.19-1.37-.74,0Zm-14.13-8.16c-.13-.21-.27-.42-.38-.63L234,239l1.08-.85a4.73,4.73,0,0,1-.36-.66,4.45,4.45,0,0,1-.32-.66l-9.21,7.25L236,239.74c-.15-.19-.27-.4-.42-.61Zm30.72-1,1.08.85-1.27-.51c-.13.21-.25.42-.4.63a6.58,6.58,0,0,1-.42.61l10.9,4.35L267,236.84l-.32.68c-.13.21-.23.42-.36.63Zm-33.62-8.62-1.37-.19,1.37-.19c0-.25,0-.49,0-.74s0-.49,0-.74l-11.58,1.67L232.78,231c0-.25,0-.49,0-.74s0-.49,0-.74Zm36-.38,1.35.19-1.35.19c0,.25,0,.49,0,.74s0,.49,0,.74l11.56-1.67-11.56-1.67c0,.25,0,.49,0,.74s0,.49,0,.74Zm-2.92-9.6c.15.21.27.42.4.63l1.27-.51-1.08.85c.13.21.23.42.36.63l.32.68,9.21-7.25-10.9,4.35a5.08,5.08,0,0,1,.42.61Zm-30.7,1-1.08-.85,1.27.51c.11-.21.25-.42.38-.63a6.76,6.76,0,0,1,.44-.61l-10.9-4.35,9.21,7.25a4.42,4.42,0,0,1,.32-.66,6.21,6.21,0,0,1,.36-.66Zm23.79-7.19a5.26,5.26,0,0,1,.65.36l.87-1.1-.51,1.29c.21.13.42.25.61.38s.42.27.61.42l4.35-10.9L258.15,213l.68.34Zm-17.94.93.63-.4-.51-1.27.85,1.08c.21-.13.44-.23.65-.34s.44-.23.68-.34l-7.27-9.21,4.35,10.9c.19-.15.4-.27.61-.42Zm8.85-2.87.74,0,.19-1.37.19,1.37.74,0,.76.06-1.69-11.6L249,211.45c.25,0,.49,0,.74,0Zm.94,34.57a16.63,16.63,0,1,1,16.63-16.63A16.63,16.63,0,0,1,250.69,246Z"/></svg>