<svg id="Layer_1" data-name="Layer 1" xmlns="http://www.w3.org/2000/svg" viewBox="0 0 673.06 720.33"><defs><style>.cls-1,.cls-2{isolation:isolate;}.cls-2{font-size:62.28px;font-family:ArialMT, Arial;}.cls-2,.cls-3{fill:#676767;}</style></defs><g class="cls-1"><text class="cls-2" transform="translate(101.19 543.43)">KAI LIFE CLINIC</text></g><path class="cls-3" d="M537.69,157.72c-4.2.23-8.41.35-12.58.7-18.07,1.5-30.68,9.09-38.78,20.63-10.27,14.64-19.66,29.63-29.39,44.48-13.34,20.36-26.44,40.8-40,61.06-8.23,12.26-21.71,19.72-40,22.17-.43.06-.85.19-2.05.46a16.8,16.8,0,0,0,2.8,1.06c19.26,3,32.49,11.44,41,24.5q27.18,41.93,54.68,83.74c5,7.62,9.51,15.49,15.54,22.64C498,450,511.11,456.76,529.13,457c2.88,0,5.75.4,8.63.61,0,.23,0,.47,0,.7-.93.08-1.85.23-2.78.23-30,0-60,.38-90.06-.17-22-.4-38.2-8.8-47.88-23.38-22.66-34.18-44.89-68.51-67.31-102.78-10.36-15.83-27.12-24.38-51-24.79a7.18,7.18,0,0,1-1-.1,7.44,7.44,0,0,1-1.1-.54c1.8-.15,2.91-.29,4-.34,7.74-.36,15.52-.36,22.66-3.21,11.66-4.66,20.53-11.24,26.34-20.14,22.44-34.35,44.74-68.76,67.55-103,10-14.94,26.66-23.13,49.35-23.33,29.55-.26,59.1-.06,88.65,0,.86,0,1.72.15,2.58.23,0,.24,0,.48-.07.71"/><path class="cls-3" d="M282.89,185.39a28.71,28.71,0,1,1-28.71-28.71,28.71,28.71,0,0,1,28.71,28.71"/><path class="cls-3" d="M199.58,458.66c32.49-3.42,51.22-16.7,55.18-41.27,4.1,24.27,22.56,37.87,55,41.27Z"/></svg>