<svg id="Layer_1" data-name="Layer 1" xmlns="http://www.w3.org/2000/svg" viewBox="0 0 673.06 720.33"><defs><style>.cls-1{fill:#676767;}</style></defs><path class="cls-1" d="M105,515.34a15.68,15.68,0,0,1-2.08,8.1A15,15,0,0,1,97.11,529a17.28,17.28,0,0,1-8.44,2,16.43,16.43,0,0,1-8.09-2,15.27,15.27,0,0,1-5.74-5.54,15.46,15.46,0,0,1-2.11-8.09V488.74h-10v26.89A25.93,25.93,0,0,0,66,528.57a23.09,23.09,0,0,0,9.09,8.95,27.74,27.74,0,0,0,13.6,3.24,27.84,27.84,0,0,0,13.64-3.24,23.14,23.14,0,0,0,9.06-8.95,26,26,0,0,0,3.21-12.94V488.74H105v26.61Z"/><path class="cls-1" d="M191.43,514.42l-.18-1H161v9.76h19.68a7.27,7.27,0,0,1-2.35,3.34,18.42,18.42,0,0,1-6.79,3.45,34.31,34.31,0,0,1-9.7,1.28,30,30,0,0,1-7.8-1,21,21,0,0,1-6.61-3,14.58,14.58,0,0,1-4.51-5.13,16,16,0,0,1-1.65-7.51,13.63,13.63,0,0,1,2.71-8.31,19.13,19.13,0,0,1,7.54-5.91,27.25,27.25,0,0,1,20.33-.47,34.29,34.29,0,0,1,8.14,4.54l.88.67,6.36-7.17-.72-.79a21.74,21.74,0,0,0-5.75-4.32,36.82,36.82,0,0,0-8.27-3.19,39.87,39.87,0,0,0-10.17-1.23,37.7,37.7,0,0,0-12.29,2,32.08,32.08,0,0,0-10,5.5,26.16,26.16,0,0,0-6.76,8.31,22.58,22.58,0,0,0-2.45,10.41,25.63,25.63,0,0,0,2.48,11.52A23.84,23.84,0,0,0,140,534.4a29.9,29.9,0,0,0,9.72,5A38.89,38.89,0,0,0,161.17,541a44.22,44.22,0,0,0,15.51-2.5,24,24,0,0,0,10.48-7.14,20.67,20.67,0,0,0,3.25-6,22.14,22.14,0,0,0,1.3-7.57c0-.55,0-1.12-.08-1.71s-.12-1.18-.22-1.73"/><polygon class="cls-1" points="208.28 540.33 251.47 540.33 251.47 530.64 218.26 530.64 218.26 518.78 247.6 518.78 247.6 509.09 218.26 509.09 218.26 498.49 251.47 498.49 251.47 488.8 208.28 488.8 208.28 540.33"/><polygon class="cls-1" points="315.46 525.43 279.17 488.8 269.95 488.8 269.95 540.33 279.93 540.33 279.75 504.52 316.14 540.33 325.49 540.33 325.49 488.8 315.51 488.8 315.46 525.43"/><path class="cls-1" d="M378.83,502.69a20,20,0,0,1,6.06-3.31,21.34,21.34,0,0,1,6.91-1.17,24.74,24.74,0,0,1,10,1.93,35.51,35.51,0,0,1,8.15,5l1,.81,5.82-8.28-.74-.71a26.54,26.54,0,0,0-5.92-4.12,39.66,39.66,0,0,0-8.14-3.19,35.78,35.78,0,0,0-9.44-1.23,32.87,32.87,0,0,0-11.22,1.93,30.65,30.65,0,0,0-9.46,5.44,25.78,25.78,0,0,0-6.51,8.31,23.42,23.42,0,0,0-2.37,10.5,25.68,25.68,0,0,0,2.29,10.93,24.58,24.58,0,0,0,6.35,8.37,28.93,28.93,0,0,0,9.41,5.31A35.13,35.13,0,0,0,392.52,541a33.76,33.76,0,0,0,9.61-1.35,40.13,40.13,0,0,0,13.48-6.93l.78-.64-4.83-8.35-1.08.79c-1.37,1-2.93,2.05-4.63,3.11a26.15,26.15,0,0,1-5.64,2.58,23,23,0,0,1-7.14,1,26.12,26.12,0,0,1-7.56-1.08,19.68,19.68,0,0,1-6.43-3.2,15.91,15.91,0,0,1-4.41-5.23,15.35,15.35,0,0,1-1.62-7.2,14.41,14.41,0,0,1,1.55-6.75,16.08,16.08,0,0,1,4.22-5.13"/><path class="cls-1" d="M451.36,488.8l-25.17,51.53h10.66l5.62-11.51H470.1l5.62,11.51h11l-25-51.53Zm-4.14,30.32,8.26-17c.26-.55.53-1.13.79-1.72.25.54.49,1.05.74,1.55l1.9,3.89,6.45,13.3H447.22Z"/><path class="cls-1" d="M541.22,517.69h0a17.86,17.86,0,0,0,4.41-5.57,15.88,15.88,0,0,0-.72-15.36,17.11,17.11,0,0,0-6.22-5.81,17.4,17.4,0,0,0-8.55-2.15H500.23v51.53h10V522.22h15.06l13.61,18.1,12.49.09-14.9-19.76a19,19,0,0,0,4.76-3m-8.77-6.21a9.28,9.28,0,0,1-4.42,1H510.2v-14H528a10.57,10.57,0,0,1,4.48.94,8.71,8.71,0,0,1,3.18,2.46,5,5,0,0,1,1.11,3.19,6.16,6.16,0,0,1-1.15,3.6,9,9,0,0,1-3.2,2.79"/><polygon class="cls-1" points="610.3 498.49 610.3 488.8 567.13 488.8 567.13 540.33 610.3 540.33 610.3 530.64 577.11 530.64 577.11 518.78 606.45 518.78 606.45 509.09 577.11 509.09 577.11 498.49 610.3 498.49"/><path class="cls-1" d="M170.58,568h10.06c6.11,0,8.86,2.63,8.86,7a5.42,5.42,0,0,1-4.56,5.57v0a5.86,5.86,0,0,1,5.22,5.84c0,4.37-3.29,7.08-9.36,7.08H170.59V568Zm9.75,11c3.25,0,4.88-1.24,4.88-3.75s-1.63-3.75-4.88-3.75h-5.69V579Zm.66,11.1c3.25,0,4.86-1.39,4.86-3.83s-1.61-3.83-4.86-3.83h-6.34v7.66Z"/><polygon class="cls-1" points="205.38 583.77 205.38 593.56 201.25 593.56 201.25 583.77 192.16 568.03 196.76 568.03 201.32 576.23 203.34 580.06 205.35 576.23 209.88 568.03 214.51 568.03 205.38 583.77"/><path class="cls-1" d="M250.55,581c0,8.2-4.68,12.77-12.7,12.77h-9V568.2h9c8,0,12.7,4.57,12.7,12.76m-4.33,0c0-5.88-3-9.24-8.36-9.24H233v18.49h4.87c5.38,0,8.36-3.36,8.36-9.25"/><path class="cls-1" d="M266.29,583.51H260.8v10.21h-4.1V568.19h10.41c5.49,0,8.93,2.87,8.93,7.66a7.08,7.08,0,0,1-5.41,7.2l6.92,10.68h-4.76l-6.5-10.21Zm-5.49-3.44h5.95c3.36,0,5-1.36,5-4.18s-1.63-4.18-5-4.18H260.8Z"/><path class="cls-1" d="M287.17,591.29a2.68,2.68,0,0,1-2.9,2.82,2.72,2.72,0,0,1-2.94-2.82,2.69,2.69,0,0,1,2.94-2.78,2.65,2.65,0,0,1,2.9,2.78"/><path class="cls-1" d="M322.15,580.37v13.19h-3.06l-.11-3.25c-1.47,2.28-4.06,3.63-7.81,3.63-7.16,0-11.84-5-11.84-13.15s4.8-13.15,12.15-13.15c5.3,0,8.54,1.9,10.52,6l-3.79,1.82c-1-2.82-3.44-4.25-6.65-4.25-4.79,0-7.89,3.48-7.89,9.55s2.75,9.59,8,9.59c3.87,0,6.85-1.93,6.85-5.88v-.73h-7.82v-3.41h11.48Z"/><polygon class="cls-1" points="347.79 590 347.79 593.56 328.75 593.56 328.75 568.03 347.25 568.03 347.25 571.59 332.89 571.59 332.89 578.94 344.12 578.94 344.12 582.42 332.89 582.42 332.89 590 347.79 590"/><polygon class="cls-1" points="374.27 568.03 374.27 593.56 370.11 593.56 370.11 582.42 357.5 582.42 357.5 593.56 353.36 593.56 353.36 568.03 357.5 568.03 357.5 578.86 370.11 578.86 370.11 568.03 374.27 568.03"/><path class="cls-1" d="M396.24,586.87H385.49l-2.44,6.69h-4.26L388.42,568h5L403,593.56h-4.37l-2.4-6.69ZM395,583.5l-2.94-8.2-1.16-3.67h-.12l-1.08,3.6-3,8.28H395Z"/><path class="cls-1" d="M429.24,580.8c0,8.2-4.68,12.77-12.69,12.77h-9V568h9c8,0,12.69,4.57,12.69,12.76m-4.33,0c0-5.88-3-9.24-8.36-9.24h-4.87v18.49h4.87c5.38,0,8.36-3.36,8.36-9.25"/><path class="cls-1" d="M336.54,145.26A136.21,136.21,0,1,1,200.32,281.47,136.2,136.2,0,0,1,336.54,145.26m0-4.76a141,141,0,1,0,99.68,41.29,140.07,140.07,0,0,0-99.68-41.29"/><path class="cls-1" d="M336.54,135.74A145.73,145.73,0,1,1,190.81,281.47,145.73,145.73,0,0,1,336.54,135.74m0-9.52A155.24,155.24,0,1,0,446.3,171.69a154.24,154.24,0,0,0-109.76-45.47"/><polygon class="cls-1" points="341 383.96 388.63 281.8 329.13 281.8 281.5 383.96 341 383.96"/><polygon class="cls-1" points="461 126.63 401.49 126.63 335.62 267.92 296.56 203.77 237.06 203.77 284.5 281.8 344.01 281.8 388.63 281.8 461 126.63"/></svg>