<svg id="Layer_1" data-name="Layer 1" xmlns="http://www.w3.org/2000/svg" viewBox="0 0 673.06 720.33"><defs><style>.cls-1{fill:#676767;}</style></defs><path class="cls-1" d="M346.21,337.78v-4.32q0-46.48,0-93c0-2.39.74-2.93,3-2.93q43.65.09,87.3,0a2.74,2.74,0,0,1,2.74,2.75c-.08,19.24-.11,38.49,0,57.72,0,4.67-4.82,5-6,10.46-3,14.14-12.81,25.95-25,33.66-24.08,15.19-31.06,16.06-30.93,23.75.14,8.05.05,16.1.71,24.4,3.67-4.69,7.36-9.36,11-14.06,5.42-7,10.68-14.09,16.28-20.93,2-2.42,3.35-5.5,2.82-8.58-.46-2.68.58-4.52,2.52-6.42,8.47-8.25,16.74-16.7,25.09-25.05.9-.92,1.88-1.74,2.84-2.61,1,.84.56,1.78.56,2.56,0,14.78,0,29.57.05,44.35a7.21,7.21,0,0,1-1.54,4.8q-35.61,45.9-71.11,91.9-8.64,11.17-17.25,22.35c-.79,1-1.4,2.2-2.61,2.85-.76-.91-.38-1.94-.38-2.88q0-63.36-.08-126.71a6.06,6.06,0,0,1,1.78-4.29c19.33-19.28,38.58-38.65,57.93-57.9a7.84,7.84,0,0,0,2.25-6c-.2-3.95-.13-7.92,0-11.88.1-3.18-1.34-3.56-7.72-2.21a39.53,39.53,0,0,1-16.53-.16c-5.9-1.26-6.63-.56-6.61,2.15.07,10.84,0,21.68,0,32.53,0,1.31.15,2.6-.94,3.68-9.85,9.78-19.69,19.58-30.18,30Z"/><path class="cls-1" d="M329.79,481.74c-2.67-3.43-5.27-6.74-7.85-10.06-7.11-9.18-14.17-18.37-21.35-27.49a7.19,7.19,0,0,1-1.44-4.84c0-24.53,0-49.06.08-73.6a7.61,7.61,0,0,0-2.54-6c-8.36-8.21-16.56-16.55-24.88-24.8-.8-.79-1.5-2.47-2.71-2-1.4.59-.6,2.32-.6,3.52q-.06,31,0,62.1c0,1-.09,1.93-.18,3.63-3.34-4.25-6.29-8-9.18-11.7-6.76-8.74-13.46-17.53-20.27-26.24a6.78,6.78,0,0,1-1.52-4.49q.06-59.48,0-118.94c0-2.55.62-3.36,3.26-3.35q43.38.13,86.75,0c2.45,0,3.14.68,3.14,3.16q-.09,118.77-.06,237.55c0,1,.38,2.18-.62,3.49ZM298.35,317.43l.84-.37q0-23.24,0-46.49c0-1.25-.53-1.73-1.77-1.73q-13.46,0-26.9,0c-1.25,0-2,.31-2.08,1.83-.4,9.6-1.39,19.37,8.68,25.38a1,1,0,0,1,.22.24l21,21.11Z"/><path class="cls-1" d="M247.54,188.22l20.14,31.84,149,.87,23.44-36s-16.1,10.52-25.74,8.84c0,0-15.73-.7-4.47-42.05,0,0-23.86,45.5-49.76,26.31a10.05,10.05,0,0,1-3.46-5.06l-12-36.78h-4.22s-6.57,65.37-41.23,41.22a38,38,0,0,1-8.95-9.12l-12.53-17.44s17.44,66.8-30.21,37.42Z"/><circle class="cls-1" cx="339.76" cy="123.25" r="12.91"/><circle class="cls-1" cx="413.97" cy="139.38" r="9.68"/><circle class="cls-1" cx="439.79" cy="178.11" r="9.68"/><circle class="cls-1" cx="278.45" cy="139.38" r="9.68"/><circle class="cls-1" cx="246.18" cy="184.56" r="9.68"/><path class="cls-1" d="M114.93,576.31c0-20.46,14.52-33.68,32.1-33.68,13.14,0,24.24,7.21,28.59,19h-8.51c-3.79-7.21-11.19-11.65-20.08-11.65-13.51,0-24.15,10.64-24.15,26.37s10.64,26.37,24.15,26.37c9.25,0,16.94-4.83,20.63-12.6h8.51C171.91,602.39,160.44,610,147,610c-17.58,0-32.1-13.22-32.1-33.68Z"/><path class="cls-1" d="M186.67,597c0-7.3,4.26-11.19,13-13.51l15.73-4.16v-3.43c0-4.07-3.14-7.21-9.25-7.21-4.62,0-9.16,1.85-10.64,8.14h-8.05c1.76-10.36,9.35-15.08,18.69-15.08,10.45,0,16.66,5.64,16.66,14.15V608.7h-7.41V603c-3.61,5.18-9.72,7-14.43,7-7.77,0-14.25-4.07-14.25-13Zm15.64,6.48c5.74,0,13.05-3.71,13.05-12.41v-5.46l-14.16,3.79c-5,1.39-6.94,3.52-6.94,7.22,0,4.91,3.89,6.85,8.05,6.85Z"/><path class="cls-1" d="M238.79,563h7.4v7.3c4.07-6.28,11-8.59,16.47-8.59v7.77c-8.33-1.2-16.47,2.87-16.47,13.88V608.7h-7.4Z"/><path class="cls-1" d="M300.9,543.93h18c11.84,0,20.27,6.75,20.27,18,0,10.36-7,16.28-17.3,17.3l20.17,29.52h-9l-24.52-35.91h10.36c7.4,0,12.31-3.7,12.31-10.91s-4.91-10.82-12.31-10.82H308.58V608.7H300.9V543.93Z"/><path class="cls-1" d="M348.29,585.84c0-15.72,11.29-24.15,22.95-24.15s22.67,7.77,22.67,24v2.13H355.79c.74,10.09,7.5,15.27,16,15.27,5.27,0,9.81-1.85,12.21-5.55h8.7C388.92,605.83,380.22,610,371.8,610c-12.31,0-23.51-8.42-23.51-24.15Zm37.76-3.7c-1.11-9.9-8.05-14.06-14.81-14.06-7.49,0-13.88,4.9-15.26,14.06Z"/><path class="cls-1" d="M429.56,568.64c-6.47,0-14.62,3.7-14.62,14.71V608.7h-7.4V563h7.4v7.3c4.07-6.28,11-8.59,16.47-8.59,10.08,0,17.76,6.38,17.76,19.43V608.7h-7.4V583.35c0-11-5.55-14.71-12.22-14.71Z"/><path class="cls-1" d="M468.91,596.39V569.65H460.3V563h8.61V551.06h7.4V563h12.4v6.66h-12.4v26.74c0,3.61,1.67,5.65,5.18,5.65h6.94v6.66h-6.94C474,608.7,468.91,604.07,468.91,596.39Z"/><path class="cls-1" d="M499.46,597c0-7.3,4.26-11.19,13-13.51l15.73-4.16v-3.43c0-4.07-3.14-7.21-9.25-7.21-4.62,0-9.16,1.85-10.64,8.14h-8.05c1.76-10.36,9.35-15.08,18.69-15.08,10.45,0,16.66,5.64,16.66,14.15V608.7h-7.41V603c-3.61,5.18-9.72,7-14.43,7-7.77,0-14.25-4.07-14.25-13Zm15.64,6.48c5.74,0,13-3.71,13-12.41v-5.46L514,589.35c-5,1.39-6.94,3.52-6.94,7.22,0,4.91,3.89,6.85,8.05,6.85Z"/><path class="cls-1" d="M550.74,543.93h7.4V608.7h-7.4Z"/></svg>