<svg id="Layer_1" data-name="Layer 1" xmlns="http://www.w3.org/2000/svg" viewBox="0 0 673.06 720.33"><defs><style>.cls-1{fill:#676767;}</style></defs><path class="cls-1" d="M402.86,493.36c-16.77,17.17-27.88,1.58-32.67-15.19-6.44-22.53-8-49.34-15.65-71.1-5.76-16.36-12.29-7.11-15.63,4.23-5.39,18.29-11.56,72.53-22.08,84.05-15.26,16.72-30.76-8.91-37.1-21.06-14.4-27.57-16.57-52.22-21.57-82C253.88,366.71,241.61,347,237.45,322c-8.66-52.07,8.31-101.71,69.29-97.93,13.62.84,21.24,6.31,33.06,9.06,16.41,3.82,24.43-5.33,39.56-8,42.95-7.47,74.23,15.53,79.28,58.42,3.67,31.17-4.36,52.19-14.65,80.34-8.34,22.82-7.51,41.82-12.77,64.72-4,17.33-16.07,52.14-28.36,64.72M383.77,243.48c-1.22-1.2-13.35,7.12-15.84,8.16-13.59,5.67-31.66,4.74-44.82-1.83-3.32-1.66-7.36-5.44-10.38-6.49-1.24-.43-1-1-2.22.57,17.28,23,46.08,27.09,67.81,7.19,1.08-1,6.89-6.19,5.45-7.6m-95.41,15.4c-4.49-3.77-15-2.61-19.91.25-23.07,13.52-12.58,48.29-1.25,66.81.53.86,4.46,6.32,4.79,6.57,3,2.2,8,.5,8.08-3.5.06-3.77-3.66-11.79-4.11-16.88-.82-9.31.17-16.42,5.19-24.28,4.27-6.69,14.09-14.52,11.27-23.35a52,52,0,0,0-4.07-5.61m91.21,204.44c2.85-20.77,2.4-43.16-3.6-63.36-5.23-17.58-14-29.93-34.67-26.73-25.58,4-28.58,55.73-27.42,75.34.24,4.1,1.46,8.87,1.69,13.06,2-1.35,2.31-7.12,2.52-9.69,1.53-19.06,1.54-39.09,9.7-56.85,9.06-19.74,28.54-20.88,38.65-1.6,9.26,21.65,10.28,45.36,11.46,68.57.08,1.63-.09,1.32,1.68,1.25"/><path class="cls-1" d="M482,149.51c34.44,23.16,64.87,55.59,83.64,92.81,2,3.92,9.22,18.2,9.82,21.37.52,2.72-1.33,7.47.38,10.95-3.93-2.28-4-6.5-5.72-9.86-11.34-22.63-21.73-39.34-38.48-58.39-56.94-64.75-148.62-96.86-234.1-79.92C245.88,136.7,188.42,169.31,156,211.53c-60.68,79-73.32,170.58-29.59,262.77,33,69.49,104.89,120.14,180.53,132.82,45,7.55,86.83,1.43,129.05-14.53,6-2.26,12.14-6.09,18.14-8,2.42-.76-.76,2.62,1.65,1.66,5.44-2.17,10.88-6.33,16.43-8.42l-2.51-1.67c3-.09,4.3-2.67,6.42-4.11,9-6.07,21.44-12.59,29.84-19.85,2.24-1.94,3.05-5.25,4.57-6.42s3.81-1.3,5.08-4.16l.84,1.68,29.9-32c.26,1.22-.41,1.87-1,2.8-2.16,3.52-8.27,10.71-11.21,14.06C444.46,630.5,293.93,643.1,187.73,558.47c-124-98.86-121.65-288.51-.4-389.13,8.35-6.93,17.48-12.77,26.57-18.68l2.25-2.37c-1.43-.29-2.21.73-3.28,1.34-6.38,3.63-14.22,8.45-20.23,12.63-16.89,11.75-35.81,31-48.55,46.62-5.21,6.36-10,13-15.12,19.42-1.18-.61-.05-2.21.37-3,6.53-12.39,14.12-22.28,22.94-33.09l1.41.59c1.81-3.54,5.8-5.92,8.28-7.68,3.87-2.75,4.19-8.18,8.26-10.79,1.08-.69,2.15.18,3.4-.68s2.07-3.13,3.35-4.3c23.26-21.39,59.58-39.92,89.91-49.08,27.95-8.44,56.64-15.47,86.17-14.13,46.81,2.11,90.35,17.44,128.91,43.36"/><path class="cls-1" d="M163.09,443.1c-3.05,1.16-2.59-2.74-4.48-2.44-3.82,2.7-17.79,7.1-19.51,10.87-2,4.45,1.85,11,6.72,11,3.32,0,17.68-6.94,18.64-10.14.32-1.07-1-4.81,1.59-4.21,1.35.31,5.27,10.23,6.46,12.08,1,1.58,2.63,2.53,3.61,4l12.27,18.05c-4.25,2.89-9.42.51-13.87.39-6.59-.17-13.23.2-19.83,0-.67.62,2.08,4.53,2.67,5.33,4.5,6.11,6.91,4.89,14.18,4.78l-.56,2.57-9,4.24-16.53-24.49c4-2,7.55-.07,11.33,0,6.78.17,14.36.26,21.11,0,1,0,1.78.13,1.24-1.25-1.17-3-5.74-7.4-9-7.86-1.46-.21-5.59,1.84-6.12-.59-.4-1.84,4.46-3.58,5.89-3.79l-1.69-2.94c-4.18-2-14,5.92-19.13,7-13.16,2.69-21.71-17-11.1-24.56,5.44-3.86,17.79-5.33,16.76-13.14,1.18-.26,1.39.17,2.13.82,1.25,1.09,7,13.65,6.29,14.34"/><path class="cls-1" d="M196.78,353v19.79c8.54,89.15,70.69,148.35,158.89,157.87,1.26.14,5.13-1.69,2.87,2.2-13.89,1.08-29.44-2.19-42.81-6.1-67.58-19.81-118.25-82.39-122.31-153.13-.25-4.4-.7-14.65,0-18.53.37-2.08,1.36-2.34,3.37-2.1"/><path class="cls-1" d="M475.25,230.35A172.91,172.91,0,0,1,512.16,273c18.18,29.6,26.42,63.69,24.92,98.49h-3.36c.68-22-2.17-44.27-9.48-65.08-21.93-62.4-79-106.25-145.09-112.66-1.81-.18-3.67.09-5.48,0v-2.52c.76-.63,17.15,1.37,19.71,1.77,29.86,4.68,58.5,18.13,81.88,37.32"/><path class="cls-1" d="M219.79,433.6c29.82,57.5,88.51,95.23,155.18,91.25,3.66-.22,24.67-4.24,25.66-3.4l0,2.47c-10.59,2.92-21.53,3.17-32.35,4.31-61.26.52-117.8-31.88-147.17-85.39-7.64-13.92-13.56-29.44-15.85-45.2l2.54-.49c1.09.83,4.09,15,5,17.77,1.53,4.75,4.89,14.54,7,18.68"/><path class="cls-1" d="M468.52,236.24c25.2,20.12,50.92,58.22,56.72,90.25a30.36,30.36,0,0,1,0,4.16l-2.1.42c-.92-.49-1-1.25-1.23-2.14-8.88-32.81-22.26-59.27-47.19-82.53-37-34.53-85.8-48.43-136-41.59-2.6.35-6.14,2.79-8.08.33,0-1.4,11.93-3.44,14-3.7,43.79-5.62,89.51,7.4,123.82,34.78"/><path class="cls-1" d="M222.58,199.14c2.26,2.83,4.81,8.78,2,11.7-1,1.41-3.26,1.39-4.49,2.29-4,2.93-9.67,8.46-13.79,12.11-1.06.93-1.61,2.82-3.23,3.95-2.07,1.44-3.78.65-5.55,2-.88,1.14.56,3.52-.57,6.16-1,2.44-6.7,7-8.51,10-1.69,2.78-4.32,11.52-6.61,13-4.16,2.66-12.76-3.41-16.5-5.27-2.35-1.16-8-2.05-9.46-4.86-3-5.62,6.74-1.58,9.07-.65,2.68,1.07,11.07,6.48,13.28,5.31.89-.47,5.43-10.37,6.88-12.54s9.22-9.59,7.34-12.27c-4.68-1-6.11-3.43-8.31-7.25,3.31-3.93,10.19,5,13.44,3.4,1.41-.69,10.87-10.45,10.91-11.77.06-1.72-2.82-7.38-.35-8.06,3.46-.95,2.92,4.74,5.88,5.06.57-2.27-1.46-3.51-1.33-6.33.06-1.34.16-2.12,1.34-2.93l5.47,4.19c.93-5.88-7.65-5.14-5.05-11.79,3.27-.25,6.19,2.12,8.11,4.52"/><path class="cls-1" d="M460.43,525.65a4,4,0,0,1,.17-2.35c5.16-3.64,10.36-7.31,15.4-11.15,2.6-2,6.79-4.33,7.4-6.44,2.78-1.28,5.07-6,8-6.85,4.09-1.21,22.61,2.6,23.83,1.51.26-1.57-1.1-2.44-2.08-3.39a72.94,72.94,0,0,0-6.88-5.76c-3.82-2.18-3.88.92-6.61.73-1.88-2.69,1.68-3.33,2.66-4.5a237.31,237.31,0,0,0,33.17-53.61c.67-.5,7.94,2.66,7.54,4.61-1.72,2.11-4.08.66-6.36,2.07-1.35.83-5.31,6.17-4.22,7.63l8.9,4.68c5-4.67-.43-6.07-.84-10.58l12.63,5.06-1.35,2.37c-3.79-1.7-5.44.93-7,4.06-.33,1.2.64,1.32,1.38,1.78,1.54,1,7.15,3.93,8.64,3.19s4.52-7.55,4.08-9.1c-.92-2.45-5.89-5.81-2.82-8.2l7.64,4.18c.86,1.35-.32,3.63-.91,5.06-3,7.26-8,15-11.79,21.9-2.74.38-.3-3.08-.83-4.26-1.43-3.11-17.7-8.94-21.21-11.61l-2.79,2,5,5c-2,2.29-4.67-.36-7.83.6-1,.31-3.86,2.72-2.72,4.07L538,480.53l7.56-.39a4.67,4.67,0,0,1-.17,1.93c-.2.65-7.16,10.83-7.66,11.28a4.2,4.2,0,0,1-3.11,1.1c-.08-2.24,1.9-4.26-.38-5.93l-15.88-11.17-4.36-.58-1.22,2.94,2.47,8c-.54.55-6.34-3.72-6.73.42,2.74,2.62,18.55,16.26,18.56,18.53a3,3,0,0,1-1.23,2.17c-2.45,1.89-12.47-.59-16.07-.91-4.58-.41-9.32-.14-13.9-.83a56.31,56.31,0,0,0,6.72,7.17c1.64,1.42,5.31,4.68,7.14,4.68.9,0,5.59-1.85,5.5.37,0,.72-9.56,10.17-10.93,8.84l1.55-4.49a7.57,7.57,0,0,0-1.56-2.67,115.19,115.19,0,0,0-12.89-12.77,4.16,4.16,0,0,0-2-1l-5.3,1.55,2.52,6.72c-6.44-2.83-9.39-1.65-14.32,3l6.31,8.78c4.47-1.84,3.94-5.87,3.81-10.06,1.24-1.4,9.27,9.82,9.24,10.53-.14,3.55-7.54-3.67-9.53.62-1.87,4,3.09,6.9,5.31,9.48,3.61-.16,8.24-3.82,8.53-7.58.11-1.39-1.78-7.23.35-7.15,1.17,0,6,6.38,5.36,8.65-.57,2-10.31,8.13-12.71,9.9-3.2,2.37-5.91,6.93-10.76,6.7-.46-1.56,1.28-2,1.49-3.07.56-2.81-7.42-11.26-9.47-13.82-.95-1.19-3.59-6.22-5.17-6.53a22.93,22.93,0,0,1-4.54.68c.44,2.35,5.27,7.78,5.05,8.83-3.14,3.65-5.95-2-9-2.75-9.41-2.17-11.31,5.67-8,13,.65,1.44,6.65,9.95,7.55,10.35,6.47,2.87,14.26-4.09,12.82-10.93h3.36c2.7,16.44-21.67,23.11-29.83,10-4.75-7.61-3.46-18.36,4.13-23.53,4.22-2.86,9.39-1.41,11.88-5.8.83-.24,1.73.75,2,.75"/><path class="cls-1" d="M559.85,415.29c.83.59,10.55-3.45,12.07-4.31,2-1.13,2.77-3.85,5.59-3.25-1,4.46-1,8.6-4.23,12.19l-15.14,4.66c-.29,2.12.08,1.32,1.19,1.75s6.46,2.21,6.84,2.17c1.1-.12,3.35-3.73,5.45-3.09-.73,2.83-3.62,15.81-5.49,16.84-2.14,1.17-.83-4.25-1.39-4.92-.69-1-21.27-7.64-23.07-7.4s-1.51,4.25-4.59,3.06c-1-1,6.87-23.78,8.77-25.33,5.66-4.6,13.9.86,14,7.63m-5.08,9.29c4-8.55-10-14-10-3.44Z"/><path class="cls-1" d="M245.06,192.61c-.46-.33.19-1.7-1.1-1.35,1.2,7.14-2.19,14.05-10.12,13.47-1.17-1.12,7.68-10.27,6.65-13.76-.51-1.73-6.27-3.86-8-3.9-1.94,0-2.66,1.4-4.15,1.66-7,1.26-10.17-7.52-4.19-7.44,4.86.07,9.29,2.2,13.93,3.23-1.77-5.62-6.66-8.41-5-15.16l2.58.52c2.56,5,6.45,12.49,10.17,16.63,4,4.46,5.42,1.28,9,0,5.75-2.12,11.57-4.13,17.33-6.26l1.89-2c.17-9.05-10.52-14.34-7.25-23.21,5.21-.22,4.41,4.17,5.72,7.33,1.76,4.24,7.65,13.51,7.4,17.54-.4,6.5-22.88,11.23-28.07,14.55-2.34.61-4.82-.49-6.68-1.85"/><path class="cls-1" d="M190,527.34c2.13.42,3.61,1.45,5.88.42,2.51-1.13,11-13.64,12.67-16.92l-1.7-6.23c1.78-1.76,9.44,5.22,10.93,6.48l.86,23.84c2,.56,1.42-.53,1.91-1.08,2.27-2.54,6.75-7.25,7.33-10.33-1.59.08-3.28-5.36-1.25-5.42,1,1,12.29,7.65,10.53,9.24-5.57-1.28-10.91,2.15-11,7.59l-2.05,0c-2.19,2.17-6.94,11.06-8.88,12.27-1.79,1.13-5.06-.55-5.06-1.7V520.18c0-.12-1-2.21-1.26-2.11-2.29,2.76-10.55,11.28-9.58,14.57.22.75,4.44,4.14,1.14,4.8-.69.14-10.31-7.2-10.93-8.42-.43-.85.44-1.52.41-1.68-.91-.18-2.2.41-3.16-.21L176.56,516c-1.26-2.47,4-.43,4.55-.53l3-5.36c0-1.14-4.17-6.2-5-6.77-1.71-1.13-4.69,1.13-6.65,1.36l1.6,4.57-2.87,1.18-7.1-8.07,1.14-2.8.95,1.69c7.51,2,23.39-9.59,31.72-9.14,1.26.8,3.63,2.27,2.72,4L188.52,522a29.86,29.86,0,0,1,1.51,5.33m-3.37-21.88,2.53-7.58-6.7,2.57c-1.13,1.67,3,5.88,4.16,5"/><path class="cls-1" d="M461.27,162.61c1.3,3.86-1.52,5.21-2.32,7.37-1.67,4.57-2.67,14.67-5.65,17.93a6.59,6.59,0,0,1-5.81,2.45L423.71,182c-3.47-.65-4.72,2.88-7.14,4.58-6,4.18-10.16,1.49-15.13-2.47l0-2.11c5.07,2,8.39,1.25,13.47,0,.62-4.17-4.88-2.67-4.08-7.77a66.44,66.44,0,0,1,4.5-9.06c1.12-1.34,6-1.34,6.77,0L423.48,176c3.64,1.51,7.56,2.13,11.26,3.47,3.22,1.16,12.46,5.87,15,5,1.13-.39,1.06-1.13,1.36-2,.69-2,1.85-5.07,2.32-6.95,1.3-5.21-.34-14.12,7.79-12.84m-42.94,11.8-1.26-4.19-1.25,1.26,1.27,2.93h1.24Z"/><path class="cls-1" d="M505.07,204.73c.75,3.9-4.83,8.93-3.89,11.82.7,2.12,4.63,4.21,6,5.81s9.31,12.48,10.09,12.68c5.85-1.82,1-10.68,3.84-14.67,2.48-3.51,12.93-.1,16.19,2.2.63,1.26,5.57,2.05,4.79,3.62-2.94,6-11.79-3.13-16-1.74-1.94,1.39,1.13,10.58-4.72,14.67-3,2.11-6,2.66-8.72-.29l-16.42-19.78a12,12,0,0,1-11,4.23c-5.25-.54-8.6-6.16-8.82-11,.64-.72,6.33,4.46,8.17,4.88,2.56.58,9.22.61,11.18-1.11,4.25-3.77-.35-13.38,9.28-11.35"/><path class="cls-1" d="M536,258.38c.61-.83.17-2.57,1.61-3l5.38-.09c.29,4.3-3.32,6-6.49,7.82-2.63,3.46,2.32,16,3.07,20.45l12.61,6c.22,8.61-11.48,10-16.82,5-2.34-3.19.68-4.84.53-6.44-4.28-6.82-4.78-14.9-6.37-22.69-3.47.48-6.91,1.12-10.32-.21-5.37-2.1-4.64-7.47-5.63-12.06l2.05-2.89c1,5,8.76,14.11,14.13,12.51.37-.11,6-4,6.25-4.35m9.52,32.29-4.16-.82-.9,2.48c2.33.69,5,1.87,5-1.66"/><path class="cls-1" d="M153,418.68l-4.61-4c-3.82,2.17-22.09,5.2-23.14,8.71l.09,1.36c2.3,6.19,5.1,8.13,11.65,9.06,1.59,2.12-7.51,4.76-9.54,4.1-2.24-.73-2.21-5.26-2.84-7.3-.85-2.73-7-19.51-6.14-20.39,3.15-1,2.52,2.07,4.2,3,1.89,1,6.24-1.87,8.44-2.57,4.59-1.45,9.53-2.52,14.13-4,.94-.93.29-6.76,2.27-5.72,1.54.81,6.43,16.61,5.48,17.68"/><path class="cls-1" d="M162.51,293.77c-1.17-1.29-1.56-2.9.18-4L174,293.62c6.17-3.9,5.89-16-2.81-15.36-1.26.1-2.47,1.14-3.68,1.27-1.72.18-9.45-1.83-7.81-4,7.33-3.83,23.26-1.91,24.45,8,1.14,9.41-2.4,16.52-12.89,14.57-1.44-.27-7.94-3.33-8.77-4.26"/><path class="cls-1" d="M371.15,177.78c6.7,2.82,19.45-.81,18.52-9.62-.36-3.44-5.72-7.91-.33-11.4l1.64.75c7.21,7.61.5,28.56-10.81,26.85-1.14-.17-10.82-4.94-9-6.57"/><path class="cls-1" d="M355.13,143.25c-.1,5.18.15,10.39.21,15.55,0,1.39.76,2.71.68,4.2-.09,1.7-1.44,10.16-3.82,9.72-1.65-.3-.05-5.79-1.28-7.16,1.2-6.83-5.31-20.37,4.21-22.32"/><path class="cls-1" d="M217,171.89c.14,2.12,4.34-.73,5.05,0,.45,2.67-.83,4.51-3.1,5.77-2,.75-2.79-2-4.35-2.94-1-4.15,1.62-8.63,4.91-4.1Z"/><path class="cls-1" d="M507.33,191.34c2.76-.68,5.46,3.63,2.21,5.65-5.66,3.53-5.73-4.77-2.21-5.65"/><path class="cls-1" d="M152.55,279.14c6-.05,1.81,11-3.74,3.41-.27-1.29,2.59-3.4,3.74-3.41"/><path class="cls-1" d="M333.14,157.66c3.88,9.18,6.14,23.87-7.11,26-14.88,2.34-15.46-11.6-9.66-21.45l1.7,0c1.52,2.12-2.79,9.69-.07,13.37,3.2,1,2.29,2.7,6.17,2,14.92-2.69,4.85-9.4,4.8-14.5,0-1.68,1.13-3.63.94-5.47l3.23.06Z"/><path class="cls-1" d="M321.52,148.37c2.55-1.73,7.61,3.23,3.3,5.41-5,2.53-4.8-4.39-3.3-5.41"/><path class="cls-1" d="M179.9,214.87l.49,4.22c-6.67,5.38-8.47-5.88-.49-4.22"/><path class="cls-1" d="M390.44,144.16c1.91,2.5.1,7.16-3.29,5.43-4-2,0-6.81,3.29-5.43"/><path class="cls-1" d="M345,588.83c-.38-2.71,3.06-2.3,4.3-3.71,1.62-1.85-.05-4.43-.13-6.78-.19-6,.83-12.31-.83-18.13-4.12-1.69-7.32,6.53-8,6.74-.43.13-2.18.3-2.12-.5l-.38-4.6-2.8.22-3.55,26.76-5.41-1.75L311.76,564.4c-.74,3.56-3.23,14.76-1.32,17.33,1.08,1.46,4.31,1.35,3.43,4.56L300.4,584.6c-.39-3,2.75-2,4-2.73,2.75-1.63,3.86-18.84,3.22-22.61l-4.68-4.13c-2.56,12.51-3.89,2.25-6.79-.38-1.12-1-7.3-3.86-8.36-3l-2.54,9.63c.13.76,4.46,1.83,5.1,1.73,3.11-.5,3.21-3.45,5.83-3.8.67.77-2.05,10.42-2.7,12-2.09,5.22-3.41-3.36-4.39-4.53a4.4,4.4,0,0,0-4.64-1.55L282,574.76c.53,2.12,5.87,3.94,7.9,4,5,.08,4.85-6.08,9.67-5.07l-2.6,9.18c-1.55,1.33-24.07-6-27.68-7.13l-.89-2.05c2.25,0,4.18-.63,5.25-2.75s5.27-16.45,5.53-19c.44-4.35-2.29-3.06-3.2-4.83-.6-1.16.29-1.29,1.28-1.29,6.87,0,18.5,5.48,25.66,7.2,4.31,1,8.68,1,12.91,2.26l12.39,20.05c1.24.25.84-1,1.08-1.84,1.2-4.41,4-14.17-2.74-14.21l0-2.47h42.13c-.16,1.67.73,10.15-1.27,10.09-3.2-3-4.12-9.6-9.74-6.21l1.71,24.36,3.39,1.25-1.26,2.52H345Z"/><path class="cls-1" d="M233,557.67a13.68,13.68,0,0,0,3.62-.16c3-.92,8-17.27,10.57-20.69.59-3.1-5-2.46-1.14-6.1,6.94,5.14,18.2,6.49,23,14a15.13,15.13,0,0,1-1.2,18.75c-9.34,11.09-23.75,1.59-34-2.91l-.87-2.92Zm28.39-15.77c-1.83-2.18-5.88-2.92-7.22.3-.78,3.52-9.21,17.4-8.15,19.65a7.89,7.89,0,0,0,2.15,2.12c10.24,4.61,19-15.23,13.22-22.07"/><path class="cls-1" d="M405.68,579.57l0,2.48-16.82,2.57c-.61-2.35,1.91-2.07,3.37-2.53l-2.65-6.6c-5.74-.72-14.33.27-10.87,7.93l4.27.37v2.52c-2.59.25-5.23.61-7.79,1.06-1.36.24-5.18,2.59-5.69.19-.37-1.72,3.7-2.8,4.6-4.65,2.32-4.79,3.19-17.67,4.88-23.76.43-1.55,1.37-3,1.66-4.66,1.77-.46,3.74-1.76,5.27-.2,5,5.09,9,16.37,13.92,22.33,1.67,2,3.05,3.37,5.9,3M386.31,572c-.59-4.35-6.95-9.39-5.16-2l-1.28.57-.3,2.32,6.74-.85Z"/><path class="cls-1" d="M414.94,546.72,411.7,552l7.58,21.5c7.46,1.05,11.42-3.55,10.83-10.81l2.93.86,2.13,9.24-27.8,8.43c-.85-3.18,2-2.42,3.12-4.61l-8.16-22.78-4.22-1.66L415,546.72Z"/></svg>