<svg id="Layer_1" data-name="Layer 1" xmlns="http://www.w3.org/2000/svg" viewBox="0 0 673.06 720.33"><defs><style>.cls-1{fill:#676767;}</style></defs><path class="cls-1" d="M241.12,449.79H170c-24.47-50.21-40.61-104.16-62.42-156-7.06,5.88-4,13.38-4.07,19.91-.31,37.26,0,74.53-.2,111.8-.12,23.92-1.18,24.76-25.81,25.07-4,.05-8,0-11.8,0-5-22.72-6.37-118.72-2.5-180.38,22.42-1,45.2-.27,67.28-.38,9.54,6.25,13.53,14.2,16.94,24.46,8.07,24.31,20.73,47.13,28.25,71.57,7.6,24.68,19.42,47.5,28.29,76.76,28.19-58.13,43.91-117.09,70.75-172.87,20.6,0,40.6-.34,60.58.13,11.63.27,15.92,4.49,16,16.6q.51,74,0,148.06c-.09,12.14-3.94,15.21-16.62,16-7,.42-14,.08-23.44.08-2.87-27.25-1-54.16-1.31-80.94-.35-27-.08-53.93-1.92-81.12-24.82,52.72-41.55,108.24-66.92,161.28Z"/><path class="cls-1" d="M376.94,449.84V380.06c63.49-21.45,129.29-33.88,192.7-52.32,1.19-7.45,2.13-13.36-.94-20.57H415.12c-5.19,2.87,0,11.25-6.62,15.91H380c-7.68-36.35,4.89-53.08,40.89-53.28,47.24-.26,94.49-.13,141.21-.09,17.11,0,33.63,8,43,22.33,8.29,12.71,7.52,24.87,1.92,44.82-5.51,19.65-22,23.92-35.62,27.94-48.11,14.2-97.14,25.26-145.81,37.59-10.14,2.57-20.2,5.48-29.92,11.11H602.87c11.63,12.16,12,23.4,2.18,36.33H376.94Z"/></svg>