<svg id="Layer_1" data-name="Layer 1" xmlns="http://www.w3.org/2000/svg" xmlns:xlink="http://www.w3.org/1999/xlink" viewBox="0 0 673.06 720.33"><defs><style>.cls-1{fill:none;}.cls-2{fill:#676767;}.cls-3{clip-path:url(#clip-path);}.cls-4{fill:#7f7f7f;}.cls-5{fill:#999;}.cls-6{fill:#474747;}.cls-7{clip-path:url(#clip-path-14);}</style><clipPath id="clip-path"><rect class="cls-1" x="41.76" y="238.22" width="589.54" height="243.89"/></clipPath><clipPath id="clip-path-14"/></defs><path id="Shape" class="cls-2" d="M419.45,429.73a56.28,56.28,0,0,1-12.81-1.3,1.53,1.53,0,0,1-1.37-1.45v-5.21a1.37,1.37,0,0,1,1.37-1.37h.15c3,.36,10.25.72,12.81.72,6,0,8.39-1.89,8.39-6.51,0-2.75-1.26-4.21-6.15-7.09l-9.55-5.74a14.26,14.26,0,0,1-8.54-13.24c0-9.12,6.09-13.75,18.09-13.75a79.11,79.11,0,0,1,13.9,1.31,1.44,1.44,0,0,1,1.3,1.38v5.35a1.24,1.24,0,0,1-1.15,1.31h-.23c-5.2-.49-9.87-.73-14.26-.73-5.12,0-7.6,1.68-7.6,5.14,0,2.46,1.33,3.89,5.94,6.44l8.68,4.85c7.14,4,10.06,8.23,10.06,14.76a14.07,14.07,0,0,1-4.1,10.3,20.74,20.74,0,0,1-14.93,4.84Zm-22.05-.58h-9.69a1.65,1.65,0,0,1-1.66-.8l-16.58-24.66v24a1.45,1.45,0,0,1-1.45,1.45h-7.17a1.46,1.46,0,0,1-1.45-1.45V376.82a1.39,1.39,0,0,1,1.42-1.37H368a1.38,1.38,0,0,1,1.45,1.31v23.07L387.2,376c.35-.49.82-.58,1.67-.58h8.25c.87,0,1.37.32,1.37.87a2.06,2.06,0,0,1-.5,1.16l-18.54,23.95,18.69,26.2a2,2,0,0,1,.36.86c0,.44-.36.65-1.09.65h0Zm232.71,0h-9.7a1.63,1.63,0,0,1-1.64-.8l-16.59-24.66v24a1.46,1.46,0,0,1-1.45,1.45h-7.16a1.46,1.46,0,0,1-1.45-1.45V376.82a1.39,1.39,0,0,1,1.42-1.37h7.19a1.4,1.4,0,0,1,1.45,1.34v23L619.91,376c.35-.49.82-.58,1.66-.58h8.25c.87,0,1.37.32,1.37.87a2.06,2.06,0,0,1-.5,1.16l-18.53,23.95,18.67,26.2a2,2,0,0,1,.36.86c0,.44-.36.65-1.09.65h0Zm-46.08,0h-7.67a1.52,1.52,0,0,1-1.37-1.23l-3.32-13.75H555l-3.33,13.74a1.54,1.54,0,0,1-1.38,1.23h-7.69a1.23,1.23,0,0,1-1.3-1.16v-.19a.67.67,0,0,0,0-.24l11.89-45.38a10.54,10.54,0,0,1,20.12,0l11.89,45.38a.74.74,0,0,0,.05.25v.12a1.24,1.24,0,0,1-1.22,1.24H584Zm-20.69-45.88c-.74,0-1,.3-1.16,1.16L557,405.93h12.74l-5.21-21.5C564.3,383.58,564.08,383.27,563.34,383.27Zm-26,45.88h-7.67a1.53,1.53,0,0,1-1.37-1.23l-3.33-13.74H508.29L505,427.92a1.53,1.53,0,0,1-1.37,1.23h-7.67a1.23,1.23,0,0,1-1.3-1.15v-.18a.75.75,0,0,0,.05-.26l11.89-45.38a10.55,10.55,0,0,1,20.12,0l11.89,45.38a.74.74,0,0,0,0,.25v.11a1.24,1.24,0,0,1-1.22,1.24h-.1Zm-20.7-45.88c-.74,0-1,.3-1.16,1.16l-5.21,21.5H523l-5.21-21.5c-.19-.85-.41-1.16-1.16-1.16Zm-30.23,45.88H479.2a1.46,1.46,0,0,1-1.45-1.45V405.57H457.2V427.7a1.46,1.46,0,0,1-1.45,1.45h-7.17a1.46,1.46,0,0,1-1.45-1.45V376.75a1.4,1.4,0,0,1,1.42-1.37h7.2a1.4,1.4,0,0,1,1.45,1.34v20h20.55v-20a1.4,1.4,0,0,1,1.42-1.38h7.19a1.4,1.4,0,0,1,1.45,1.34v51a1.46,1.46,0,0,1-1.45,1.45Zm-135,0h-7.67a1.53,1.53,0,0,1-1.37-1.23L339,414.18H322.31L319,427.92a1.53,1.53,0,0,1-1.37,1.23h-7.67a1.23,1.23,0,0,1-1.3-1.15v-.18a.75.75,0,0,0,.05-.26l11.89-45.38a10.54,10.54,0,0,1,20.11,0l11.89,45.38a.74.74,0,0,0,.05.25v.11a1.24,1.24,0,0,1-1.22,1.24h-.09Zm-20.7-45.88c-.74,0-.94.3-1.16,1.16l-5.21,21.5H337l-5.21-21.5C331.57,383.58,331.36,383.27,330.62,383.27Zm100.67-28.76H416.73a11.74,11.74,0,0,1-8.41-3.28,13,13,0,0,1-4-10.06l-.37-59.81h12.56l.48,55.06c0,4.19,2.24,7.12,5.45,7.12h8.89v11Zm-53.91,0H340.65A28.23,28.23,0,0,1,314.7,340.6a50,50,0,0,1-6.18-27.35H321a43.1,43.1,0,0,0,4,19.9,17.12,17.12,0,0,0,16.23,10.4h30.09c3.07,0,4.62-2.13,4.62-6.33,0-.93-.22-18.48-.82-56.08h12.56c.48,24.47.71,46.2.71,64.56a10.3,10.3,0,0,1-11,8.81Zm-14.69-36.74H335.08l3.56-7.35h6.64a6.64,6.64,0,0,1-1.42-4.41,10.24,10.24,0,0,1,10-10.52h.46a10.67,10.67,0,0,1,8.2,4.07L358.67,305a7.4,7.4,0,0,0-4-1.93h-.28c-1.77,0-2.69,1.07-2.8,3.28a3.33,3.33,0,0,0,1.19,2.6,6.66,6.66,0,0,0,4.74,1.47h5.21v7.35h0Z"/><g id="Clipped"><path id="a-17" class="cls-1" d="M41.76,482.11H631.3V238.22H41.76Z"/><g class="cls-3"><g id="Clipped-2"><path id="Shape-2" class="cls-2" d="M470,356.1a16.59,16.59,0,0,1-13.39-5.89v4.3H429l.12-11h15.17c-.06-7.94-.12-14.14-.17-18.67v0q-.06-6.29-.07-8.31h12.44v16.85a13.07,13.07,0,0,0,3.32,8,10.62,10.62,0,0,0,7.82,3.05c4.8,0,7.23-2.59,7.23-7.69,0-6.91-.07-14.82-.12-20.24h12.44c0,2.14.06,5.21.13,9.09v0c0,1.87.07,4,.11,6.25a13.05,13.05,0,0,0,3.43,9.5,10.29,10.29,0,0,0,7.7,3.05c4.86,0,7.22-2.46,7.23-7.56,0-.82,0-8.56-.12-23.64h12.44c0,2.93.07,7.23.14,12.68,0,1.94.06,4.05.09,6.31a11.53,11.53,0,0,0,3.79,8.48,9.18,9.18,0,0,0,6.4,2.82H541v11H529.4a11.94,11.94,0,0,1-6.87-2.38,13.89,13.89,0,0,1-5.33-6.78,15.07,15.07,0,0,1-15.76,10.74H501a16.42,16.42,0,0,1-15.47-8.94,15.07,15.07,0,0,1-15.05,8.93H470Zm25.13-52H483.68V292.67h11.48Zm-17.18,0H466.5V292.67H478Zm8.53-14.93H475.13V277.85h11.38v11.3h0Z"/></g></g></g><g id="Clipped-3"><path id="a-18" class="cls-1" d="M41.76,482.11H631.3V238.22H41.76Z"/><g class="cls-3"><g id="Clipped-4"><path id="Shape-3" class="cls-2" d="M627.62,354.51H615.18l-.6-73.15H627l.59,73.15h0Zm-28.43,0H537.93V343.44h48.22A21.21,21.21,0,0,0,564,324.34a33.51,33.51,0,0,0-17.65,5.33l-4.63-9.31,31.87-30.64,8.77,8.24-16.23,15.27a34.87,34.87,0,0,1,15.29,3.15,26.66,26.66,0,0,1,10.66,9.51,51.18,51.18,0,0,1,7.1,28.61h0Zm32.11-80H610.21l2.73-5.54H618a5.93,5.93,0,0,1-1.07-3.5,7.84,7.84,0,0,1,7.66-8h.16a7.8,7.8,0,0,1,6.28,3.16l-2.84,4.19a4.23,4.23,0,0,0-3.2-1.47c-1.42,0-2.14.87-2.14,2.6,0,2,1.52,3.05,4.51,3.05h3.91v5.53h0Z"/></g></g></g><g id="Clipped-5"><path id="a-19" class="cls-1" d="M41.76,482.11H631.3V238.22H41.76Z"/><g class="cls-3"><g id="Clipped-6"><path id="Shape-4" class="cls-4" d="M222.26,459.16l-58.31,21L99.24,455.74l.14-32.63H222.26v36Z"/></g></g></g><g id="Clipped-7"><path id="a-20" class="cls-1" d="M41.76,482.11H631.3V238.22H41.76Z"/><g class="cls-3"><g id="Clipped-8"><path id="Shape-5" class="cls-5" d="M185,460H142.45a.73.73,0,0,0-.73.73v15.87a.73.73,0,0,0,.73.73H185a.73.73,0,0,0,.73-.73h0V460.74A.73.73,0,0,0,185,460"/></g></g></g><g id="Clipped-9"><path id="a-21" class="cls-1" d="M41.76,482.11H631.3V238.22H41.76Z"/><g class="cls-3"><g id="Clipped-10"><path id="Shape-6" class="cls-6" d="M185,460.18H142.45a.76.76,0,0,0-.73.79v2h44v-2a.76.76,0,0,0-.73-.79h0"/></g></g></g><g id="Clipped-11"><path id="a-22" class="cls-1" d="M41.76,482.11H631.3V238.22H41.76Z"/><g class="cls-3"><g id="Clipped-12"><path id="Shape-7" class="cls-2" d="M188.63,449.37H138.78a.73.73,0,0,0-.74.73h0v9.79a.73.73,0,0,0,.74.73h49.85a.73.73,0,0,0,.73-.73V450.1a.73.73,0,0,0-.73-.73"/></g></g></g><g id="Clipped-13"><path id="a-23" class="cls-1" d="M41.76,482.11H631.3V238.22H41.76Z"/><g class="cls-3"><g id="Clipped-14"><path id="Shape-8" class="cls-4" d="M159.12,480.67h8.25v-31.3h-8.25Z"/></g></g></g><g id="Clipped-15"><path id="a-24" class="cls-1" d="M41.76,482.11H631.3V238.22H41.76Z"/><g class="cls-3"><g id="Clipped-16"><path id="Shape-9" class="cls-5" d="M174.87,453.88h0a17.31,17.31,0,0,1-8.26-3.88,6.64,6.64,0,0,1-3,1H163a5.24,5.24,0,0,1-3.82-1.39,26.49,26.49,0,0,1-8.69,2.33,6,6,0,0,1-1.92-.29,2.83,2.83,0,0,1-1.92-2.13,2,2,0,0,1,.23-1.51c.77-1.27,3-1.91,6.64-1.91a44.28,44.28,0,0,1,5.27.35c-3.39-2.61-8.8-7.46-7-10.45a3.81,3.81,0,0,1,1.74-1.43,6.52,6.52,0,0,1,2.65-.59,5.62,5.62,0,0,1,3.11.93,11,11,0,0,1,4.15,7.21,17.4,17.4,0,0,1,5.71-10.39,4.72,4.72,0,0,1,2.57-.82A4.58,4.58,0,0,1,174.6,432a3.92,3.92,0,0,1,1.39,2c1.12,3.92-4.84,9.25-8.51,12.12h1.33c3.9,0,8.71.58,9.51,3.35a3.21,3.21,0,0,1-.06,1.89,3.42,3.42,0,0,1-2.2,2.41,3.76,3.76,0,0,1-1.2.14Zm-6.73-5.95a2.12,2.12,0,0,1-.21.69,15.16,15.16,0,0,0,7,3.41,2,2,0,0,0,.61-.09c.28-.09.68-.31,1-1.15a1.48,1.48,0,0,0,0-.86c-.36-1.25-3.34-2-8-2Zm-14.76-.31c-1.84,0-4.14.18-4.64,1a1,1,0,0,0-.1.68,1.24,1.24,0,0,0,.82,1,3.14,3.14,0,0,0,1,.15,28.63,28.63,0,0,0,8-2.25h.05V448a44.37,44.37,0,0,0-5.15-.33Zm2.83-12.14a3.81,3.81,0,0,0-1.59.36,2.07,2.07,0,0,0-1,.77c-1.14,1.88,2.73,5.84,6.73,8.92a5.82,5.82,0,0,1,1.27-.51,10.9,10.9,0,0,0-3.69-9,3.24,3.24,0,0,0-1.76-.55h0Zm15.51-2.7a2.77,2.77,0,0,0-1.5.5A16.73,16.73,0,0,0,165,444.86a6.49,6.49,0,0,1,.76.19c4.31-3.28,9.08-8,8.36-10.55a2,2,0,0,0-.77-1.06A2.63,2.63,0,0,0,171.72,432.78Z"/></g></g></g><g id="Clipped-17"><path id="a-25" class="cls-1" d="M41.76,482.11H631.3V238.22H41.76Z"/><g class="cls-3"><g id="Clipped-18"><path id="Shape-10" class="cls-5" d="M220.11,415.08h-115l25.25-8.8H246.28l-26.18,8.8Z"/></g></g></g><g id="Clipped-19"><path id="a-26" class="cls-1" d="M41.76,482.11H631.3V238.22H41.76Z"/><g class="cls-3"><g id="Clipped-20"><path id="Shape-11" class="cls-4" d="M252.11,436.17l-20.49,12.74V423.82L252.11,415Z"/></g></g></g><g id="Clipped-21"><path id="a-27" class="cls-1" d="M41.76,482.11H631.3V238.22H41.76Z"/><g class="cls-3"><g id="Clipped-22"><path id="Shape-12" class="cls-4" d="M238.19,284.24c-2.87,21.86-15.38,42.58-19.24,45.09H189.88c.33-.31.66-.55,1-.86,6.66-6.46,14.74-26.67,16.27-44.23Z"/></g></g></g><g id="Clipped-23"><path id="a-28" class="cls-1" d="M41.76,482.11H631.3V238.22H41.76Z"/><g class="cls-3"><g id="Clipped-24"><path id="Shape-13" class="cls-5" d="M197.08,284.24c-2.61,25.38-14.88,43.47-18.68,45.09H143.9c8.47-7.26,18.24-28,19.85-45.09h33.33Z"/></g></g></g><g id="Clipped-25"><path id="a-29" class="cls-1" d="M41.76,482.11H631.3V238.22H41.76Z"/><g class="cls-3"><g id="Clipped-26"><path id="Shape-14" class="cls-4" d="M101,325.56a109.64,109.64,0,0,0,24.36-41.33h28.31c-2.71,22.6-17,42.95-21.24,45.09H96.59c1.52-1.32,3-2.39,4.42-3.78"/></g></g></g><g id="Clipped-27"><g class="cls-7"><g id="Clipped-28"><path id="Shape-15" class="cls-2" d="M207.68,352.11a13.52,13.52,0,0,1-14.26-12.62h28.52a13.53,13.53,0,0,1-14.26,12.62Zm-30.45,0A13.52,13.52,0,0,1,163,339.49h28.52a13.53,13.53,0,0,1-14.26,12.62Zm-30.37,0a13.52,13.52,0,0,1-14.26-12.62h28.53a13.53,13.53,0,0,1-14.27,12.62Zm-30.75,0a13.53,13.53,0,0,1-14.24-12.62h28.5a13.53,13.53,0,0,1-14.25,12.62h0Zm-30.1,0a13.52,13.52,0,0,1-14.24-12.62h28.52A13.53,13.53,0,0,1,86,352.11Z"/></g></g></g><g id="Clipped-29"><g class="cls-7"><g id="Clipped-30"><path id="Shape-16" class="cls-2" d="M163.71,482.11a121.95,121.95,0,1,1,86.28-208h.36v.38A121.88,121.88,0,0,1,163.7,482.11ZM102,424.68v26.69a109.47,109.47,0,0,0,61.72,18.95h.09A109.54,109.54,0,0,0,220,454.83V424.68ZM252.11,415h0l-20.49,8.87v22.95a111.18,111.18,0,0,0,20.49-21ZM163.71,250A110.09,110.09,0,0,0,90,441.94V422.48a12.49,12.49,0,0,1,3.86-9.28,8.32,8.32,0,0,1,3-2.29l.21-.09,26-9.67a8,8,0,0,1,3.16-.65l3.39-.29V339.46H71.72l11.45-9.12a146.53,146.53,0,0,0,15.29-16.6c7.09-8.91,15.93-22.23,17.84-35.08l.64-4.63h115.3a109.52,109.52,0,0,0-68.55-24Zm-33,156.25-25.07,8.8H219.76l26-8.8Zm119.79-6.07a8.19,8.19,0,0,1,4.62,1.43c.31.16.62.33.93.52a11.44,11.44,0,0,1,5.41,8.62,109.7,109.7,0,0,0-12.35-120.06,58.69,58.69,0,0,1-2.46,9V400.21h3.85ZM140.77,339.47l.09,60.73h94.41V327.93A56.36,56.36,0,0,1,223,339l-1,.51-81.16,0Zm66.37-55.23a102.05,102.05,0,0,1-6.21,26.29,53.18,53.18,0,0,1-10.06,18l-.45.41,0,0-.05,0-.15.13-.3.26h29.07a48.68,48.68,0,0,0,10-15.31,101.59,101.59,0,0,0,9.25-29.8H207.14Zm-43.4,0h0a85.92,85.92,0,0,1-7.35,26.23,57,57,0,0,1-12.49,18.88h34.49c3.78-1.61,16.07-19.62,18.69-45.09l-33.34,0Zm-38.39,0A110.19,110.19,0,0,1,101,325.57c-.93.9-1.83,1.64-2.7,2.34h0l-.12.09-.24.2-.21.2-.13.11-1,.84h35.84a44,44,0,0,0,11.21-14.89,87.18,87.18,0,0,0,10-30.22H125.35Z"/></g></g></g></svg>