<svg id="Layer_1" data-name="Layer 1" xmlns="http://www.w3.org/2000/svg" viewBox="0 0 673.06 720.33"><defs><style>.cls-1{fill:#676767;}</style></defs><path class="cls-1" d="M445.72,90c.4-.39,3.84,0,4.87.51,4.78,2.11,6,22.58,8.33,27.85,2.17,0,1.22-33.95,13.2-28.36v39.59c0,2.52-5.86.92-5.86-2V109.58l-4.1,19.84c-1.06,2.6-5.47,2.39-6.49,0l-4.06-17.93v16.13c0,2.17-3.81,3.87-5.86,3.42,1.12-5.07-1.47-39.62,0-41.05Z"/><path class="cls-1" d="M477,90c.4-.39,3.84,0,4.87.51,5.2,2.29,6,22.44,8.33,27.85,2.07,0,1.7-32.9,13.2-28.36v41.05c-2,.45-5.86-1.25-5.86-3.42V109.57L494,128c-.49,3.55-4.19,4.19-6.7,2.13l-4.38-19.57v17.11c0,2.17-3.81,3.87-5.86,3.42,1.12-5.07-1.47-39.62,0-41Z"/><path class="cls-1" d="M519,90c2.46-.14,4.92-.36,6.34,2l7.35,20.51V93.44c0-.33,2.87-2.68,3.43-3.42.83-.37,2.43,1.16,2.43,1.46V129.6c0,1.86-5.59,2-6.92-.17l-6.77-20.85v19.06c0,2.88-5.86,4.47-5.86,2V90Z"/><path class="cls-1" d="M323.53,90c2.46-.14,4.92-.36,6.34,2l7.35,20.51V93.44c0-.71,4.24-4.42,5.86-3.42v39.59c0,1.94-5.57,2.08-6.33-.51l-7.35-20.51v19.06c0,2.88-5.86,4.47-5.86,1.95V90Z"/><path class="cls-1" d="M449.63,142.8c2.46-.14,4.92-.36,6.34,2l7.35,20.51V146.22c0-2.17,3.81-3.87,5.86-3.42v39.59c0,2.61-5.79,1.11-7.29-1.51l-6.4-20.48v20c0,.33-2.87,2.68-3.43,3.42-.83.37-2.43-1.16-2.43-1.46V142.81Z"/><path class="cls-1" d="M541.51,144.27c.92-3,16.38-4.34,17.64,8.75.81,8.33-2.76,14.94-2.71,19.41,0,2.71,2.3,6.93,2.58,9.88-6.06,6.28-7.54-8.82-9.22-9.2-4.58-1.05.72,10.12-6.79,10.78-.51-.2-1.51-2.33-1.51-2.48V144.27Zm5.87,22c3.83.07,5.41.79,5.91-3.37.63-5.2,1.68-15.53-5.91-13.24v16.62Z"/><path class="cls-1" d="M234.58,142.8c5-.32,13.76-.68,16.11,4.91.9,2.15.93,16.17.46,19-.38,2.34-2.41,3.92-2.5,4.94-.18,1.83,4,10.65,2.55,12.22a6.42,6.42,0,0,1-5.34-2c-2.77-3.28-.53-10-5.4-8.77-.19,2,.35,4.37,0,6.34-.72,3.79-5.84,5.71-5.84,3V142.81Zm10.75,23.46V151.11c0-1.28-3.61-1.79-4.89-1.47v16.62Z"/><path class="cls-1" d="M231.65,90c5.83,0,12-1.25,15.32,4.71,1.8,3.18,1.88,15.34,1.24,19.18-.42,2.5-2.71,4.13-2.68,5.73,0,1.8,4,10.18,2.72,11.42-7.73,2.66-6.82-9.16-8.31-9.78-4.27-1.77-1.28,6.14-3.65,8.57-1,1-3.25,1.26-4.65,1.22V90Zm5.86,24.44c6.62,1.88,5.33-8.57,4.93-13.24-.34-4-.36-4.71-4.93-4.35Z"/><path class="cls-1" d="M180.82,160.4h4.89V146.23c0-2.17,3.81-3.87,5.86-3.42V182.4c0,2.39-4.54.27-5.38-1.46-1.18-2.43.32-12.54-1.05-12.73h-4.33c-.59.58.83,10-.48,12.73-.85,1.73-5.38,3.85-5.38,1.46V142.81c2.22-.87,5.86,1.34,5.86,3.42V160.4Z"/><path class="cls-1" d="M364.59,128.63c0,.13,1.7,2.09-.51,2.45-1.16.19-2.78-.91-4-.88-4.39.12-8.92,1.25-11.23-4.39-1.41-3.45-1.42-22.11-.9-26.53,1.74-14.6,19-10,16.64,3.45-7,2.06-5.08-4.82-7.34-5.86-1.64-.76-3.42.94-3.42,2.44v22.48c0,.35,2.87,3.19,3.9,2.44,3-6-1.56-9.79-1-15.64h7.82c0,6.67-.06,13.36,0,20Z"/><path class="cls-1" d="M560.08,131.07c-6.14-1.61-13.49,2.11-16-6-1.24-4.07-1.23-21.11-.67-25.77,1.74-14.6,19-10,16.64,3.45-7,2.06-5.08-4.82-7.34-5.86-1.64-.76-3.42.94-3.42,2.44v22.48c0,2.76,4.2,4.6,4.8-1.07.54-5.07-2.66-7.21-1.87-12.13h7.82v22.49Z"/><path class="cls-1" d="M280.43,176.13c-.29-.25-7.46-.38-7.73-.1-.42.46-.32,11.32-6.78,6.3,2.05-4.69,6.4-39.05,8.35-39.59,1.59-.44,5.59-.26,6.06,1.71l7,36.12c-3.66,9.83-6.36-4-6.89-4.45Zm-.89-6.95-2.92-11.71-2,11.72h4.89Z"/><path class="cls-1" d="M170.92,90.15c1.76,1.11,6.66,36,7.94,40.92-6.08,2.36-6.8-7.77-7.4-7.87-9.69-1.69-5.94,4-8.47,6.66-1.69,1.77-6.39,1.8-5.25-1.73,1.9-4.54,6-36.77,7.53-38a16,16,0,0,1,5.64,0Zm-.86,27.24-1.94-12.7C168.26,109.46,162.33,119.2,170.06,117.39Z"/><path class="cls-1" d="M302,142.8c17.26-2.57,18.17,7.92,16.68,22.06-1.14,10.8-9.77,7.23-10.82,8.24-.28.27.27,4.88,0,6.34-.67,3.44-5.84,5.37-5.84,2.95V142.8Zm10.75,23.46V151.11c0-1.28-3.61-1.79-4.89-1.47v16.62Z"/><path class="cls-1" d="M411.5,104.68c-6.37,2.21-6-7.27-6.85-7.82-3.51-2.34-4.57,4.18-3.69,7.13,1.12,3.74,9.38,5,10.45,13,2,15.14-13.19,17.88-16.09,8.27-3.33-11,4.63-10.36,6.42-1,11.93-5.32-4.86-12.46-6.42-17.54-6-19.53,18.79-23.21,16.18-2Z"/><path class="cls-1" d="M395.87,174.57c.42,1.36,4.1,2.05,4.85,1.43s-.76-6.74,4.43-6.83c2.32,0,1.32.63,1.48,2.42,1.3,14.77-15.07,15.63-16.62,2A135.66,135.66,0,0,1,390,153c1.55-16.69,19.85-11.09,16.65,3.46-5.87,2-4.61-5.9-7.43-6.75-1.29-.39-3.32.53-3.32,1.37,0,4.76-1,20.32,0,23.46Z"/><path class="cls-1" d="M421.28,142.8c2.59.44,14.13-1.22,14.66,1.49,1.19,6-8.39,5-8.81,5.35s-.38,10.38,0,10.76,4.65-.24,5.87,0c-.22,1.93.74,4.45-.63,6s-5,.81-5.31,3.26c-1.33,9.74,1.78,4.83,6,6.89,1.2.59,3.1,4.78,2.85,5.81-.63,2.58-14.6,2.08-14.6.07V142.8Z"/><path class="cls-1" d="M307.89,90c2.84,2.86-8.32,28.9-9.79,33.71,5.91.84,10.76-.66,9.79,7.34H292.74c-.66,0-1.36-1.65-1.5-2.47-1.15-6.73,9.05-23.53,9.82-31.24-5.79-.94-10.88.36-8.81-7.34Z"/><path class="cls-1" d="M219.92,142.8c2.2,8.66-7.08,6.13-7.83,6.84-.39.37-.38,10.38,0,10.76s4.65-.24,5.87,0c2,6.64-4.56,6.65-5.72,8a37.34,37.34,0,0,0-.16,7.69c.44.42,10.3-1.45,7.72,6.22-1,2.81-13.58,2-13.58.13V142.81h13.7Z"/><path class="cls-1" d="M286.39,90c2.69,9.46-6.55,5.62-7.83,6.84-.42.4-.42,11.33,0,11.74s4.65-.24,5.87,0c2.51,6.23-5.67,6.47-5.93,7.44-.18.68-.24,7.92.06,8.2,1.14,1.12,10.18-3.14,7.82,6.84H272.7V90h13.69Z"/><path class="cls-1" d="M527.83,142.8c0,6.45-2.68,7.74-8.8,6.85a13.15,13.15,0,0,1,0,10.73c2.18.05,6.8-.88,6.85,2.4.06,4.47-5.36,5-5.73,5.57-.79,1.28.61,5.67-1.12,7.67,3.89-1.14,10.2,1.75,8.73,6.25-1,3-10.79,1-13.61,1.58v-41Z"/><path class="cls-1" d="M267.82,90c2.2,8.66-7.08,6.13-7.83,6.84-.42.41-.42,11.33,0,11.74.88.87,6-1.73,5.89,1.47-.32,6.81-5.5,4.38-5.95,6-.18.66-.24,7.92.05,8.2.75.71,10-1.83,7.83,6.84H254.13V90h13.69Z"/><path class="cls-1" d="M341.13,165.77c-.43-2.76-8.73-22.17-7.82-23,8.57-1.57,7.94,8.15,10.26,13.69,2.59-4.9,2-16.23,10.28-13.19-1.07,6.88-5.65,14-6.62,20.75-.7,4.9.72,11.76-.66,15.95-.94,2.86-5.43,4.9-5.43,2.39,0-4.84.69-12.23,0-16.62Z"/><path class="cls-1" d="M212.1,91.48c.61-2,14.6-3,14.67.93.1,6.45-8.24,3.89-8.81,4.45-.39.38-.14,10,.43,10.82,1.63,2.32,6.87-.8,6.43,2.38-.87,6.3-6.2,4.83-6.81,5.42-.82.79,1,11.12-.53,13.65-1.1,1.83-5.38,2.47-5.38.48V91.49Z"/><path class="cls-1" d="M157.36,90c2.2,8.66-7.08,6.13-7.83,6.84-.42.41-.42,11.33,0,11.74s4.66-.24,5.87,0c1.7,7-4.9,6-5.77,6.94-1.32,1.5,2.79,16.58-6,15.54V90h13.69Z"/><path class="cls-1" d="M183.75,98.33c0-.28,1.47-1.1,1-1.46h-5.87c.11-2.11-.82-5.92,1.61-6.72,1.46-.48,13.14-.39,14.1.29,1.54,1.08.8,4.68.92,6.42h-5.87v28.83c0,7-5.86,5.78-5.86,3.91,0-9.17-1.17-22.77,0-31.28Z"/><path class="cls-1" d="M499.48,142.8c-.16,5.66,1.89,7.79-4.89,6.84v29.81c0,1.41-3.91,4.94-5.86,4.4V149.64h-5.87c-.17-1.38-.25-6.84,1.47-6.84Z"/><path class="cls-1" d="M160.29,142.8c-.16,5.66,1.89,7.79-4.89,6.84v30.79c0,.33-2.87,2.68-3.43,3.42-.83.37-2.43-1.16-2.43-1.46V149.64c-6.78,1-4.73-1.18-4.89-6.84Z"/><path class="cls-1" d="M422.26,124.23c1,1,9-2.74,6.85,6.85-3.14-.13-12.71,1.36-12.71-3.43V91.48c0-2.59,5.86-1,5.86,1C422.26,96.72,421.11,123.13,422.26,124.23Z"/><path class="cls-1" d="M514.14,90v37.63c0,2.17-3.81,3.87-5.86,3.42V93.44C508.28,92.14,512.05,88.58,514.14,90Z"/><path class="cls-1" d="M435,131.07V92.46c0-1.92,5.86-3.56,5.86-1v35.19c0,1.37-3.75,5.5-5.86,4.4Z"/><path class="cls-1" d="M318.64,90v37.63c0,2.17-3.81,3.87-5.86,3.42V93.44C312.78,92.73,317,89,318.64,90Z"/><path class="cls-1" d="M349,461.46c-1,1.09-23-12.18-25.26-14.33l-.15-87.82L322,357,309.86,351v88c-8.61-2.85-16.39-9.1-24.48-13.36l.05-88.8c-.56-2.88-11-5.94-13.7-8.3v88.95l-26.39-15.15V283.55L349,343.67V461.46Z"/><path class="cls-1" d="M458.43,284.54v28.84l-76.26,44c-1.45,1.61-1.3,10.22-1,12.74.18,1.36-.53,1.69,1.45,1.44l75.77-41c.62,24.48-.93,48.74-1.13,73.15l-101.5,57.83V430.19L432,389.14V372.52l-76.24,43V343.68L455,285.47l3.47-.93Z"/><path class="cls-1" d="M453.54,279.64l-24.85,12.75L392,271.25c-1.37-.7-2.36-.17-3.63.35-5.23,2.15-12.78,8.13-18.2,11.17-9.92,5.57-20,10.94-30,16.45l38.11,22.48-18.88,11.89-7.92,3.77L249.26,277.71c6.59-1.4,21.17-14.3,26.79-13.7l37.78,22h1.84l48.93-30.35-38.1-21.5,25.73-15,100.29,58,1,2.37Z"/><path class="cls-1" d="M219.62,534.86c2-.46,2.88,1.53,3.91,1.71,1.33.23,2.41-2.19,4.5-1.71,1.89.44,3.18,3.29,2.56,5.17-.52,1.58-10.72,1.88-12,1.48-3-.93-1.62-6,1-6.66Z"/><path class="cls-1" d="M192.57,537.71h.94c2.87-7.91,10,2,4.25,3.83-2.51.8-3.88-1.52-4.73-1.52s-4.87,4-6.2,0c-1.83-5.48,4.88-7.44,5.73-2.29Z"/><path class="cls-1" d="M170.07,586.58h0c.38,3.76,2.45,5.45-1,9.21a19.38,19.38,0,0,1-5.51,3.29c-15.88,3.57-25.45-12.48-15-24.59,1.76-2,3.91,2.1,3.9,3.78s-1.76,3.48-2,5.87c-.57,6.93,6.37,12.61,12.5,8.54,4-2.65-3.74-2.07-6-6.18-5.89-10.64,8.94-20.63,19-17.52v14.17c0,.81,2.37,1.73,3.37,1.52l67,0c-1.4-11.25,7.08-17,17.59-15.65v14.17c0,.21-1.46,1.11-1,1.46,2.42-.39,8.06.82,9.84-.42,2.55-1.78-2.15-17.07,7.76-15.21v14.17a9.73,9.73,0,0,0,1.47,1.47H306c-1.42-5.72-7.14-13.49-13.05-8.64-2.59,2.13-2.45,4.93-7.48,3.75.09-14.25,17.52-14.14,23.66-3.62,1.25,2.14,2.49,8.12,2.83,8.41.65.55,5.51.33,6.32-.81,1.95-2.75-2.44-15.24,6.29-14.72.67,3.92-2,14.08,2.64,15.44,16.75,4.92,2.34-15.67,15.93-15.44v14.17c0,2.05,7.82,2.05,7.82,0V558.72c0-3.12,6.84-6.28,6.84-2.93v27.37c0,3.79-6.61,8.22-10.29,8.38s-6-2.65-7.8-2.65c-2.67,0-6,3.84-12.67,2.53-2-.39-3.54-2.53-4.92-2.56-1.05,0-4.5,2.32-7.78,2.65-6.78.68-23.76.8-30.37,0-2.81-.35-5.52-2.6-6.82-2.6s-4,2.25-6.82,2.6c-27.44,3.42-61.82-2.65-90,0-4.47.52-7-3.21-10.21-4.94Zm87-10.75c-3.73-.5-6.84,7.71-3.41,8.78C258.23,586,257.05,578.07,257.06,575.83Z"/><path class="cls-1" d="M427.15,581.69c.21-.15,1.22.35,2-.65,5.68-7.26-4-26.51,8.75-26.72v28.84a9.73,9.73,0,0,0,1.47,1.47h65c-.24-1.54-2.1-1.4-3.37-3-3.86-4.79-1.6-8.28,3.45-11.12,10.22-5.74,27.23,1,19.47,14.08,2.08-.28,6.29.69,7.88-.42,4.1-2.85-4.63-30.41,6.78-29.88v29.32c0,.5,7.64,2.41,9.29-1,2.4-4.91-2.07-25.58,2.65-28.13,1.09-.59,2.51-.12,3.7-.22v28.84c0,3.94-5.49,7.93-9.26,8.37-4.5.53-6.22-1.83-8.9-2-1.9-.13-4.74,1.7-7.69,2-5.4.56-13.61-.07-19.56,0-11.41.13-65.69,1.62-71.94-1.45-1.55-.76-3.82-3.26-4.48-3.38-1-.18-12.59,7.45-16.42,4.8-2.48-6.68,5.58-6.3,9.54-8.05,1-.45,1.26-1.46,1.65-1.74ZM512,574c-8.74,1.43-4.88,8,1.1,9.08,9.28,1.65,8.69-10.69-1.1-9.08Z"/><path class="cls-1" d="M410.53,591.47H392.45c-4.32,0-3.71,8.73,2,9.75,2.4.43,5.25-.5,7.61.21s5.62,5.14.23,5.73c-7.62.83-16.75,0-18.71-8.8-2.74-12.25,10.81-15.08,20.13-13.74-.34-5.21-6.5-13.34-11.7-9.26-3.05,2.39-2.46,5.88-8.82,4.38.54-9.56,8.78-12.79,17.33-10C408.19,572.25,411.25,584.22,410.53,591.47Z"/><path class="cls-1" d="M368.5,554.33v32.75c0,.38-4.64,5.12-5.86,4.4V557.76c0-.71,4.24-4.42,5.86-3.42Z"/><path class="cls-1" d="M427.15,581.69c-1.72,1.07-1.72-.54-2.25-1.22-1.21-1.54-8.55-14.77-9-16.33-1.27-4.12.59-11.12,3.54-7.27.85,1.1,9.26,16.77,9.5,17.74C429.36,576.42,428.5,580.85,427.15,581.69Z"/><path class="cls-1" d="M327.58,565.91c-.74-1.17-.34-5.17,1.47-5.64,3.88,1.08,15.15-2.42,11.6,4.8-2.07,4.2-4.74.37-6.06.16-.73-.12-5.26,3.42-7,.68Z"/><path class="cls-1" d="M165,607c-.95,1.5-6.25,1.74-5.74-1.81h-.94c-.43,4.28-7,3.75-6.67-1.23.39-5.82,5.94-1.08,7.15-1.09.87,0,2.31-2.32,4.78-1.54,1.74.55,2.18,4.48,1.43,5.67Z"/><path class="cls-1" d="M264,594.48c2.71-1.73,5.36.84,7.1.7,1.2-.1,2.1-1.61,3.64-1.32,5.23,1,1.69,7-.55,7.15-1.25.08-3.31-2.55-3.93-2.54-.84,0-6.61,7.29-6.26-4Z"/><path class="cls-1" d="M252.8,560.31c6.4-2.14,6.67,5.6,2.6,6.61C251.65,567.86,249.34,561.46,252.8,560.31Z"/><path class="cls-1" d="M319.48,565.91c-1.2,1.9-5.28,1.4-6.29-1.78C311,557.11,323.2,560,319.48,565.91Z"/><path class="cls-1" d="M400.46,592.55c3.75-.94,6.06,5.46,2.6,6.61C396.66,601.3,396.39,593.56,400.46,592.55Z"/><path class="cls-1" d="M179.72,502.65c.65,1.05-.13,4.21.13,5.73C166.57,510.16,176.59,497.57,179.72,502.65Z"/><path class="cls-1" d="M214.89,508.24c-2.59,1.65-7.66-.8-5.26-4.77C212.57,498.62,218.83,505.73,214.89,508.24Z"/><path class="cls-1" d="M490.19,520.11c-2.23-.69-1.6-5.37-.54-7.14,1.94-3.24,16-11.28,19.12-15.34,5.18,8.07-5.45,10.67-9.29,15.63h16.13a55,55,0,0,1,5.11,3.2c4,3.85,2.27,12.58-2.58,14.95l-75.85.41c-2.14.41-5.14,6.17-8.72,7.9-3,1.45-9.18,3-6.92-2,1.5-3.36,7.33-2.61,8.87-9.71,1.32-6.07-2.45-18.6,6.28-17.66V524.5a9.73,9.73,0,0,0,1.47,1.47H515.6c2.59,0,.95-5.86-1-5.86-4.88,0-21.25,1-24.44,0Z"/><path class="cls-1" d="M202.32,527.44c-.25.89-4,4.11-5.4,4.38-4.76.91-10.42-.88-14.64-.76-5.11.15-11.62,1.59-16.62,1.76-3.68.12-19.44-3.82-17.9,5.15,1.14,6.65,9.32,1.27,13.86,5.73,7.16,7-12.42,5.09-15.73,2.52-7.77-6.05-4-18.13,5.32-20,3.62-.73,7.48.47,11-.7-1.61-4.4-6.18-11.41-11.71-8.81-2.59,1.22-3.29,7-8.8,5.37-.14-13.08,16.16-15.91,22.92-5.82,1.42,2.11,3.19,9.28,3.58,9.61.83.73,8.65-.27,10.65.12.12-5.85-1.67-16.45,6.84-15.64V526c2.43-.41,8.07.81,9.84-.43,2.77-1.93-2.47-16,6.78-15.21C201.5,514.9,203.44,523.49,202.32,527.44Z"/><path class="cls-1" d="M349,496.65v27.86a9.73,9.73,0,0,0,1.47,1.47h56.21c.19-1.66-1.59-.59-2.94-1.66-10.65-8.44,3.42-22.43,13.69-20.82v23c0,1.18-4.23,6.14-6.3,5.43-19.26-1.42-40.75,1.72-59.72,0-5.23-.47-7.41-2.06-8.17-7.47-.52-3.67-.63-24.77,1.13-26.55,1-1,3.25-1.26,4.65-1.22Zm57.67,22.49c6.51,1,4.8-4.16,4.87-8.8C407.22,512.38,405.81,514.17,406.62,519.14Z"/><path class="cls-1" d="M289.32,503.5v24c0,.55-4,4.11-5.4,4.38-10.31,2-26-1.55-37,.18-2.52,2.47-4,5.58-7.32,7.34-3,1.59-9.91,3.74-7.5-1.63,1.09-2.42,4.67-2.92,6.06-4.21,7.38-6.85-2.78-23.22,9.09-23.16V526h31.28c-1.14-2.1-4.85-2.84-5.66-5.58-3.08-10.47,7.21-17.18,16.41-16.91Zm-5.86,15.64-.49-8.8c-2.9,2.59-5.24,4.44-4.41,8.79h4.9Z"/><path class="cls-1" d="M536.62,510.34v14.17c0,2,7.82,2,7.82,0V510.34c10.06-2.42,23.45,10.62,15.1,19.5-3.7,3.93-8,1.09-11.68,1.23-2.19.08-10.31.44-11.52.77-.93.25-2.86,4.66-4.37,5.89-3,2.42-13.91,6.47-9.88-.37,1.7-2.88,4.48-2.76,6.26-4.49,6.16-6-2.91-21.65,8.26-22.53Zm13.69,7.82c-.78,3.38.12,10.58,4.93,7.37C558,523.69,553.78,517,550.31,518.16Z"/><path class="cls-1" d="M216,510.34v14.17c0,1.81,9.52,2,10.61,1.33,2.64-1.64-1.79-17.79,7-15.5v15.15c0,.38-3.29,5.35-4.14,5.7-4.22,1.76-10.12-.35-13.74.64-.87.24-2.93,4.64-4.38,5.89-3,2.6-6.39,2.71-10,3.9-1.55-7.26,6.82-6.78,8.35-11.68,2.06-6.6-3.47-19,6.3-19.6Z"/><path class="cls-1" d="M338.19,510.34v17.11c0,.55-4,4.11-5.4,4.38-3.6.69-18.5.49-22.41-.07-4.45-.63-6.06-5.19-6.45-9.15-.2-2-.72-10,2.47-9.33,5.42,1.55,3.91,12.2,4.41,12.7.7.71,18.79.22,19.91-.14,4-1.31-2.06-16.33,7.47-15.5Z"/><path class="cls-1" d="M319.41,506.73c.28.16.12,1.7.71,1.69,1.53,0,4.15-3.31,6.26-1.9,1.15.77,2.49,7.32-2.3,6.77-3.4-.39-.31-1.46-5.18-.25-7.32,1.82-4.89-9.48.52-6.31Z"/><path class="cls-1" d="M435.11,508.24c-3.94-2.5,2.32-9.62,5.26-4.77C442.77,507.44,437.7,509.88,435.11,508.24Z"/><path class="cls-1" d="M284.18,502.29c-2.44,2.6-7.62-1.34-5.19-4.72C281.2,494.48,288.5,497.71,284.18,502.29Z"/><path class="cls-1" d="M412.49,496.65v5.87C403.45,504.58,403.44,494.59,412.49,496.65Z"/><path class="cls-1" d="M162,535c2.61,2.5-1.42,7.63-4.73,5.21C153.67,537.57,158.11,531.27,162,535Z"/></svg>