<svg id="Layer_1" data-name="Layer 1" xmlns="http://www.w3.org/2000/svg" viewBox="0 0 673.06 720.33"><defs><style>.cls-1{fill:#676767;}</style></defs><path class="cls-1" d="M381.18,367.7c-.83,2.95-7.29,3.07-8-2.87-2.31-19.85,1.77-44,0-64.35.31-2.66,1.16-4.35,4-4.72,4.68-.62,19.82-.51,24.47.21,17.23,2.68,23.38,25.79,9.95,37-3.15,2.64-6,3.15-9.42,5.07l16.1,25.85c1.87,4.14-1.83,7.23-5.74,5.37-3.31-3.16-17.57-30.87-19.4-30.87H381.18v29.27Zm0-37.22h18.46a43.62,43.62,0,0,0,4.48-2c9.9-5.44,9.08-20.27-1.43-24.13-.68-.25-4.18-1.29-4.5-1.29H382.26a7.42,7.42,0,0,0-1.09,1.08v26.38Z"/><path class="cls-1" d="M588.78,369.34c-1.17.66-4.78.32-5.71-.85-1.3-1.64-.42-4.87-.66-6.93l-7.47,5.9c-26.31,13.68-53-18.83-34.16-42,13.63-16.76,40.53-12.23,47.77,8,2.34,6.53,2.74,25.08,1.86,32.18-.11.86-1.08,3.47-1.63,3.78Zm-27.49-46.65c-26.65,1.43-23.69,43,3.41,40.31C589.66,360.49,587.3,321.3,561.29,322.69Z"/><path class="cls-1" d="M445.42,315.48c24.26-3.77,41.8,21,29,42-15.27,25.05-55.31,11.79-51.06-19.18C424.77,328,435.08,317.09,445.42,315.48Zm4.39,7.21c-26,1.39-24.24,41.57,2,40.34C478.26,361.79,476.17,321.28,449.81,322.69Z"/><path class="cls-1" d="M507.13,356.49l16.76-39.29c1.93-3.8,8.38-1.85,7.55,2.43l-30,67.72c-.64,2.77-5.75,3.5-7,.94-2-3.93,7.58-17.75,7.61-22.69L482.28,321c-2.21-5.28,4.15-8,7.06-3.41,6,11.69,10.07,25.86,16.21,37.3.26.48,1.12,2,1.58,1.66Z"/><path class="cls-1" d="M608.31,296.69c.8.8.83,2.65.93,3.77,1.77,20.79-1.39,44,0,65.08-.1,5.79-7.89,5.79-8,0,1.67-21-2.19-45.25,0-65.79.44-4.05,4.62-5.5,7.07-3.07Z"/><path class="cls-1" d="M359.32,315.47c.55.31,1.53,2.92,1.63,3.78,1.15,9.33,1.06,36.86,0,46.3-.66,5.79-7.33,5.79-8,0-1.64-14.34,1.28-31.63,0-46.3-.17-2.9,4-5.12,6.4-3.77Z"/><path class="cls-1" d="M356.37,298.07c5.41-.85,7.79,8.62,1.22,9.27S350.6,299,356.37,298.07Z"/><path class="cls-1" d="M400,476.46c-6.46,1.93-2.48-11.2-3.76-15.4-.88-2.89-6.57-2.77-7.89-.75-2.54,3.9,2.66,18-4.28,16.15V456.59c0-2.4,3.75.08,4,.09.91.06,2.82-1.57,5.72-1.15,2.29.33,3.82,2.64,4.39,2.69,1.39.1,6.3-5.67,11.62-1.3a23.09,23.09,0,0,1,2.51,4V476.1c0,1.24-2.9,1.25-2.9,0V462.37c0-4.74-9.41-3.93-9.41-.72v14.82Z"/><path class="cls-1" d="M418.83,467.79a5.34,5.34,0,0,0,3.11,5.2c6,3.36,9.05-2.09,11-1.59,4.84,1.24-2.94,6.62-9.23,5.61-14.52-2.35-9.68-26.26,6.38-20.82,5.17,1.75,9.06,11.6,5.76,11.6h-17Zm14.47-2.89c-1.56-8.3-13.64-8.58-14.48,0Z"/><path class="cls-1" d="M481.8,476.1c-.63,2.19-3.64.6-3.26-1.81-5,4.34-13.22,4-16.88-1.92-6-9.68,4.28-20.92,14.74-15.43,1.62.85,5.41,4.53,5.41,6.16,0,2.89.59,11,0,13Zm-16.39-4.23c4.9,5,14.65.84,12.62-7.91C475.37,452.48,456.07,462.32,465.41,471.87Z"/><path class="cls-1" d="M489,448.28V458.4c4-3.27,10.45-4.56,13.76.35a42.82,42.82,0,0,1,2.16,5.07v12.65c0,.2-2.93,1.32-3.51-.47-1.6-5,3.64-20.22-8.29-16.72-1.35.4-4.13,4-4.13,5.27v11.56c0,1.24-2.9,1.25-2.9,0V448.65c0-1.26,1.95-.64,2.9-.36Z"/><path class="cls-1" d="M380.46,475.38c-.75,2.66-4,1.94-4-1.08-3.13,2.92-7.14,3.87-10.86,1.44-.8-.52-4-4-4-4.7V455.5c.78,0,1.5-.2,2.21.32,2.53,1.85-3.35,21.23,8.86,17.59,1-.3,4.13-3.82,4.13-4.54V456.58c0-1.36,3.62-1.36,3.62,0,0,4,.8,15.95,0,18.79Z"/><path class="cls-1" d="M353.68,448.28a1.7,1.7,0,0,1,2.9,1.08c.69,4.1.57,24.62-.18,28.74-1.07,5.88-10.7,9.29-10.69,5.23.54-2.38,3.42-1.68,5.46-3.23a12.51,12.51,0,0,0,2.51-3.27C353.68,473.09,352.85,449.45,353.68,448.28Z"/><path class="cls-1" d="M447.06,456.59c.26-.93,2.49-1.48,2.89-1.09s-1,3.34,1.08,2.89c1.24-2.63,9.86-4.88,9.06-.36-.09.49-4.45,1.11-5.59,1.66-7.43,3.6-2.85,16.89-5.65,17.49a2.15,2.15,0,0,1-1.8-1.08c0-4.12-.82-16.61,0-19.51Z"/><path class="cls-1" d="M439.82,456.59c.47-1.62,2.9-.94,2.9,0V476.1c0,1.24-2.9,1.25-2.9,0C439.82,472.05,439,459.39,439.82,456.59Z"/><path class="cls-1" d="M442.6,452.5c-4.08,2.51-4.55-6.12.13-3.16C443.82,450,443,452.26,442.6,452.5Z"/><path class="cls-1" d="M392,419.37c.84,9.16,10,13,18,8.94,1.51-.76,5.33-5.48,6.49-2s-4.66,7.43-7.68,8c-8.55,1.73-18-1.7-21.31-10.19-7.87-20.28,18.65-33.53,30.53-17.47,1.58,2.13,5.92,12.65,1.81,12.65H392ZM415.93,415c-1.78-14.22-21.8-13.93-24.61,0Z"/><path class="cls-1" d="M513.65,419.37c.82,8.27,9.64,12.82,17.15,9.53,2-.87,7-6.56,8.11-1.8.7,3-6.13,6.82-8.41,7.28-19.59,4-31.09-19.31-15.42-31.29,10.7-8.17,27.25-.85,28.17,12.41.07.94.23,3.87-1,3.87ZM538.26,415c-2.83-13.9-22.54-14.23-24.61,0Z"/><path class="cls-1" d="M376.11,429.49c-13.25,13.13-35,0-29.15-17.91,5.75-17.58,32.59-14.85,34.25,3.78.25,2.85.45,15.09-.18,17.22-1.24,4.18-6.29.9-4.93-3.1ZM360,405.08c-13,2.68-10.94,26.09,4.58,24.8C381.69,428.46,379.56,401.05,360,405.08Z"/><path class="cls-1" d="M473.12,388.65c.66-2.11,5.07-1.82,5.07.72v15.54c5.74-6.46,16.85-7.49,22,0,.87,1.27,3.3,7.09,3.3,8.26v19.51c0,2.1-5.07,2.1-5.07,0V413.94c0-1-2.05-5.49-2.89-6.51-3-3.67-9.35-3.35-13-.67-1.25.92-4.39,5.18-4.39,6.46v19.51c0,2.1-5.07,2.1-5.07,0V388.65Z"/><path class="cls-1" d="M593.86,399.3c3.27-.18,15.82,3.28,13.58,7.78-2,3.92-6.69-1.45-9.62-2-20.28-3.76-20.65,27.16-.62,24.34,3.62-.51,6.73-5,9.53-2.87,3.92,2.94-5.3,7.53-8.07,7.95-26.93,4.09-28.21-33.95-4.8-35.21Z"/><path class="cls-1" d="M445.36,402.28c1.09,1.09,2.69,4.05,1,5.21-2.47,1.7-4.25-2.5-7.07-3.14-4.74-1.07-11.41,1.12-8.53,7.08,1.81,3.75,25.74,4.9,16.43,18.57-3.53,5.18-12.73,6-18,3.25-2.2-1.13-7.37-6-3.83-7.74,3.25-1.57,3.46,1.89,6,3.41,8.11,4.85,17.18-3.61,10.19-8-5.15-3.24-16-2.79-16.52-11.55-.6-9.59,14.65-12.78,20.34-7.08Z"/><path class="cls-1" d="M457.19,404.92c-.42-.41-6.93,1.38-6.57-3.24.25-3.21,5.09-.85,6.25-2.5,1.48-2.11-1.53-11.45,2.23-12.2,5.23-1,2.29,12,3.15,12.88.39.39,7.3-1.23,7.28,2.54,0,3.5-7.28,2.11-7.28,2.52v27.82c0,2.1-5.07,2.1-5.07,0,0-3.74,1-26.85,0-27.82Z"/><path class="cls-1" d="M556.36,399.86c.86.87,7.51-2.06,7.19,2.55-.27,3.93-7.19,2.09-7.19,2.51v27.82c0,2.1-5.07,2.1-5.07,0V404.92c0-.38-6.53,1.18-6.53-2.53s6.53-2.15,6.53-2.53v-11.2c0-1.76,5.07-1.76,5.07,0C556.36,390.26,556,399.46,556.36,399.86Z"/><path class="cls-1" d="M567.22,401.66c.52-3.17,5.07-1.71,5.07-.72v31.8c0,2.1-5.07,2.1-5.07,0Z"/><path class="cls-1" d="M568.43,389.12c5.29-1.8,6,6.61.62,5.72C566.14,394.36,566,390,568.43,389.12Z"/><path class="cls-1" d="M114.07,307c-.78-6.21-5.93-19.11-9.84-24.15-4.57-5.89-3.64-1.7-7.71-2.35-10.77-1.72-4.3-18.19,4.51-11.79,5,3.66,1.06,8,1.8,9.72,1.67,3.94,16.72,12.87,21.19,13.58,10.06,1.6,16.89-5.53,16.9-15.36,0-2.29-2.49-14.32-3.79-15.42-.87-.74-8.9.72-10.57-5.71-2.89-11.13,12.53-15.55,15.79-4.91,1.82,5.94-3.36,8-3.47,9.41-.13,1.58,6.6,11.6,8.12,13.39,12.4,14.61,30.11,17.05,36.52-4,1.94-6.37,3.53-17.73.84-23.88-1.21-2.77-6.25-2.89-7.17-9.51-2-14.46,22.07-14.38,20.09.13-.92,6.75-6.71,6.95-7.61,9.77-1.45,4.52-.95,12.83-.13,17.57,4.56,26.2,24.39,27.67,39.51,8,1.17-1.53,5.62-8,5.81-9.45.4-2.91-5.89-4.27-3.9-11.77,2.7-10.18,18.82-5.64,16,5.1-1.72,6.47-8.26,4.62-10.13,7.24-3.66,5.14-4,18.13-.53,23.59,8.86,13.83,26,.86,34.78-6.39.81-1.38-4-6.11,1.29-10.63,5.63-4.77,13.75,2.77,9,8.94-3.44,4.42-7.32,1.34-8.69,2.15-1,.61-4.5,5.84-5.2,7.11-2.39,4.38-7.84,19.45-7.84,24v11.92H114.07c-.46-5.14.63-11.26,0-16.26Z"/><path class="cls-1" d="M118.42,423.71c1.43,4.36,1.86,10,3.27,14.44,1.31,4.09,3.56,7.75,5.41,11.57-2.76,1.19-5.24.21-7.62-1.42L113,438.17c-3.82,9.4-9.38,18.19-11.59,28.17-3.45-4.75-2.6-11-3.32-16.2-.42-3-2-6.93-2-10.25,0-4.09,1.71-8,2.82-11.84-12.12.47-16.4-5.73-15.19-17.35,2.69.49,3.06,3.18,5.69,4.8,12.23,7.53,20.51-11,14.72-20.48L100,387.57A35.76,35.76,0,0,1,110.08,402c1,2.86,1,6,2,8.8,1.44,4,4.83,8.39,6.3,12.86Z"/><path class="cls-1" d="M125.65,456.23a49.85,49.85,0,0,1,2,4.85c1.16,5.53-2,8-4.18,12.47,2.89,0,16.27,11.94,14.47,13.74-13.69-5.92-35.62-1.79-34-22.79.14-1.88.34-4,1.83-5.37,5.47,6.43,11.86,8.2,17.34.68.59-.81,1.19-4.89,2.55-3.58Z"/><path class="cls-1" d="M87.28,323.26l7.65,12.24c1.47.93,2.23.84,3.39,2.4,6.59,8.83,2.41,23.31,12.12,30.53-5.31,3.22-11-2.4-13.38-6.85L84.4,381.8c-3-7.9-2.74-15.41.16-23.31,1.1-3,3.12-5.51,4.16-8.48-10,6.35-18.27,1.92-19.53-9.4,11.33,11,22.92-6.2,16.63-17l1.45-.37Z"/><path class="cls-1" d="M67.75,354.33l4.62,10.93c1.45,4,7,7,8.57,10.23.33.68,3.77,13.05,4.9,11.36a9.59,9.59,0,0,1,.37-3.61c.25-.9.93-3.82,2.14-3.58,1.72.34,10.28,9.69,11.57,11.58,3.79,5.6,6.25,13.44,2.22,19.46-6.68-7.53-16.47-11.82-23.18-19.5-4.49-5.14-11.21-16.65-11.21-23.5Z"/><path class="cls-1" d="M65.58,297.24c1.92.83,1.41,3.61,2.12,5.46C72,313.8,88.1,321,85.83,333c-.73,3.86-8.06-.91-10.07-2.23C63.34,322.67,60.7,311,65.57,297.24Z"/><path class="cls-1" d="M70.63,348.55c.31.26,1,3,2.66,4.22a9,9,0,0,0,6,1.56c-.36,2.12-1.67,3.82-2.37,5.94-.48,1.43-1,6.1-1.25,6.35-1.07,1.24-1.3-.5-1.61-.95-2.83-4.05-5.54-11.84-4.9-16.76-.09-.63,1.35-.43,1.44-.36Z"/><path class="cls-1" d="M84.39,336.27c.87,1.16-4.26,6-5.58,6.34-2,.59-6.91-.45-7.38-2.45-.17-.71,3.59-7.51,4-7.57,2.08-.33,6.48,3.61,9,3.68Z"/><path class="cls-1" d="M274.05,387.58c-5.6,6.88-8.86,15-4.23,23.37,2.8,5.08,9.15,7.64,14.33,4.42,3.28-2,6.42-10.41,5.85.06-.56,10.31-6.52,12.22-15.95,11.9,5.47,8.09,2.74,14.51,1.52,22.83-.72,4.9.14,11.63-3.68,15.46-1.72-10-8.1-18.46-10.88-28.18-1.87-.33-1.12.25-1.5,1-2.46,4.9-3.54,10.73-10.4,11.29-.9.07-3.72.61-3.28-1.11,7.39-8.29,7.33-20.34,11.45-30.49,1.08-2.67,3.38-5.61,4.26-8,2.44-6.71,1.68-10,6.43-16.7.68-1,5.06-6.78,6.09-5.84Z"/><path class="cls-1" d="M304.45,340.6c-1.85,11.8-9.11,14.37-19.54,9.4,5.83,9.12,8.6,20.72,4.33,31.07l-12.31-20.23c-3.54,5.23-6.76,8.83-13.74,7.94l5.62-8.47c2.13-7.2,2-16.81,6.49-23.15,1.27-1.8,2.43-1.4,3.42-2.37,2.4-2.34,4.54-10.17,8.71-12.26.7,1.48-.83,3.05-1,4.75-.8,6.9,1.89,16,10,16.52,3.74.23,5-2.08,8.06-3.21Z"/><path class="cls-1" d="M305.9,367.7c-.95,8-7.12,18.79-12.63,24.63C287,399,277.73,403.15,271.52,410c-6.85-12.16,5.23-23.62,13.75-31a10.5,10.5,0,0,1,2.54,7.21c1.32,1.7,4.74-11.18,5.14-11.85,1.52-2.59,7.86-6.57,8.91-10.61l4-9.33c-.36,4.26.49,9.21,0,13.37Z"/><path class="cls-1" d="M249.43,456.23c2.93,10.61,12.9,9.95,18.82,2.17,8.38,24.58-17.19,23.69-33.29,28.18.24-4.29,14.95-13.09,15.2-14.11s-2.36-2.92-3-4.17c-2.05-3.76-2.28-10.55,2.31-12.07Z"/><path class="cls-1" d="M308.06,297.24c.6.62,2.19,9.61,2.22,11.18.33,13.6-10.28,22.79-22.48,26.4-3.15-15.84,14-20.17,18.46-33.23.27-.81.09-6.08,1.79-4.34Z"/><path class="cls-1" d="M304.45,347.83c.11,6.61-2,13.91-6.5,18.79-.27-4.39-2.09-8.26-3.63-12.28,5-.93,5.87-1.66,8.52-5.57.44-.65-.11-1.33,1.61-.94Z"/><path class="cls-1" d="M289.25,335.54c.3-.34,7.21-2,8.34-3.44,3.2,3.55,7.35,8.65.35,10.36-3.51.86-10.09-5.32-8.68-6.92Z"/><path class="cls-1" d="M118.42,423.71c-2.34-7.77-3-16.88-4.37-24.9l0-72.66h145.5C257.83,358.31,264,394.06,254,425c-7.66,23.71-24.39,44.6-44.86,58.56-3.76,2.57-18.52,11.52-22.29,11.58-4,.06-16.88-7.73-20.74-10.27C145,471,125.82,448.2,118.43,423.71Zm138.26-95.4H116.25c1.15,45.35-7.47,89.47,22.14,127.86,9,11.66,31.37,31.25,45.38,35.63,5.46,1.71,12.63-3.26,17.4-6.08,31.29-18.52,52.2-49.58,55.51-86.23Z"/><path class="cls-1" d="M198.77,450.44l-12.31,6.14v33.6c-33.77-14.62-61.32-46.08-66.6-83.11h65.51c1.59,0,1.22-10.8,1.12-12.68-.28-5.3-1.69-10.93-2.21-16.23-1,.6-4.66,3.67-5.43,3.6s-1-2.08-1.09-2.15c-.31-.23-2.89,1.91-4,1.91-2.05,0-2.47-2.68-3-2.68-1.31,0-4.46,2.59-6.83,1.49l.72-4.33c-2.82,1.13-5.49,2.68-8.68,2.16-.38-1.91.49-2.88,1.45-4.33-4.25,1.77-16.55,3.25-8.69-2.89a23.61,23.61,0,0,1-9,.64c-.8-.11-3.14-.4-2.59-1.72s2.73-1.25,2.89-2.53c-4.21.4-8.14.72-12.3-.37,3.46-1.85,7.66-2.44,11.35-3.84,4.22-1.6,8.44-3.65,12.55-5.54,6.22-2.85,18.77-12.5,25.1-6.66,4,3.66.52,13.61,7.46,12.06,1.24-2.79-1.22-4.43-1.28-4.69s-.09-3.7,0-4.18c.39-3,3.48-2.45,3.48-2.69V331.91H252.7c.79,0,1,1.76,1.12,2.49,1.61,13.74-.31,33.56-.79,47.7-.28,8.32.06,16.66-.69,25H187.92c-.06,2.95,6.72,11.84,6.36,14-.25,1.5-6.23,8.4-7.81,9.88V407.77l-26.79,58.17,26.07-10.1c1.25-1,.61-3.23.72-4.7H172a151.59,151.59,0,0,1,14.47-19.51l.37,2.16c2-.87,7.22-9.91,8-10.12,1.36-.38,1.69,2,2.12,2.93,4.94,10.87,12.07,27.49,15.6,38.65.12.37.2,1.18-.35,1.07-4.64-5.1-9-10.53-13.4-15.9a9.47,9.47,0,0,1-1.74-.62,3.92,3.92,0,0,1-1.35-.94,91.7,91.7,0,0,1-9.22-12.9c1.72,1.65,2,11,1.45,13.42l-1.45,1c1.67-2.64,9.63-1.91,12.31,0ZM225.19,371c3,.56,7.33-.41,10.5,0l-1.2-2.05L213.26,358c10.34,2.64,19.09,11.2,30.4,9.38l-.71-1.09a75.15,75.15,0,0,1-12.09-3.83c-7.37-3-22.07-12.65-28.83-12.47-10.44.28-5.77,8.51-8.71,12.3-1.17,1.51-3.6,1.24-3.87,1.56-.41.48-.3,11.18-.12,12.61a5.55,5.55,0,0,0,5.82,4.66l-.36-3.61c1.72,1.77,3.41,3.87,6.15,3.61l-1.09-5.77c.68,2.72,10.05,7.49,8.76,2.84-.41-1.48-4.93-4.8-4-5.73,3.47,2.82,7.55,5.58,12.3,5,.38-3.25-3.66-4.35-5.86-6.08-.41-.32-2.55-.66-1.36-1.86.35-.35,6.79,4.32,8.63,4.75,2.87.67,5.85.18,8.74.3-2.55-3.77-8.06-5-12.05-7.11-.91-.48-2.94-1.25-3.15-2.27,4.16,0,9.9,5.12,13.39,5.77Zm-36-13.93c2-2.13.4-5.31-2.69-4.86v5.77C186.79,358.28,188.77,357.43,189.16,357Zm-2.7,2.73V389l1.44-7.6c-.51-7.66.94-15.13.73-22.75a2.11,2.11,0,0,0-2.17,1.08Z"/></svg>