<svg id="Layer_1" data-name="Layer 1" xmlns="http://www.w3.org/2000/svg" viewBox="0 0 673.06 720.33"><defs><style>.cls-1{fill:#676767;}</style></defs><path class="cls-1" d="M246.52,187.08c15.19.08,24.24,6.37,29.29,18.26,7.45,17.48,14.62,35.06,21.9,52.6,1.32,3.19,1.28,3.21-1.9,4.61-2.62,1.15-5.23,2.29-7.86,3.41-2.29,1-3.9.36-4.81-1.83q-8.79-21.15-17.56-42.3c-1.44-3.44-2.84-6.89-4.33-10.3-3.44-7.86-10.74-10.84-18.7-7.56q-38.38,15.83-76.76,31.71Q152,241.37,138.24,247c-5.1,2.09-8.32,5.7-9.21,11.24-.47,3,.46,5.66,1.56,8.31,8.38,20.18,17,40.24,25.1,60.53,22.48,56.51,46.57,112.34,69.56,168.63,1.74,4.26,3.55,8.48,5.34,12.71,3.23,7.65,10.66,10.79,18.36,7.62q39.78-16.36,79.51-32.83c8.26-3.41,16.43-7.05,24.8-10.16a14.25,14.25,0,0,0,8.11-19.44c-8.23-18.75-16-37.7-24.24-56.45-5.1-11.58-9.8-23.33-14.64-35-1.19-2.87-1-3.15,1.78-3.88s5.56-1.3,8.32-2c1.69-.45,2.72-.16,3.5,1.62,13,30.07,27.14,59.64,39.93,89.8,3.72,8.77,3.68,17.39-.64,25.88a28.72,28.72,0,0,1-15.14,13.71q-53.34,22-106.7,44c-14.23,5.83-30.9-1.28-37.22-15.81-4.7-10.81-9.12-21.76-13.63-32.65C184,437.86,165.26,393,146.82,348c-10.4-25.37-20.47-50.87-31.25-76.09-6.78-15.86,1.2-33.33,16.68-39.58,29.24-11.81,58.32-24,87.47-36,5.16-2.14,10.36-4.18,15.48-6.43,4.28-1.89,8.65-3.06,11.32-2.74Z"/><path class="cls-1" d="M530.3,282.73v25.33c0,1.24,0,2.49-.08,3.72-.72,7.72-4.3,11.05-12.08,11.17-4.84.07-9.68.08-14.52,0-3.41-.07-6.7-.76-9.14-3.43-1-1.08-1.78-1.1-2.71.07-1.58,2-3.86,2.63-6.22,3a50.73,50.73,0,0,1-12.25.21,10.64,10.64,0,0,1-6.83-3.5c-1-1-1.83-1.08-2.72.12-1.52,2.06-3.76,2.73-6.13,3.12a51.35,51.35,0,0,1-12.63.26,10.58,10.58,0,0,1-6.83-3.47c-.92-1-1.75-1.35-2.72-.09-2.28,3-5.62,3.53-9,3.64-5.95.18-11.92.19-17.87.11-3.92-.06-7.68-.86-10.44-4-.9-1-1.68-1.2-2.72-.1-2.83,3-6.56,4-10.48,4.06-8.82.14-17.63,0-26.45.12-2.15,0-3.25-.6-3.16-2.95.12-3.1.11-6.21,0-9.31-.07-2.11.86-2.88,2.89-2.86,4.34.05,8.68,0,13,0,1.12,0,2.23,0,3.35-.1,5-.31,6.05-1.41,6.17-6.35,0-.74,0-1.49,0-2.23,0-6-1.88-7.93-8-8.12-3.35-.09-6.71-.12-10,0-2.31.09-3.49-.57-3.37-3.11.14-3,.07-6,0-8.94,0-2,.69-3,2.82-2.95,7.07.1,14.16-.17,21.22.24,9.85.59,15.13,6.11,15.83,15.88.19,2.72.07,5.47.18,8.2.2,5.14,2.62,7.45,7.69,7.45,2.48,0,5,.09,7.44,0,4-.13,5-1,5.16-5.16.15-4.72,0-9.44.09-14.15,0-3.7.11-3.78,3.73-3.81s7.45.07,11.18,0c2.35-.07,3.35.73,3.28,3.22-.15,4.84-.08,9.69,0,14.53.06,4.61,3.59,6.78,7.91,5,1.81-.76,2.13-2.33,2.15-4,.1-4.84.12-9.68.17-14.52q0-4.14,4.13-4.17c3.36,0,6.71,0,10.06,0,3.83,0,3.84,0,3.85,4,0,4.72-.07,9.44.07,14.15.1,3.21,1.5,4.54,4.52,4.83,3.83.36,5.41-.72,5.57-4.62.26-6.69.17-13.4.2-20.1,0-5.17,0-5.18,5.33-5.18,3.11,0,6.21,0,9.31,0s3.28.16,3.3,3.45c0,6.58,0,13.16,0,19.74,0,4.55,1.6,6.33,6.13,6.66a70.63,70.63,0,0,0,7.42,0,3.79,3.79,0,0,0,3.93-3.7,28.74,28.74,0,0,0,.11-3.72v-44.7c0-4.33,0-4.33,4.38-4.34,3.48,0,7-.05,10.43,0,3.12.06,3.32.26,3.33,3.48,0,9.31,0,18.62,0,27.94Z"/><path class="cls-1" d="M276.3,318.37c-8.77,6.75-17.72,5.44-27.19,2.11-.76.46-.44,1.57-.49,2.47-.61,12.61-10.21,21.65-21.84,22.95-5.9.66-11.67.63-17.32-1.13-10.3-3.2-15.58-9.6-16.49-21.77a42,42,0,0,1,3.78-20.67c1.44-3.2,1.82-3.36,5.09-2.5s6.73,1.77,10.06,2.74c2.89.83,3.12,1.16,1.93,3.87a30.69,30.69,0,0,0-2.45,15.63c.48,4.92,5.58,9.88,10.73,9.22a9.46,9.46,0,0,0,7.86-6.37,20.3,20.3,0,0,0,.78-6.26q0-15.09,0-30.17c0-3.68.05-3.7,3.74-3.73s7.45.08,11.17,0c2.27-.07,3.09.82,3.06,3.06-.08,5-.1,9.93,0,14.9.1,4,1.43,5.15,5.22,5.13,3.57,0,5-1.22,5-4.92q.21-7.45,0-14.9c-.05-2.39.74-3.36,3.19-3.28,4,.14,7.95.13,11.92,0,2.32-.06,3,.94,3,3.12-.08,5-.08,9.93,0,14.9.08,3.48,1.43,4.81,4.66,5,3.77.28,5.32-1,5.4-4.84.14-7.07.06-14.15.1-21.23,0-3.76,0-3.81,3.68-3.85s7.45.09,11.17,0c2.43-.08,3.26.84,3.22,3.27-.13,6.57-.06,13.16,0,19.74,0,4.9,1.78,6.78,6.64,6.95,3.1.12,6.2.18,9.3.08,4.11-.13,5.4-1.45,5.48-5.83.12-6.33,0-12.67.06-19,0-5.22-.79-5.2,5.29-5.17,3.35,0,6.71,0,10.06,0,1.85,0,2.67.69,2.66,2.64-.08,10.43.12,20.86-.13,31.29-.18,7.43-4.12,11-11.61,11.15-5.83.11-11.67.12-17.51.07-3.91,0-7.74-.52-10.53-3.73-1-1.13-1.72-.62-2.42.21-1.82,2.17-4.33,2.88-6.93,3.2a54.2,54.2,0,0,1-11.53.1c-3.36-.3-5.92-2.28-7.91-4.43Z"/><path class="cls-1" d="M559.89,286.91q0,16.18,0,32.37c0,3.65,0,3.67-3.75,3.68s-7.45-.14-11.16.05c-2.52.13-3.26-.89-3.23-3.24.08-6.45,0-12.9,0-19.35q0-22.51,0-45c0-4.06,0-4.07,4.19-4.09,3.59,0,7.19.12,10.79,0,2.51-.11,3.19.89,3.17,3.27-.09,10.79,0,21.58,0,32.37Z"/><path class="cls-1" d="M241.81,364.84c0-2.11.06-4.23,0-6.33s.3-3.31,2.81-3.26c2.35,0,2.57,1.31,2.54,3.12,0,3.47,0,6.95,0,10.42,0,1.3.06,2.58,1.83,2.63s1.92-1.21,1.94-2.52c0-1,0-2,0-3,.06-3.27.86-4.11,4-3.22a10.85,10.85,0,0,0,5.07,0c5.83-1,8.65.76,9.86,6.49.51,2.43,2.13,2.38,3.9,2.38,1.92,0,2.12-1.33,2.1-2.81,0-.86,0-1.73,0-2.61.07-2.89.78-3.49,3.53-3.12,1.15.14,1.86.57,1.85,1.83,0,2.61,0,5.22-.1,7.82a3.13,3.13,0,0,1-3.35,3.26c-2.69,0-5.49.79-8-.9a1.54,1.54,0,0,0-1.74,0c-2.31,1.27-4.84,1.12-7.29,1-4.83-.31-9.64.23-14.46,0-3.55-.14-4.36-1-4.53-4.44,0-.25,0-.5,0-.74v-6Zm17.89,6.76h0c.62,0,1.23,0,1.86,0,1.45,0,2.85-.31,2.84-2.15s-1.3-2.5-3-2.56a9.12,9.12,0,0,0-4,.72,2.14,2.14,0,0,0-1.25,2.42c0,1.36,1,1.57,2,1.59h1.49Z"/><path class="cls-1" d="M312.71,364.85c0,2.24.05,4.47,0,6.7-.09,3.48-.92,4.29-4.47,4.42-1.61.06-3.23.27-4.78-.41a3.11,3.11,0,0,0-2.15-.25c-4.88,1.35-9.87.41-14.8.69-1.5.08-2.69-.15-2.73-2.12s.93-2.38,2.55-2.29,2-1,2-2.41c0-2.49.05-5,0-7.45-.05-1.94,1.13-2.19,2.65-2.21s2.68.37,2.66,2.24c0,2.48,0,5,0,7.45,0,1.15.11,2.34,1.7,2.31,1.39,0,2-.94,2-2.2,0-3.72.09-7.45,0-11.16,0-2,.56-2.94,2.75-2.9,2,.05,2.58.94,2.55,2.75-.06,3.47,0,6.95,0,10.42,0,1.28,0,2.52,1.56,3,1.88.61,3.32-.4,3.36-2.57.08-3.6.07-7.2,0-10.79,0-1.74.33-2.77,2.43-2.81s2.82.89,2.73,2.89c-.1,2.22,0,4.46,0,6.69Z"/><path class="cls-1" d="M238.54,364.93c0,2.35.06,4.7,0,7.05-.09,2.9-.92,3.87-3.73,4-4.21.13-8.42,0-12.62.06-1.47,0-2.34-.45-2.37-2.1s.58-2.37,2.17-2.28c2.08.12,2.45-1.14,2.41-2.84,0-2.35,0-4.7,0-7,0-1.91,1.1-2.22,2.65-2.22s2.71.26,2.69,2.18c0,2.47,0,4.95,0,7.42,0,1.1-.08,2.39,1.56,2.39s2.07-1.09,2.08-2.48c0-3.71.09-7.42,0-11.13-.06-2.22,1-2.71,3-2.63,1.58.07,2.23.69,2.21,2.24,0,2.48,0,4.94,0,7.42Z"/><path class="cls-1" d="M205.78,376c-2.61,0-5.22.09-7.82,0s-3.5-1-3.7-3.69c-.11-1.48,0-3,0-4.47-.1-1.95.51-2.95,2.73-2.94s2.59,1.14,2.63,3c.07,3.67.16,3.69,3.81,3.73,2.11,0,4.21,0,6.33,0,1.82,0,2.8-.73,2.69-2.67-.06-1,.07-2,0-3-.14-1.89.26-3,2.56-3s2.85.9,2.72,2.92c-.11,1.73,0,3.47,0,5.21-.08,4.07-.8,4.83-4.77,4.91-2.36.06-4.71,0-7.07,0v0Z"/><path class="cls-1" d="M341.26,331.22c7.26,0,7.29,0,7.25,7.17,0,6.91.94,6.32-6.34,6.34-2,0-4,0-5.93,0a2,2,0,0,1-2.26-2.26c0-3,0-5.94,0-8.91,0-1.8.82-2.41,2.48-2.35s3.21,0,4.82,0Z"/><path class="cls-1" d="M323.68,344.73c-8.17-.09-7.17,1-7.16-7,0-7.3-1.15-6.43,6.47-6.5,1.74,0,3.47.08,5.2,0,2-.13,3,.45,2.91,2.66-.13,2.71-.11,5.44,0,8.16.07,2.14-.95,2.86-2.94,2.74-1.48-.09-3,0-4.46,0Z"/><path class="cls-1" d="M207.81,361.71c-1.24-.85-2.91,0-4.57.08-1.43.08-2-.66-2-2s.65-2.12,2-2a12.08,12.08,0,0,0,5,0c1.23-.36,2.13.28,2.18,1.77s-.59,2.35-2.64,2.09Z"/><path class="cls-1" d="M280.18,360c-1.19-.74-2.73-.13-4.28,0s-2.21-.69-2.21-2.21.89-2.12,2.13-1.84a11.92,11.92,0,0,0,5,0c1.5-.28,2.3.53,2.2,2.14s-1,2.11-2.84,1.89Z"/></svg>